STARTFONT 2.1
FONT -FontForge-Liberation Sans-Book-R-Normal-Sans--24-240-75-75-P-139-ISO10646-1
SIZE 24 75 75
FONTBOUNDINGBOX 30 31 -5 -7
COMMENT "Generated by fontforge, http://fontforge.sourceforge.net"
COMMENT "Digitized data `2007 Ascender Corporation. All rights reserved."
STARTPROPERTIES 40
FOUNDRY "FontForge"
FAMILY_NAME "Liberation Sans"
WEIGHT_NAME "Book"
SLANT "R"
SETWIDTH_NAME "Normal"
ADD_STYLE_NAME "Sans"
PIXEL_SIZE 24
POINT_SIZE 240
RESOLUTION_X 75
RESOLUTION_Y 75
SPACING "P"
AVERAGE_WIDTH 139
CHARSET_REGISTRY "ISO10646"
CHARSET_ENCODING "1"
FONTNAME_REGISTRY ""
CHARSET_COLLECTIONS "ASCII ISOLatin1Encoding ISO8859-2 ISO8859-5 ISO8859-7 ISO8859-9 ISO8859-4 Symbol ISO10646-1"
FONT_NAME "LiberationSans-Regular"
FACE_NAME "Liberation Sans Regular"
COPYRIGHT "Digitized data `2007 Ascender Corporation. All rights reserved."
FONT_VERSION "1.05"
FONT_ASCENT 19
FONT_DESCENT 5
UNDERLINE_POSITION -5
UNDERLINE_THICKNESS 2
X_HEIGHT 12
CAP_HEIGHT 16
RAW_ASCENT 799
RAW_DESCENT 200
NORM_SPACE 7
RELATIVE_WEIGHT 40
RELATIVE_SETWIDTH 50
SUPERSCRIPT_X 0
SUPERSCRIPT_Y 11
SUPERSCRIPT_SIZE 15
SUBSCRIPT_X 0
SUBSCRIPT_Y 3
SUBSCRIPT_SIZE 15
FIGURE_WIDTH 13
AVG_LOWERCASE_WIDTH 123
AVG_UPPERCASE_WIDTH 161
ENDPROPERTIES
CHARS 682
STARTCHAR space
ENCODING 32
SWIDTH 277 0
DWIDTH 7 0
BBX 1 1 0 0
BITMAP
00
ENDCHAR
STARTCHAR exclam
ENCODING 33
SWIDTH 277 0
DWIDTH 8 0
BBX 2 17 3 0
BITMAP
C0
C0
C0
C0
C0
C0
C0
C0
C0
C0
C0
C0
00
00
C0
C0
C0
ENDCHAR
STARTCHAR quotedbl
ENCODING 34
SWIDTH 354 0
DWIDTH 9 0
BBX 6 5 1 12
BITMAP
CC
CC
CC
CC
CC
ENDCHAR
STARTCHAR numbersign
ENCODING 35
SWIDTH 556 0
DWIDTH 13 0
BBX 13 17 0 0
BITMAP
0C30
0820
0820
0820
1820
FFF8
1040
1040
1040
3040
30C0
FFF8
2080
2080
6180
6180
4100
ENDCHAR
STARTCHAR dollar
ENCODING 36
SWIDTH 556 0
DWIDTH 13 0
BBX 11 20 1 -2
BITMAP
0400
0400
3F00
7FC0
E4E0
C460
C400
E400
7C00
3F00
07C0
04E0
0460
4460
C460
64E0
7FC0
1F00
0400
0400
ENDCHAR
STARTCHAR percent
ENCODING 37
SWIDTH 889 0
DWIDTH 21 0
BBX 19 17 1 0
BITMAP
380300
6C0600
C60600
C60C00
C61800
C61000
C63000
C66380
6C46C0
38CC60
018C60
010C60
030C60
060C60
0C0C60
0C06C0
180380
ENDCHAR
STARTCHAR ampersand
ENCODING 38
SWIDTH 666 0
DWIDTH 16 0
BBX 15 17 1 0
BITMAP
0780
0FC0
1CE0
1860
1860
18C0
0F80
1F00
3E0C
660C
C318
C398
C1F0
C0F0
E0F0
7FFE
3F1E
ENDCHAR
STARTCHAR quotesingle
ENCODING 39
SWIDTH 190 0
DWIDTH 5 0
BBX 2 5 1 12
BITMAP
C0
C0
C0
C0
C0
ENDCHAR
STARTCHAR parenleft
ENCODING 40
SWIDTH 333 0
DWIDTH 8 0
BBX 6 22 1 -5
BITMAP
0C
18
30
30
60
60
60
C0
C0
C0
C0
C0
C0
C0
C0
60
60
60
30
30
18
0C
ENDCHAR
STARTCHAR parenright
ENCODING 41
SWIDTH 333 0
DWIDTH 8 0
BBX 6 22 0 -5
BITMAP
C0
60
30
30
18
18
18
0C
0C
0C
0C
0C
0C
0C
0C
18
18
18
30
30
60
C0
ENDCHAR
STARTCHAR asterisk
ENCODING 42
SWIDTH 389 0
DWIDTH 9 0
BBX 9 9 0 8
BITMAP
0C00
0C00
0C80
FF80
3F00
1C00
1E00
3300
1200
ENDCHAR
STARTCHAR plus
ENCODING 43
SWIDTH 583 0
DWIDTH 14 0
BBX 12 12 1 2
BITMAP
0600
0600
0600
0600
0600
FFF0
FFF0
0600
0600
0600
0600
0600
ENDCHAR
STARTCHAR comma
ENCODING 44
SWIDTH 277 0
DWIDTH 7 0
BBX 2 6 2 -3
BITMAP
C0
C0
C0
40
40
80
ENDCHAR
STARTCHAR hyphen
ENCODING 45
SWIDTH 333 0
DWIDTH 8 0
BBX 6 2 1 5
BITMAP
FC
FC
ENDCHAR
STARTCHAR period
ENCODING 46
SWIDTH 277 0
DWIDTH 7 0
BBX 2 3 2 0
BITMAP
C0
C0
C0
ENDCHAR
STARTCHAR slash
ENCODING 47
SWIDTH 277 0
DWIDTH 7 0
BBX 7 17 0 0
BITMAP
06
06
0C
0C
0C
18
18
18
30
30
30
70
60
60
60
C0
C0
ENDCHAR
STARTCHAR zero
ENCODING 48
SWIDTH 556 0
DWIDTH 13 0
BBX 11 17 1 0
BITMAP
1F00
3F80
71C0
60C0
C060
C060
C060
C060
C060
C060
C060
C060
C060
60C0
71C0
3F80
1F00
ENDCHAR
STARTCHAR one
ENCODING 49
SWIDTH 556 0
DWIDTH 13 0
BBX 10 17 2 0
BITMAP
1C00
3C00
6C00
CC00
8C00
0C00
0C00
0C00
0C00
0C00
0C00
0C00
0C00
0C00
0C00
FFC0
FFC0
ENDCHAR
STARTCHAR two
ENCODING 50
SWIDTH 556 0
DWIDTH 13 0
BBX 10 17 1 0
BITMAP
1F00
7F80
61C0
C0C0
00C0
00C0
00C0
0180
0300
0600
0C00
1800
3000
6000
E000
FFC0
FFC0
ENDCHAR
STARTCHAR three
ENCODING 51
SWIDTH 556 0
DWIDTH 13 0
BBX 11 17 1 0
BITMAP
1F80
7FC0
60E0
C060
0060
0060
00C0
0F80
0F80
00C0
0060
0060
C060
C060
60C0
7FC0
1F00
ENDCHAR
STARTCHAR four
ENCODING 52
SWIDTH 556 0
DWIDTH 13 0
BBX 11 17 1 0
BITMAP
0380
0380
0780
0580
0D80
1980
1980
3180
3180
6180
C180
FFE0
FFE0
0180
0180
0180
0180
ENDCHAR
STARTCHAR five
ENCODING 53
SWIDTH 556 0
DWIDTH 13 0
BBX 11 17 1 0
BITMAP
7FC0
FFC0
C000
C000
C000
C000
DF00
FFC0
E1C0
00E0
0060
0060
0060
C0E0
E1C0
7F80
1F00
ENDCHAR
STARTCHAR six
ENCODING 54
SWIDTH 556 0
DWIDTH 13 0
BBX 11 17 1 0
BITMAP
0F80
3FC0
70E0
6040
6000
C000
CF00
DFC0
F0C0
E060
C060
C060
C060
6060
70C0
3FC0
1F00
ENDCHAR
STARTCHAR seven
ENCODING 55
SWIDTH 556 0
DWIDTH 13 0
BBX 11 17 1 0
BITMAP
FFE0
FFE0
0060
00C0
0180
0180
0300
0300
0600
0600
0C00
0C00
0C00
1800
1800
1800
1800
ENDCHAR
STARTCHAR eight
ENCODING 56
SWIDTH 556 0
DWIDTH 13 0
BBX 11 17 1 0
BITMAP
1F00
7FC0
E0E0
C060
C060
C060
60C0
3F80
3F80
60C0
C060
C060
C060
C060
E0C0
7FC0
1F00
ENDCHAR
STARTCHAR nine
ENCODING 57
SWIDTH 556 0
DWIDTH 13 0
BBX 11 17 1 0
BITMAP
1F00
7F80
61C0
C0C0
C060
C060
C060
E0E0
61E0
7F60
1E60
0060
00C0
C0C0
E1C0
7F80
3E00
ENDCHAR
STARTCHAR colon
ENCODING 58
SWIDTH 277 0
DWIDTH 7 0
BBX 2 13 2 0
BITMAP
C0
C0
C0
00
00
00
00
00
00
00
C0
C0
C0
ENDCHAR
STARTCHAR semicolon
ENCODING 59
SWIDTH 277 0
DWIDTH 7 0
BBX 2 16 2 -3
BITMAP
C0
C0
C0
00
00
00
00
00
00
00
C0
C0
C0
40
40
80
ENDCHAR
STARTCHAR less
ENCODING 60
SWIDTH 583 0
DWIDTH 14 0
BBX 12 13 1 1
BITMAP
0010
0070
03E0
0F80
3C00
F000
C000
F000
3C00
0F80
03E0
0070
0010
ENDCHAR
STARTCHAR equal
ENCODING 61
SWIDTH 583 0
DWIDTH 14 0
BBX 12 8 1 4
BITMAP
FFF0
FFF0
0000
0000
0000
0000
FFF0
FFF0
ENDCHAR
STARTCHAR greater
ENCODING 62
SWIDTH 583 0
DWIDTH 14 0
BBX 12 13 1 1
BITMAP
8000
E000
7C00
1F00
03C0
00F0
0030
00F0
03C0
1F00
7C00
E000
8000
ENDCHAR
STARTCHAR question
ENCODING 63
SWIDTH 556 0
DWIDTH 13 0
BBX 11 17 1 0
BITMAP
1F00
7FC0
70E0
C060
C060
0060
00E0
01C0
0380
0600
0C00
0C00
0000
0000
0C00
0C00
0C00
ENDCHAR
STARTCHAR at
ENCODING 64
SWIDTH 1015 0
DWIDTH 24 0
BBX 20 20 2 -3
BITMAP
00FE00
07FF80
0F03C0
1C00E0
38F360
73FF70
670E30
660E30
CE0630
CC0E30
CC0C30
CC0C70
CC1C60
CE3CE0
E7EFC0
63C780
700000
3C0700
1FFE00
07F800
ENDCHAR
STARTCHAR A
ENCODING 65
SWIDTH 666 0
DWIDTH 15 0
BBX 15 17 0 0
BITMAP
0380
0380
02C0
06C0
06C0
0C60
0C60
0820
1830
1830
3FF8
3FF8
3018
600C
600C
600C
C006
ENDCHAR
STARTCHAR B
ENCODING 66
SWIDTH 666 0
DWIDTH 16 0
BBX 13 17 2 0
BITMAP
FFC0
FFE0
C070
C030
C030
C030
C060
FFC0
FFE0
C070
C018
C018
C018
C018
C030
FFF0
FFC0
ENDCHAR
STARTCHAR C
ENCODING 67
SWIDTH 722 0
DWIDTH 17 0
BBX 15 17 1 0
BITMAP
07E0
1FF8
383C
700C
600C
C000
C000
C000
C000
C000
C000
E000
6004
700E
383C
1FF8
07E0
ENDCHAR
STARTCHAR D
ENCODING 68
SWIDTH 722 0
DWIDTH 17 0
BBX 14 17 2 0
BITMAP
FF80
FFE0
C0F0
C038
C018
C00C
C00C
C00C
C00C
C00C
C00C
C01C
C018
C038
C0F0
FFE0
FF80
ENDCHAR
STARTCHAR E
ENCODING 69
SWIDTH 666 0
DWIDTH 16 0
BBX 13 17 2 0
BITMAP
FFF8
FFF8
C000
C000
C000
C000
C000
FFF0
FFF0
C000
C000
C000
C000
C000
C000
FFF8
FFF8
ENDCHAR
STARTCHAR F
ENCODING 70
SWIDTH 610 0
DWIDTH 15 0
BBX 12 17 2 0
BITMAP
FFF0
FFF0
C000
C000
C000
C000
C000
FFE0
FFE0
C000
C000
C000
C000
C000
C000
C000
C000
ENDCHAR
STARTCHAR G
ENCODING 71
SWIDTH 777 0
DWIDTH 19 0
BBX 16 17 1 0
BITMAP
07F0
1FFC
381E
7007
6006
C000
C000
C000
C000
C07F
C07F
E003
6003
7003
3C0F
1FFE
07F0
ENDCHAR
STARTCHAR H
ENCODING 72
SWIDTH 722 0
DWIDTH 17 0
BBX 13 17 2 0
BITMAP
C018
C018
C018
C018
C018
C018
C018
FFF8
FFF8
C018
C018
C018
C018
C018
C018
C018
C018
ENDCHAR
STARTCHAR I
ENCODING 73
SWIDTH 277 0
DWIDTH 6 0
BBX 2 17 2 0
BITMAP
C0
C0
C0
C0
C0
C0
C0
C0
C0
C0
C0
C0
C0
C0
C0
C0
C0
ENDCHAR
STARTCHAR J
ENCODING 74
SWIDTH 500 0
DWIDTH 12 0
BBX 10 17 0 0
BITMAP
0FC0
0FC0
00C0
00C0
00C0
00C0
00C0
00C0
00C0
00C0
00C0
00C0
C0C0
E0C0
7180
7F80
1E00
ENDCHAR
STARTCHAR K
ENCODING 75
SWIDTH 666 0
DWIDTH 16 0
BBX 14 17 2 0
BITMAP
C038
C070
C0E0
C1C0
C380
C700
CE00
DC00
FE00
E700
C300
C180
C0C0
C0E0
C070
C038
C01C
ENDCHAR
STARTCHAR L
ENCODING 76
SWIDTH 556 0
DWIDTH 13 0
BBX 10 17 2 0
BITMAP
C000
C000
C000
C000
C000
C000
C000
C000
C000
C000
C000
C000
C000
C000
C000
FFC0
FFC0
ENDCHAR
STARTCHAR M
ENCODING 77
SWIDTH 833 0
DWIDTH 19 0
BBX 15 17 2 0
BITMAP
E00E
E00E
E00E
F01E
F01E
D016
D836
D836
CC66
CC66
CC66
C6C6
C6C6
C6C6
C386
C386
C386
ENDCHAR
STARTCHAR N
ENCODING 78
SWIDTH 722 0
DWIDTH 17 0
BBX 13 17 2 0
BITMAP
C018
E018
F018
F018
D818
DC18
CC18
C618
C718
C318
C198
C198
C0D8
C078
C078
C038
C038
ENDCHAR
STARTCHAR O
ENCODING 79
SWIDTH 777 0
DWIDTH 19 0
BBX 17 17 1 0
BITMAP
07F000
1FFC00
3C1E00
700700
600300
E00380
C00180
C00180
C00180
C00180
C00180
E00380
600300
700700
3C1E00
1FFC00
07F000
ENDCHAR
STARTCHAR P
ENCODING 80
SWIDTH 666 0
DWIDTH 16 0
BBX 12 17 2 0
BITMAP
FF80
FFE0
C060
C030
C030
C030
C030
C060
FFE0
FF80
C000
C000
C000
C000
C000
C000
C000
ENDCHAR
STARTCHAR Q
ENCODING 81
SWIDTH 777 0
DWIDTH 19 0
BBX 17 22 1 -5
BITMAP
07F000
1FFC00
3C1E00
700700
600300
E00380
C00180
C00180
C00180
C00180
C00180
E00380
600300
700700
3C1E00
1FFC00
07F000
00C000
00E000
007000
007E00
001E00
ENDCHAR
STARTCHAR R
ENCODING 82
SWIDTH 722 0
DWIDTH 17 0
BBX 14 17 2 0
BITMAP
FFC0
FFF0
C030
C018
C018
C018
C018
C030
FFF0
FFC0
C1C0
C0C0
C060
C070
C030
C038
C01C
ENDCHAR
STARTCHAR S
ENCODING 83
SWIDTH 666 0
DWIDTH 16 0
BBX 14 17 1 0
BITMAP
0FE0
3FF8
7038
600C
6000
6000
3800
3F80
0FF0
00F8
001C
000C
400C
E00C
7038
3FF0
1FE0
ENDCHAR
STARTCHAR T
ENCODING 84
SWIDTH 610 0
DWIDTH 14 0
BBX 12 17 1 0
BITMAP
FFF0
FFF0
0600
0600
0600
0600
0600
0600
0600
0600
0600
0600
0600
0600
0600
0600
0600
ENDCHAR
STARTCHAR U
ENCODING 85
SWIDTH 722 0
DWIDTH 17 0
BBX 13 17 2 0
BITMAP
C018
C018
C018
C018
C018
C018
C018
C018
C018
C018
C018
C018
C018
E030
7070
3FE0
0F80
ENDCHAR
STARTCHAR V
ENCODING 86
SWIDTH 666 0
DWIDTH 15 0
BBX 15 17 0 0
BITMAP
C006
600C
600C
600C
3018
3018
1830
1830
1830
0C60
0C60
0C60
06C0
06C0
0280
0380
0380
ENDCHAR
STARTCHAR W
ENCODING 87
SWIDTH 943 0
DWIDTH 23 0
BBX 23 17 0 0
BITMAP
C01006
E0380E
60380C
60280C
606C0C
306C18
306C18
30C418
18C630
18C630
188230
0D8360
0D8360
0D8360
050140
0701C0
0701C0
ENDCHAR
STARTCHAR X
ENCODING 88
SWIDTH 666 0
DWIDTH 15 0
BBX 15 17 0 0
BITMAP
E00E
701C
3018
1830
1C70
0EE0
06C0
0380
0380
07C0
0EE0
0C60
1830
3838
3018
600C
E00E
ENDCHAR
STARTCHAR Y
ENCODING 89
SWIDTH 666 0
DWIDTH 16 0
BBX 16 17 0 0
BITMAP
E007
700E
300C
381C
1C38
0C30
0660
07E0
03C0
0180
0180
0180
0180
0180
0180
0180
0180
ENDCHAR
STARTCHAR Z
ENCODING 90
SWIDTH 610 0
DWIDTH 15 0
BBX 13 17 1 0
BITMAP
7FF0
7FF0
0070
00E0
00C0
0180
0380
0700
0600
0E00
1C00
1800
3000
7000
E000
FFF8
FFF8
ENDCHAR
STARTCHAR bracketleft
ENCODING 91
SWIDTH 277 0
DWIDTH 7 0
BBX 5 22 2 -5
BITMAP
F8
F8
C0
C0
C0
C0
C0
C0
C0
C0
C0
C0
C0
C0
C0
C0
C0
C0
C0
C0
F8
F8
ENDCHAR
STARTCHAR backslash
ENCODING 92
SWIDTH 277 0
DWIDTH 7 0
BBX 7 17 0 0
BITMAP
C0
C0
60
60
60
60
30
30
30
18
18
18
0C
0C
0C
0E
06
ENDCHAR
STARTCHAR bracketright
ENCODING 93
SWIDTH 277 0
DWIDTH 7 0
BBX 5 22 0 -5
BITMAP
F8
F8
18
18
18
18
18
18
18
18
18
18
18
18
18
18
18
18
18
18
F8
F8
ENDCHAR
STARTCHAR asciicircum
ENCODING 94
SWIDTH 469 0
DWIDTH 12 0
BBX 11 9 0 8
BITMAP
0E00
0A00
1B00
1100
3180
3180
60C0
60C0
C060
ENDCHAR
STARTCHAR underscore
ENCODING 95
SWIDTH 556 0
DWIDTH 13 0
BBX 13 2 0 -5
BITMAP
FFF8
FFF8
ENDCHAR
STARTCHAR grave
ENCODING 96
SWIDTH 333 0
DWIDTH 8 0
BBX 5 4 1 14
BITMAP
E0
60
30
18
ENDCHAR
STARTCHAR a
ENCODING 97
SWIDTH 556 0
DWIDTH 13 0
BBX 12 13 1 0
BITMAP
3F00
7F80
E1C0
C0C0
00C0
3FC0
7FC0
E0C0
C0C0
C1C0
E3C0
7EF0
3C70
ENDCHAR
STARTCHAR b
ENCODING 98
SWIDTH 556 0
DWIDTH 14 0
BBX 11 17 2 0
BITMAP
C000
C000
C000
C000
CF80
DFC0
F0C0
E0E0
C060
C060
C060
C060
C060
E0E0
F0C0
DFC0
CF00
ENDCHAR
STARTCHAR c
ENCODING 99
SWIDTH 500 0
DWIDTH 12 0
BBX 10 13 1 0
BITMAP
1F00
3F80
61C0
C0C0
C000
C000
C000
C000
C000
E0C0
61C0
7F80
1F00
ENDCHAR
STARTCHAR d
ENCODING 100
SWIDTH 556 0
DWIDTH 14 0
BBX 11 17 1 0
BITMAP
0060
0060
0060
0060
1E60
7F60
61E0
E0E0
C060
C060
C060
C060
C060
E0E0
61E0
7F60
3E60
ENDCHAR
STARTCHAR e
ENCODING 101
SWIDTH 556 0
DWIDTH 13 0
BBX 11 13 1 0
BITMAP
1F00
3F80
60C0
C060
C060
FFE0
FFE0
C000
C000
E060
70E0
3FC0
1F80
ENDCHAR
STARTCHAR f
ENCODING 102
SWIDTH 277 0
DWIDTH 7 0
BBX 6 17 0 0
BITMAP
1C
3C
30
30
FC
FC
30
30
30
30
30
30
30
30
30
30
30
ENDCHAR
STARTCHAR g
ENCODING 103
SWIDTH 556 0
DWIDTH 14 0
BBX 11 18 1 -5
BITMAP
1E60
7F60
61E0
E0E0
C060
C060
C060
C060
C060
C0E0
61E0
7F60
3E60
0060
00E0
E1C0
7FC0
3F00
ENDCHAR
STARTCHAR h
ENCODING 104
SWIDTH 556 0
DWIDTH 14 0
BBX 10 17 2 0
BITMAP
C000
C000
C000
C000
CF00
DF80
E1C0
E0C0
C0C0
C0C0
C0C0
C0C0
C0C0
C0C0
C0C0
C0C0
C0C0
ENDCHAR
STARTCHAR i
ENCODING 105
SWIDTH 222 0
DWIDTH 5 0
BBX 2 17 1 0
BITMAP
C0
C0
00
00
C0
C0
C0
C0
C0
C0
C0
C0
C0
C0
C0
C0
C0
ENDCHAR
STARTCHAR j
ENCODING 106
SWIDTH 222 0
DWIDTH 6 0
BBX 4 22 0 -5
BITMAP
30
30
00
00
30
30
30
30
30
30
30
30
30
30
30
30
30
30
30
30
F0
E0
ENDCHAR
STARTCHAR k
ENCODING 107
SWIDTH 500 0
DWIDTH 12 0
BBX 10 17 2 0
BITMAP
C000
C000
C000
C000
C1C0
C380
C700
C600
CC00
D800
FC00
EC00
C600
C700
C300
C180
C1C0
ENDCHAR
STARTCHAR l
ENCODING 108
SWIDTH 222 0
DWIDTH 6 0
BBX 2 17 2 0
BITMAP
C0
C0
C0
C0
C0
C0
C0
C0
C0
C0
C0
C0
C0
C0
C0
C0
C0
ENDCHAR
STARTCHAR m
ENCODING 109
SWIDTH 833 0
DWIDTH 20 0
BBX 16 13 2 0
BITMAP
CE1E
DF7E
E3C7
C183
C183
C183
C183
C183
C183
C183
C183
C183
C183
ENDCHAR
STARTCHAR n
ENCODING 110
SWIDTH 556 0
DWIDTH 14 0
BBX 10 13 2 0
BITMAP
CF00
DF80
E1C0
E0C0
C0C0
C0C0
C0C0
C0C0
C0C0
C0C0
C0C0
C0C0
C0C0
ENDCHAR
STARTCHAR o
ENCODING 111
SWIDTH 556 0
DWIDTH 13 0
BBX 11 13 1 0
BITMAP
1F00
7FC0
70C0
E0E0
C060
C060
C060
C060
C060
E0E0
60C0
3F80
1F00
ENDCHAR
STARTCHAR p
ENCODING 112
SWIDTH 556 0
DWIDTH 14 0
BBX 11 18 2 -5
BITMAP
CF80
DFC0
F0C0
E0E0
C060
C060
C060
C060
C060
E0E0
F0C0
DFC0
CF00
C000
C000
C000
C000
C000
ENDCHAR
STARTCHAR q
ENCODING 113
SWIDTH 556 0
DWIDTH 14 0
BBX 11 18 1 -5
BITMAP
1E60
7F60
61E0
E0E0
C060
C060
C060
C060
C060
E0E0
61E0
7F60
3E60
0060
0060
0060
0060
0060
ENDCHAR
STARTCHAR r
ENCODING 114
SWIDTH 333 0
DWIDTH 8 0
BBX 6 13 2 0
BITMAP
DC
FC
E0
E0
C0
C0
C0
C0
C0
C0
C0
C0
C0
ENDCHAR
STARTCHAR s
ENCODING 115
SWIDTH 500 0
DWIDTH 12 0
BBX 10 13 1 0
BITMAP
3F00
7F80
C1C0
C0C0
E000
7C00
3F00
0380
00C0
C0C0
E1C0
7F80
3F00
ENDCHAR
STARTCHAR t
ENCODING 116
SWIDTH 277 0
DWIDTH 7 0
BBX 6 16 1 0
BITMAP
20
60
60
F8
F8
60
60
60
60
60
60
60
60
60
7C
3C
ENDCHAR
STARTCHAR u
ENCODING 117
SWIDTH 556 0
DWIDTH 14 0
BBX 10 13 2 0
BITMAP
C0C0
C0C0
C0C0
C0C0
C0C0
C0C0
C0C0
C0C0
C0C0
C1C0
E3C0
7EC0
3CC0
ENDCHAR
STARTCHAR v
ENCODING 118
SWIDTH 500 0
DWIDTH 11 0
BBX 11 13 0 0
BITMAP
C060
C060
60C0
60C0
60C0
3180
3180
3180
1B00
1B00
1B00
0E00
0E00
ENDCHAR
STARTCHAR w
ENCODING 119
SWIDTH 722 0
DWIDTH 17 0
BBX 17 13 0 0
BITMAP
C1C180
C1C180
C14180
636300
636300
636300
222200
363600
363600
363600
141400
1C1C00
1C1C00
ENDCHAR
STARTCHAR x
ENCODING 120
SWIDTH 500 0
DWIDTH 11 0
BBX 11 13 0 0
BITMAP
C060
60C0
3180
3180
1B00
0E00
0E00
1F00
1B00
3180
71C0
60C0
C060
ENDCHAR
STARTCHAR y
ENCODING 121
SWIDTH 500 0
DWIDTH 12 0
BBX 12 18 0 -5
BITMAP
C030
E070
6060
6060
30C0
30C0
38C0
1980
1980
0F00
0F00
0F00
0600
0600
0C00
1C00
7800
7000
ENDCHAR
STARTCHAR z
ENCODING 122
SWIDTH 500 0
DWIDTH 12 0
BBX 10 13 1 0
BITMAP
FFC0
FFC0
01C0
0380
0700
0600
0C00
1800
3000
7000
E000
FFC0
FFC0
ENDCHAR
STARTCHAR braceleft
ENCODING 123
SWIDTH 333 0
DWIDTH 8 0
BBX 8 22 0 -5
BITMAP
0F
1F
1C
18
18
18
18
18
18
38
F0
F0
38
18
18
18
18
18
18
1C
1F
0F
ENDCHAR
STARTCHAR bar
ENCODING 124
SWIDTH 259 0
DWIDTH 6 0
BBX 2 22 2 -5
BITMAP
C0
C0
C0
C0
C0
C0
C0
C0
C0
C0
C0
C0
C0
C0
C0
C0
C0
C0
C0
C0
C0
C0
ENDCHAR
STARTCHAR braceright
ENCODING 125
SWIDTH 333 0
DWIDTH 8 0
BBX 8 22 0 -5
BITMAP
F0
F8
38
18
18
18
18
18
18
1C
0F
0F
1C
18
18
18
18
18
18
38
F8
F0
ENDCHAR
STARTCHAR asciitilde
ENCODING 126
SWIDTH 583 0
DWIDTH 14 0
BBX 12 4 1 6
BITMAP
7800
FE10
87F0
01E0
ENDCHAR
STARTCHAR space.dup1
ENCODING 160
SWIDTH 277 0
DWIDTH 7 0
BBX 1 1 0 0
BITMAP
00
ENDCHAR
STARTCHAR exclamdown
ENCODING 161
SWIDTH 333 0
DWIDTH 8 0
BBX 2 17 4 -4
BITMAP
C0
C0
C0
00
00
C0
C0
C0
C0
C0
C0
C0
C0
C0
C0
C0
C0
ENDCHAR
STARTCHAR cent
ENCODING 162
SWIDTH 556 0
DWIDTH 13 0
BBX 13 17 0 0
BITMAP
0300
0300
1FE0
3FE0
7F30
F920
F100
F100
F100
F100
7100
7138
3978
1EF0
07E0
0180
0180
ENDCHAR
STARTCHAR sterling
ENCODING 163
SWIDTH 556 0
DWIDTH 13 0
BBX 11 17 1 0
BITMAP
0F00
1F80
39C0
3000
3000
3000
3000
FF00
FF00
3000
3000
3000
3000
6060
60E0
FFC0
FF80
ENDCHAR
STARTCHAR currency
ENCODING 164
SWIDTH 556 0
DWIDTH 13 0
BBX 10 10 2 3
BITMAP
DEC0
FFC0
6180
C0C0
C0C0
C0C0
C0C0
6180
FFC0
DEC0
ENDCHAR
STARTCHAR yen
ENCODING 165
SWIDTH 556 0
DWIDTH 13 0
BBX 14 17 0 0
BITMAP
E01C
6018
7038
3030
1860
1860
0CC0
0FC0
0780
3FF0
3FF0
0300
3FF0
3FF0
0300
0300
0300
ENDCHAR
STARTCHAR brokenbar
ENCODING 166
SWIDTH 259 0
DWIDTH 6 0
BBX 2 22 2 -5
BITMAP
C0
C0
C0
C0
C0
C0
C0
C0
C0
00
00
00
00
C0
C0
C0
C0
C0
C0
C0
C0
C0
ENDCHAR
STARTCHAR section
ENCODING 167
SWIDTH 556 0
DWIDTH 13 0
BBX 9 19 2 -2
BITMAP
3E00
7F00
E380
C000
C000
7000
3E00
6300
C180
C180
E180
7700
3E00
0700
0180
0180
E180
7F00
3E00
ENDCHAR
STARTCHAR dieresis
ENCODING 168
SWIDTH 333 0
DWIDTH 8 0
BBX 7 2 1 15
BITMAP
C6
C6
ENDCHAR
STARTCHAR copyright
ENCODING 169
SWIDTH 736 0
DWIDTH 18 0
BBX 17 17 0 0
BITMAP
03E000
0C1800
300600
200200
43E100
461100
8C1880
8C0080
8C0080
8C0080
8C1880
461100
43E100
200200
300600
0C1800
03E000
ENDCHAR
STARTCHAR ordfeminine
ENCODING 170
SWIDTH 370 0
DWIDTH 9 0
BBX 8 9 1 8
BITMAP
7C
C6
C6
06
7E
C6
C6
CE
73
ENDCHAR
STARTCHAR guillemotleft
ENCODING 171
SWIDTH 556 0
DWIDTH 13 0
BBX 11 9 1 2
BITMAP
0C60
18C0
3180
6300
C600
6300
3180
18C0
1CE0
ENDCHAR
STARTCHAR logicalnot
ENCODING 172
SWIDTH 583 0
DWIDTH 14 0
BBX 12 7 1 2
BITMAP
FFF0
FFF0
0030
0030
0030
0030
0030
ENDCHAR
STARTCHAR hyphen.dup2
ENCODING 173
SWIDTH 333 0
DWIDTH 8 0
BBX 6 2 1 5
BITMAP
FC
FC
ENDCHAR
STARTCHAR registered
ENCODING 174
SWIDTH 736 0
DWIDTH 18 0
BBX 17 17 0 0
BITMAP
03E000
0C1800
300600
200200
47F100
461900
861880
861880
87F080
866080
863080
461100
461900
200200
300600
0C1800
03E000
ENDCHAR
STARTCHAR macron
ENCODING 175
SWIDTH 552 0
DWIDTH 13 0
BBX 13 1 0 17
BITMAP
FFF8
ENDCHAR
STARTCHAR degree
ENCODING 176
SWIDTH 399 0
DWIDTH 10 0
BBX 7 7 1 10
BITMAP
38
44
82
82
82
44
38
ENDCHAR
STARTCHAR plusminus
ENCODING 177
SWIDTH 548 0
DWIDTH 13 0
BBX 12 15 1 0
BITMAP
0600
0600
0600
0600
0600
FFF0
FFF0
0600
0600
0600
0600
0600
0000
FFF0
FFF0
ENDCHAR
STARTCHAR uni00B2
ENCODING 178
SWIDTH 333 0
DWIDTH 8 0
BBX 7 10 1 7
BITMAP
3C
E6
C6
06
0E
1C
30
60
C0
FE
ENDCHAR
STARTCHAR uni00B3
ENCODING 179
SWIDTH 333 0
DWIDTH 8 0
BBX 7 10 1 7
BITMAP
7C
C6
C6
06
38
0E
06
C6
C6
7C
ENDCHAR
STARTCHAR acute
ENCODING 180
SWIDTH 333 0
DWIDTH 8 0
BBX 5 4 1 14
BITMAP
38
30
60
C0
ENDCHAR
STARTCHAR u00B5
ENCODING 181
SWIDTH 576 0
DWIDTH 14 0
BBX 12 18 2 -5
BITMAP
C0C0
C0C0
C0C0
C0C0
C0C0
C0C0
C0C0
C0C0
C0C0
C1C0
E1C0
FEF0
FC70
C000
C000
C000
C000
C000
ENDCHAR
STARTCHAR paragraph
ENCODING 182
SWIDTH 537 0
DWIDTH 13 0
BBX 11 20 1 -3
BITMAP
3FE0
7880
F880
F880
F880
F880
F880
7880
3880
0880
0880
0880
0880
0880
0880
0880
0880
0880
0880
0880
ENDCHAR
STARTCHAR periodcentered
ENCODING 183
SWIDTH 277 0
DWIDTH 7 0
BBX 2 3 2 6
BITMAP
C0
C0
C0
ENDCHAR
STARTCHAR cedilla
ENCODING 184
SWIDTH 333 0
DWIDTH 8 0
BBX 4 5 1 -5
BITMAP
40
E0
30
30
E0
ENDCHAR
STARTCHAR uni00B9
ENCODING 185
SWIDTH 333 0
DWIDTH 8 0
BBX 7 10 1 7
BITMAP
70
F0
B0
30
30
30
30
30
30
FE
ENDCHAR
STARTCHAR ordmasculine
ENCODING 186
SWIDTH 365 0
DWIDTH 9 0
BBX 7 9 1 8
BITMAP
38
6C
C6
C6
C6
C6
C6
6C
38
ENDCHAR
STARTCHAR guillemotright
ENCODING 187
SWIDTH 556 0
DWIDTH 13 0
BBX 11 9 1 2
BITMAP
C600
6300
3180
18C0
0C60
18C0
3180
6300
E600
ENDCHAR
STARTCHAR onequarter
ENCODING 188
SWIDTH 833 0
DWIDTH 20 0
BBX 18 17 1 0
BITMAP
700600
F00400
B00C00
301800
301000
303000
306000
306100
30C300
FF8700
018500
030900
021900
061100
0C3FC0
0C0100
180100
ENDCHAR
STARTCHAR onehalf
ENCODING 189
SWIDTH 833 0
DWIDTH 20 0
BBX 19 17 1 0
BITMAP
700600
F00400
B00C00
301800
301000
303000
306000
3063C0
30CE60
FF8C60
018060
0300E0
0201C0
060300
0C0600
0C0C00
180FE0
ENDCHAR
STARTCHAR threequarters
ENCODING 190
SWIDTH 833 0
DWIDTH 20 0
BBX 17 17 2 0
BITMAP
7C0C00
C60800
C61800
063000
382000
0E6000
06C000
C6C200
C78600
7F0E00
030A00
061200
043200
0C2200
187F80
180200
300200
ENDCHAR
STARTCHAR questiondown
ENCODING 191
SWIDTH 610 0
DWIDTH 15 0
BBX 11 17 3 -4
BITMAP
0600
0600
0600
0000
0000
0600
0600
0C00
3800
7000
E000
C000
C060
C060
E1C0
7FC0
1F00
ENDCHAR
STARTCHAR Agrave
ENCODING 192
SWIDTH 666 0
DWIDTH 15 0
BBX 15 21 0 0
BITMAP
0700
0180
00C0
0000
0380
0380
02C0
06C0
06C0
0C60
0C60
0820
1830
1830
3FF8
3FF8
3018
600C
600C
600C
C006
ENDCHAR
STARTCHAR Aacute
ENCODING 193
SWIDTH 666 0
DWIDTH 15 0
BBX 15 21 0 0
BITMAP
00E0
0180
0300
0000
0380
0380
02C0
06C0
06C0
0C60
0C60
0820
1830
1830
3FF8
3FF8
3018
600C
600C
600C
C006
ENDCHAR
STARTCHAR Acircumflex
ENCODING 194
SWIDTH 666 0
DWIDTH 15 0
BBX 15 21 0 0
BITMAP
03C0
0660
0C30
0000
0380
0380
02C0
06C0
06C0
0C60
0C60
0820
1830
1830
3FF8
3FF8
3018
600C
600C
600C
C006
ENDCHAR
STARTCHAR Atilde
ENCODING 195
SWIDTH 666 0
DWIDTH 15 0
BBX 15 21 0 0
BITMAP
0710
0FF0
08E0
0000
0380
0380
02C0
06C0
06C0
0C60
0C60
0820
1830
1830
3FF8
3FF8
3018
600C
600C
600C
C006
ENDCHAR
STARTCHAR Adieresis
ENCODING 196
SWIDTH 666 0
DWIDTH 15 0
BBX 15 20 0 0
BITMAP
0C60
0C60
0000
0380
0380
02C0
06C0
06C0
0C60
0C60
0820
1830
1830
3FF8
3FF8
3018
600C
600C
600C
C006
ENDCHAR
STARTCHAR Aring
ENCODING 197
SWIDTH 666 0
DWIDTH 15 0
BBX 15 22 0 0
BITMAP
03C0
0660
0420
0420
0660
03C0
0380
02C0
06C0
06C0
0C60
0C60
0820
1830
1830
3FF8
3FF8
3018
600C
600C
600C
C006
ENDCHAR
STARTCHAR AE
ENCODING 198
SWIDTH 1000 0
DWIDTH 24 0
BBX 23 17 0 0
BITMAP
00FFFE
01FFFE
019800
039800
031800
071800
061800
0E1FFC
0C1FFC
0C1800
1FF800
1FF800
301800
301800
601800
601FFE
E01FFE
ENDCHAR
STARTCHAR Ccedilla
ENCODING 199
SWIDTH 722 0
DWIDTH 17 0
BBX 15 22 1 -5
BITMAP
07E0
1FF8
383C
700C
600C
C000
C000
C000
C000
C000
C000
E000
6004
700E
383C
1FF8
07E0
0100
0380
00C0
00C0
0380
ENDCHAR
STARTCHAR Egrave
ENCODING 200
SWIDTH 666 0
DWIDTH 16 0
BBX 13 21 2 0
BITMAP
1C00
0600
0300
0000
FFF8
FFF8
C000
C000
C000
C000
C000
FFF0
FFF0
C000
C000
C000
C000
C000
C000
FFF8
FFF8
ENDCHAR
STARTCHAR Eacute
ENCODING 201
SWIDTH 666 0
DWIDTH 16 0
BBX 13 21 2 0
BITMAP
01C0
0300
0600
0000
FFF8
FFF8
C000
C000
C000
C000
C000
FFF0
FFF0
C000
C000
C000
C000
C000
C000
FFF8
FFF8
ENDCHAR
STARTCHAR Ecircumflex
ENCODING 202
SWIDTH 666 0
DWIDTH 16 0
BBX 13 21 2 0
BITMAP
0780
0CC0
1860
0000
FFF8
FFF8
C000
C000
C000
C000
C000
FFF0
FFF0
C000
C000
C000
C000
C000
C000
FFF8
FFF8
ENDCHAR
STARTCHAR Edieresis
ENCODING 203
SWIDTH 666 0
DWIDTH 16 0
BBX 13 20 2 0
BITMAP
18C0
18C0
0000
FFF8
FFF8
C000
C000
C000
C000
C000
FFF0
FFF0
C000
C000
C000
C000
C000
C000
FFF8
FFF8
ENDCHAR
STARTCHAR Igrave
ENCODING 204
SWIDTH 277 0
DWIDTH 6 0
BBX 5 21 0 0
BITMAP
E0
30
18
00
30
30
30
30
30
30
30
30
30
30
30
30
30
30
30
30
30
ENDCHAR
STARTCHAR Iacute
ENCODING 205
SWIDTH 277 0
DWIDTH 6 0
BBX 5 21 2 0
BITMAP
38
60
C0
00
C0
C0
C0
C0
C0
C0
C0
C0
C0
C0
C0
C0
C0
C0
C0
C0
C0
ENDCHAR
STARTCHAR Icircumflex
ENCODING 206
SWIDTH 277 0
DWIDTH 6 0
BBX 8 21 -1 0
BITMAP
3C
66
C3
00
18
18
18
18
18
18
18
18
18
18
18
18
18
18
18
18
18
ENDCHAR
STARTCHAR Idieresis
ENCODING 207
SWIDTH 277 0
DWIDTH 6 0
BBX 7 20 0 0
BITMAP
C6
C6
00
30
30
30
30
30
30
30
30
30
30
30
30
30
30
30
30
30
ENDCHAR
STARTCHAR Eth
ENCODING 208
SWIDTH 722 0
DWIDTH 17 0
BBX 16 17 0 0
BITMAP
3FE0
3FF8
303C
300E
3006
3003
3003
FF83
FF83
3003
3003
3007
3006
300E
303C
3FF8
3FE0
ENDCHAR
STARTCHAR Ntilde
ENCODING 209
SWIDTH 722 0
DWIDTH 17 0
BBX 13 21 2 0
BITMAP
0E20
1FE0
11C0
0000
C018
E018
F018
F018
D818
DC18
CC18
C618
C718
C318
C198
C198
C0D8
C078
C078
C038
C038
ENDCHAR
STARTCHAR Ograve
ENCODING 210
SWIDTH 777 0
DWIDTH 19 0
BBX 17 21 1 0
BITMAP
038000
00C000
006000
000000
07F000
1FFC00
3C1E00
700700
600300
E00380
C00180
C00180
C00180
C00180
C00180
E00380
600300
700700
3C1E00
1FFC00
07F000
ENDCHAR
STARTCHAR Oacute
ENCODING 211
SWIDTH 777 0
DWIDTH 19 0
BBX 17 21 1 0
BITMAP
007000
00C000
018000
000000
07F000
1FFC00
3C1E00
700700
600300
E00380
C00180
C00180
C00180
C00180
C00180
E00380
600300
700700
3C1E00
1FFC00
07F000
ENDCHAR
STARTCHAR Ocircumflex
ENCODING 212
SWIDTH 777 0
DWIDTH 19 0
BBX 17 21 1 0
BITMAP
01E000
033000
061800
000000
07F000
1FFC00
3C1E00
700700
600300
E00380
C00180
C00180
C00180
C00180
C00180
E00380
600300
700700
3C1E00
1FFC00
07F000
ENDCHAR
STARTCHAR Otilde
ENCODING 213
SWIDTH 777 0
DWIDTH 19 0
BBX 17 21 1 0
BITMAP
038800
07F800
047000
000000
07F000
1FFC00
3C1E00
700700
600300
E00380
C00180
C00180
C00180
C00180
C00180
E00380
600300
700700
3C1E00
1FFC00
07F000
ENDCHAR
STARTCHAR Odieresis
ENCODING 214
SWIDTH 777 0
DWIDTH 19 0
BBX 17 20 1 0
BITMAP
063000
063000
000000
07F000
1FFC00
3C1E00
700700
600300
E00380
C00180
C00180
C00180
C00180
C00180
E00380
600300
700700
3C1E00
1FFC00
07F000
ENDCHAR
STARTCHAR multiply
ENCODING 215
SWIDTH 583 0
DWIDTH 14 0
BBX 11 11 2 3
BITMAP
4040
E0E0
71C0
3B80
1F00
0E00
1F00
3B80
71C0
E0E0
4040
ENDCHAR
STARTCHAR Oslash
ENCODING 216
SWIDTH 777 0
DWIDTH 19 0
BBX 17 17 1 0
BITMAP
07F380
1FFF00
3C1E00
700F00
601B00
C03B80
C07180
C0E180
C1C180
C38180
C70180
EE0380
6C0300
780700
3C1E00
7FFC00
E7F000
ENDCHAR
STARTCHAR Ugrave
ENCODING 217
SWIDTH 722 0
DWIDTH 17 0
BBX 13 21 2 0
BITMAP
0E00
0300
0180
0000
C018
C018
C018
C018
C018
C018
C018
C018
C018
C018
C018
C018
C018
E030
7070
3FE0
0F80
ENDCHAR
STARTCHAR Uacute
ENCODING 218
SWIDTH 722 0
DWIDTH 17 0
BBX 13 21 2 0
BITMAP
01C0
0300
0600
0000
C018
C018
C018
C018
C018
C018
C018
C018
C018
C018
C018
C018
C018
E030
7070
3FE0
0F80
ENDCHAR
STARTCHAR Ucircumflex
ENCODING 219
SWIDTH 722 0
DWIDTH 17 0
BBX 13 21 2 0
BITMAP
0780
0CC0
1860
0000
C018
C018
C018
C018
C018
C018
C018
C018
C018
C018
C018
C018
C018
E030
7070
3FE0
0F80
ENDCHAR
STARTCHAR Udieresis
ENCODING 220
SWIDTH 722 0
DWIDTH 17 0
BBX 13 20 2 0
BITMAP
18C0
18C0
0000
C018
C018
C018
C018
C018
C018
C018
C018
C018
C018
C018
C018
C018
E030
7070
3FE0
0F80
ENDCHAR
STARTCHAR Yacute
ENCODING 221
SWIDTH 666 0
DWIDTH 16 0
BBX 16 21 0 0
BITMAP
0070
00C0
0180
0000
E007
700E
300C
381C
1C38
0C30
0660
07E0
03C0
0180
0180
0180
0180
0180
0180
0180
0180
ENDCHAR
STARTCHAR Thorn
ENCODING 222
SWIDTH 666 0
DWIDTH 16 0
BBX 12 17 2 0
BITMAP
C000
C000
C000
FF80
FFE0
C060
C030
C030
C030
C030
C060
FFE0
FF80
C000
C000
C000
C000
ENDCHAR
STARTCHAR germandbls
ENCODING 223
SWIDTH 610 0
DWIDTH 15 0
BBX 12 17 2 0
BITMAP
1F00
7F80
61C0
C0C0
C0C0
C180
C380
C300
C300
C380
C1E0
C060
C030
C030
C870
CFE0
CFC0
ENDCHAR
STARTCHAR agrave
ENCODING 224
SWIDTH 556 0
DWIDTH 13 0
BBX 12 18 1 0
BITMAP
1C00
0C00
0600
0300
0000
3F00
7F80
E1C0
C0C0
00C0
3FC0
7FC0
E0C0
C0C0
C1C0
E3C0
7EF0
3C70
ENDCHAR
STARTCHAR aacute
ENCODING 225
SWIDTH 556 0
DWIDTH 13 0
BBX 12 18 1 0
BITMAP
0380
0300
0600
0C00
0000
3F00
7F80
E1C0
C0C0
00C0
3FC0
7FC0
E0C0
C0C0
C1C0
E3C0
7EF0
3C70
ENDCHAR
STARTCHAR acircumflex
ENCODING 226
SWIDTH 556 0
DWIDTH 13 0
BBX 12 18 1 0
BITMAP
1E00
1A00
3300
6180
0000
3F00
7F80
E1C0
C0C0
00C0
3FC0
7FC0
E0C0
C0C0
C1C0
E3C0
7EF0
3C70
ENDCHAR
STARTCHAR atilde
ENCODING 227
SWIDTH 556 0
DWIDTH 13 0
BBX 12 18 1 0
BITMAP
1840
3E40
27C0
2180
0000
3F00
7F80
E1C0
C0C0
00C0
3FC0
7FC0
E0C0
C0C0
C1C0
E3C0
7EF0
3C70
ENDCHAR
STARTCHAR adieresis
ENCODING 228
SWIDTH 556 0
DWIDTH 13 0
BBX 12 17 1 0
BITMAP
3180
3180
0000
0000
3F00
7F80
E1C0
C0C0
00C0
3FC0
7FC0
E0C0
C0C0
C1C0
E3C0
7EF0
3C70
ENDCHAR
STARTCHAR aring
ENCODING 229
SWIDTH 556 0
DWIDTH 13 0
BBX 12 20 1 0
BITMAP
0F00
1980
1080
1080
1980
0F00
0000
3F00
7F80
E1C0
C0C0
00C0
3FC0
7FC0
E0C0
C0C0
C1C0
E3C0
7EF0
3C70
ENDCHAR
STARTCHAR ae
ENCODING 230
SWIDTH 889 0
DWIDTH 21 0
BBX 19 13 1 0
BITMAP
3F1F00
7FBF80
E1E0C0
C0C060
00C060
3FFFE0
7FFFE0
E0C000
C0C000
C1E060
E370E0
7E3FC0
3C1F00
ENDCHAR
STARTCHAR ccedilla
ENCODING 231
SWIDTH 500 0
DWIDTH 12 0
BBX 10 18 1 -5
BITMAP
1F00
3F80
61C0
C0C0
C000
C000
C000
C000
C000
E0C0
61C0
7F80
1F00
0400
0E00
0300
0300
0E00
ENDCHAR
STARTCHAR egrave
ENCODING 232
SWIDTH 556 0
DWIDTH 13 0
BBX 11 18 1 0
BITMAP
1C00
0C00
0600
0300
0000
1F00
3F80
60C0
C060
C060
FFE0
FFE0
C000
C000
E060
70E0
3FC0
1F80
ENDCHAR
STARTCHAR eacute
ENCODING 233
SWIDTH 556 0
DWIDTH 13 0
BBX 11 18 1 0
BITMAP
0380
0300
0600
0C00
0000
1F00
3F80
60C0
C060
C060
FFE0
FFE0
C000
C000
E060
70E0
3FC0
1F80
ENDCHAR
STARTCHAR ecircumflex
ENCODING 234
SWIDTH 556 0
DWIDTH 13 0
BBX 11 18 1 0
BITMAP
0F00
0D00
1980
30C0
0000
1F00
3F80
60C0
C060
C060
FFE0
FFE0
C000
C000
E060
70E0
3FC0
1F80
ENDCHAR
STARTCHAR edieresis
ENCODING 235
SWIDTH 556 0
DWIDTH 13 0
BBX 11 17 1 0
BITMAP
3180
3180
0000
0000
1F00
3F80
60C0
C060
C060
FFE0
FFE0
C000
C000
E060
70E0
3FC0
1F80
ENDCHAR
STARTCHAR igrave
ENCODING 236
SWIDTH 277 0
DWIDTH 6 0
BBX 5 18 0 0
BITMAP
E0
60
30
18
00
30
30
30
30
30
30
30
30
30
30
30
30
30
ENDCHAR
STARTCHAR iacute
ENCODING 237
SWIDTH 277 0
DWIDTH 6 0
BBX 5 18 1 0
BITMAP
38
30
60
C0
00
60
60
60
60
60
60
60
60
60
60
60
60
60
ENDCHAR
STARTCHAR icircumflex
ENCODING 238
SWIDTH 277 0
DWIDTH 6 0
BBX 8 18 -1 0
BITMAP
3C
34
66
C3
00
18
18
18
18
18
18
18
18
18
18
18
18
18
ENDCHAR
STARTCHAR idieresis
ENCODING 239
SWIDTH 277 0
DWIDTH 6 0
BBX 7 17 0 0
BITMAP
C6
C6
00
00
30
30
30
30
30
30
30
30
30
30
30
30
30
ENDCHAR
STARTCHAR eth
ENCODING 240
SWIDTH 556 0
DWIDTH 13 0
BBX 11 17 1 0
BITMAP
1880
0F00
1E00
2300
0180
00C0
1FC0
7FC0
60E0
C060
C060
C060
C060
C060
60C0
7FC0
1F00
ENDCHAR
STARTCHAR ntilde
ENCODING 241
SWIDTH 556 0
DWIDTH 14 0
BBX 10 18 2 0
BITMAP
3080
7C80
4F80
4300
0000
CF00
DF80
E1C0
E0C0
C0C0
C0C0
C0C0
C0C0
C0C0
C0C0
C0C0
C0C0
C0C0
ENDCHAR
STARTCHAR ograve
ENCODING 242
SWIDTH 556 0
DWIDTH 13 0
BBX 11 18 1 0
BITMAP
1C00
0C00
0600
0300
0000
1F00
7FC0
70C0
E0E0
C060
C060
C060
C060
C060
E0E0
60C0
3F80
1F00
ENDCHAR
STARTCHAR oacute
ENCODING 243
SWIDTH 556 0
DWIDTH 13 0
BBX 11 18 1 0
BITMAP
0380
0300
0600
0C00
0000
1F00
7FC0
70C0
E0E0
C060
C060
C060
C060
C060
E0E0
60C0
3F80
1F00
ENDCHAR
STARTCHAR ocircumflex
ENCODING 244
SWIDTH 556 0
DWIDTH 13 0
BBX 11 18 1 0
BITMAP
0F00
0D00
1980
30C0
0000
1F00
7FC0
70C0
E0E0
C060
C060
C060
C060
C060
E0E0
60C0
3F80
1F00
ENDCHAR
STARTCHAR otilde
ENCODING 245
SWIDTH 556 0
DWIDTH 13 0
BBX 11 18 1 0
BITMAP
1840
3E40
27C0
2180
0000
1F00
7FC0
70C0
E0E0
C060
C060
C060
C060
C060
E0E0
60C0
3F80
1F00
ENDCHAR
STARTCHAR odieresis
ENCODING 246
SWIDTH 556 0
DWIDTH 13 0
BBX 11 17 1 0
BITMAP
3180
3180
0000
0000
1F00
7FC0
70C0
E0E0
C060
C060
C060
C060
C060
E0E0
60C0
3F80
1F00
ENDCHAR
STARTCHAR divide
ENCODING 247
SWIDTH 548 0
DWIDTH 13 0
BBX 11 12 1 2
BITMAP
0600
0600
0000
0000
0000
FFE0
FFE0
0000
0000
0000
0600
0600
ENDCHAR
STARTCHAR oslash
ENCODING 248
SWIDTH 610 0
DWIDTH 15 0
BBX 13 13 1 0
BITMAP
0F98
3FF0
3860
70F0
61B0
6330
6630
6E30
6C30
7870
3060
7FC0
CF80
ENDCHAR
STARTCHAR ugrave
ENCODING 249
SWIDTH 556 0
DWIDTH 14 0
BBX 10 18 2 0
BITMAP
1C00
0C00
0600
0300
0000
C0C0
C0C0
C0C0
C0C0
C0C0
C0C0
C0C0
C0C0
C0C0
C1C0
E3C0
7EC0
3CC0
ENDCHAR
STARTCHAR uacute
ENCODING 250
SWIDTH 556 0
DWIDTH 14 0
BBX 10 18 2 0
BITMAP
0700
0600
0C00
1800
0000
C0C0
C0C0
C0C0
C0C0
C0C0
C0C0
C0C0
C0C0
C0C0
C1C0
E3C0
7EC0
3CC0
ENDCHAR
STARTCHAR ucircumflex
ENCODING 251
SWIDTH 556 0
DWIDTH 14 0
BBX 10 18 2 0
BITMAP
1E00
1A00
3300
6180
0000
C0C0
C0C0
C0C0
C0C0
C0C0
C0C0
C0C0
C0C0
C0C0
C1C0
E3C0
7EC0
3CC0
ENDCHAR
STARTCHAR udieresis
ENCODING 252
SWIDTH 556 0
DWIDTH 14 0
BBX 10 17 2 0
BITMAP
3180
3180
0000
0000
C0C0
C0C0
C0C0
C0C0
C0C0
C0C0
C0C0
C0C0
C0C0
C1C0
E3C0
7EC0
3CC0
ENDCHAR
STARTCHAR yacute
ENCODING 253
SWIDTH 500 0
DWIDTH 12 0
BBX 12 23 0 -5
BITMAP
0380
0300
0600
0C00
0000
C030
E070
6060
6060
30C0
30C0
38C0
1980
1980
0F00
0F00
0F00
0600
0600
0C00
1C00
7800
7000
ENDCHAR
STARTCHAR thorn
ENCODING 254
SWIDTH 556 0
DWIDTH 13 0
BBX 10 22 2 -5
BITMAP
C000
C000
C000
C000
CF00
DF80
E180
E0C0
C0C0
C0C0
C0C0
C0C0
C0C0
E0C0
E180
DF80
CF00
C000
C000
C000
C000
C000
ENDCHAR
STARTCHAR ydieresis
ENCODING 255
SWIDTH 500 0
DWIDTH 12 0
BBX 12 22 0 -5
BITMAP
18C0
18C0
0000
0000
C030
E070
6060
6060
30C0
30C0
38C0
1980
1980
0F00
0F00
0F00
0600
0600
0C00
1C00
7800
7000
ENDCHAR
STARTCHAR Amacron
ENCODING 256
SWIDTH 666 0
DWIDTH 15 0
BBX 15 21 0 0
BITMAP
0FE0
0FE0
0000
0000
0380
0380
02C0
06C0
06C0
0C60
0C60
0820
1830
1830
3FF8
3FF8
3018
600C
600C
600C
C006
ENDCHAR
STARTCHAR amacron
ENCODING 257
SWIDTH 556 0
DWIDTH 13 0
BBX 12 17 1 0
BITMAP
3F80
3F80
0000
0000
3F00
7F80
E1C0
C0C0
00C0
3FC0
7FC0
E0C0
C0C0
C1C0
E3C0
7EF0
3C70
ENDCHAR
STARTCHAR Abreve
ENCODING 258
SWIDTH 666 0
DWIDTH 15 0
BBX 15 21 0 0
BITMAP
0C30
07E0
03C0
0000
0380
0380
02C0
06C0
06C0
0C60
0C60
0820
1830
1830
3FF8
3FF8
3018
600C
600C
600C
C006
ENDCHAR
STARTCHAR abreve
ENCODING 259
SWIDTH 556 0
DWIDTH 13 0
BBX 12 18 1 0
BITMAP
30C0
30C0
1F80
0F00
0000
3F00
7F80
E1C0
C0C0
00C0
3FC0
7FC0
E0C0
C0C0
C1C0
E3C0
7EF0
3C70
ENDCHAR
STARTCHAR Aogonek
ENCODING 260
SWIDTH 666 0
DWIDTH 15 0
BBX 15 22 0 -5
BITMAP
0380
0380
02C0
06C0
06C0
0C60
0C60
0820
1830
1830
3FF8
3FF8
3018
600C
600C
600C
C006
000C
0018
0018
0018
000E
ENDCHAR
STARTCHAR aogonek
ENCODING 261
SWIDTH 556 0
DWIDTH 13 0
BBX 12 18 1 -5
BITMAP
3F00
7F80
E1C0
C0C0
00C0
3FC0
7FC0
E0C0
C0C0
C1C0
E3C0
7EF0
3C70
0060
00C0
00C0
00C0
0070
ENDCHAR
STARTCHAR Cacute
ENCODING 262
SWIDTH 722 0
DWIDTH 17 0
BBX 15 21 1 0
BITMAP
0070
00C0
0180
0000
07E0
1FF8
383C
700C
600C
C000
C000
C000
C000
C000
C000
E000
6004
700E
383C
1FF8
07E0
ENDCHAR
STARTCHAR cacute
ENCODING 263
SWIDTH 500 0
DWIDTH 12 0
BBX 10 18 1 0
BITMAP
0380
0300
0600
0C00
0000
1F00
3F80
61C0
C0C0
C000
C000
C000
C000
C000
E0C0
61C0
7F80
1F00
ENDCHAR
STARTCHAR Ccircumflex
ENCODING 264
SWIDTH 722 0
DWIDTH 17 0
BBX 15 21 1 0
BITMAP
03C0
0660
0C30
0000
07E0
1FF8
383C
700C
600C
C000
C000
C000
C000
C000
C000
E000
6004
700E
383C
1FF8
07E0
ENDCHAR
STARTCHAR ccircumflex
ENCODING 265
SWIDTH 500 0
DWIDTH 12 0
BBX 10 18 1 0
BITMAP
1E00
1A00
3300
6180
0000
1F00
3F80
61C0
C0C0
C000
C000
C000
C000
C000
E0C0
61C0
7F80
1F00
ENDCHAR
STARTCHAR Cdotaccent
ENCODING 266
SWIDTH 722 0
DWIDTH 17 0
BBX 15 20 1 0
BITMAP
0180
0180
0000
07E0
1FF8
383C
700C
600C
C000
C000
C000
C000
C000
C000
E000
6004
700E
383C
1FF8
07E0
ENDCHAR
STARTCHAR cdotaccent
ENCODING 267
SWIDTH 500 0
DWIDTH 12 0
BBX 10 17 1 0
BITMAP
0C00
0C00
0000
0000
1F00
3F80
61C0
C0C0
C000
C000
C000
C000
C000
E0C0
61C0
7F80
1F00
ENDCHAR
STARTCHAR Ccaron
ENCODING 268
SWIDTH 722 0
DWIDTH 17 0
BBX 15 21 1 0
BITMAP
0C30
0660
03C0
0000
07E0
1FF8
383C
700C
600C
C000
C000
C000
C000
C000
C000
E000
6004
700E
383C
1FF8
07E0
ENDCHAR
STARTCHAR ccaron
ENCODING 269
SWIDTH 500 0
DWIDTH 12 0
BBX 10 18 1 0
BITMAP
6180
3300
1A00
1E00
0000
1F00
3F80
61C0
C0C0
C000
C000
C000
C000
C000
E0C0
61C0
7F80
1F00
ENDCHAR
STARTCHAR Dcaron
ENCODING 270
SWIDTH 722 0
DWIDTH 17 0
BBX 14 21 2 0
BITMAP
30C0
1980
0F00
0000
FF80
FFE0
C0F0
C038
C018
C00C
C00C
C00C
C00C
C00C
C00C
C01C
C018
C038
C0F0
FFE0
FF80
ENDCHAR
STARTCHAR dcaron
ENCODING 271
SWIDTH 614 0
DWIDTH 15 0
BBX 14 17 1 0
BITMAP
006C
006C
0064
0068
1E60
7F60
61E0
E0E0
C060
C060
C060
C060
C060
E0E0
61E0
7F60
3E60
ENDCHAR
STARTCHAR Dcroat
ENCODING 272
SWIDTH 722 0
DWIDTH 17 0
BBX 16 17 0 0
BITMAP
3FE0
3FF8
303C
300E
3006
3003
3003
FF83
FF83
3003
3003
3007
3006
300E
303C
3FF8
3FE0
ENDCHAR
STARTCHAR dcroat
ENCODING 273
SWIDTH 556 0
DWIDTH 13 0
BBX 12 17 1 0
BITMAP
00C0
07F0
07F0
00C0
3CC0
7EC0
61C0
C1C0
C0C0
C0C0
C0C0
C0C0
C0C0
C1C0
61C0
7EC0
3CC0
ENDCHAR
STARTCHAR Emacron
ENCODING 274
SWIDTH 666 0
DWIDTH 16 0
BBX 13 21 2 0
BITMAP
1FC0
1FC0
0000
0000
FFF8
FFF8
C000
C000
C000
C000
C000
FFF0
FFF0
C000
C000
C000
C000
C000
C000
FFF8
FFF8
ENDCHAR
STARTCHAR emacron
ENCODING 275
SWIDTH 556 0
DWIDTH 13 0
BBX 11 17 1 0
BITMAP
3F80
3F80
0000
0000
1F00
3F80
60C0
C060
C060
FFE0
FFE0
C000
C000
E060
70E0
3FC0
1F80
ENDCHAR
STARTCHAR Ebreve
ENCODING 276
SWIDTH 666 0
DWIDTH 16 0
BBX 13 21 2 0
BITMAP
30C0
1F80
0F00
0000
FFF8
FFF8
C000
C000
C000
C000
C000
FFF0
FFF0
C000
C000
C000
C000
C000
C000
FFF8
FFF8
ENDCHAR
STARTCHAR ebreve
ENCODING 277
SWIDTH 556 0
DWIDTH 13 0
BBX 11 18 1 0
BITMAP
30C0
30C0
1F80
0F00
0000
1F00
3F80
60C0
C060
C060
FFE0
FFE0
C000
C000
E060
70E0
3FC0
1F80
ENDCHAR
STARTCHAR Edotaccent
ENCODING 278
SWIDTH 666 0
DWIDTH 16 0
BBX 13 20 2 0
BITMAP
0300
0300
0000
FFF8
FFF8
C000
C000
C000
C000
C000
FFF0
FFF0
C000
C000
C000
C000
C000
C000
FFF8
FFF8
ENDCHAR
STARTCHAR edotaccent
ENCODING 279
SWIDTH 556 0
DWIDTH 13 0
BBX 11 17 1 0
BITMAP
0600
0600
0000
0000
1F00
3F80
60C0
C060
C060
FFE0
FFE0
C000
C000
E060
70E0
3FC0
1F80
ENDCHAR
STARTCHAR Eogonek
ENCODING 280
SWIDTH 666 0
DWIDTH 16 0
BBX 13 22 2 -5
BITMAP
FFF8
FFF8
C000
C000
C000
C000
C000
FFF0
FFF0
C000
C000
C000
C000
C000
C000
FFF8
FFF8
0030
0060
0060
0060
0038
ENDCHAR
STARTCHAR eogonek
ENCODING 281
SWIDTH 556 0
DWIDTH 13 0
BBX 11 18 1 -5
BITMAP
1F00
3F80
60C0
C060
C060
FFE0
FFE0
C000
C000
E060
70E0
3FC0
1F80
0600
0C00
0C00
0C00
0700
ENDCHAR
STARTCHAR Ecaron
ENCODING 282
SWIDTH 666 0
DWIDTH 16 0
BBX 13 21 2 0
BITMAP
30C0
1980
0F00
0000
FFF8
FFF8
C000
C000
C000
C000
C000
FFF0
FFF0
C000
C000
C000
C000
C000
C000
FFF8
FFF8
ENDCHAR
STARTCHAR ecaron
ENCODING 283
SWIDTH 556 0
DWIDTH 13 0
BBX 11 18 1 0
BITMAP
30C0
1980
0D00
0F00
0000
1F00
3F80
60C0
C060
C060
FFE0
FFE0
C000
C000
E060
70E0
3FC0
1F80
ENDCHAR
STARTCHAR Gcircumflex
ENCODING 284
SWIDTH 777 0
DWIDTH 19 0
BBX 16 21 1 0
BITMAP
01E0
0330
0618
0000
07F0
1FFC
381E
7007
6006
C000
C000
C000
C000
C07F
C07F
E003
6003
7003
3C0F
1FFE
07F0
ENDCHAR
STARTCHAR gcircumflex
ENCODING 285
SWIDTH 556 0
DWIDTH 14 0
BBX 11 23 1 -5
BITMAP
0F00
0D00
1980
30C0
0000
1E60
7F60
61E0
E0E0
C060
C060
C060
C060
C060
C0E0
61E0
7F60
3E60
0060
00E0
E1C0
7FC0
3F00
ENDCHAR
STARTCHAR Gbreve
ENCODING 286
SWIDTH 777 0
DWIDTH 19 0
BBX 16 21 1 0
BITMAP
0618
03F0
01E0
0000
07F0
1FFC
381E
7007
6006
C000
C000
C000
C000
C07F
C07F
E003
6003
7003
3C0F
1FFE
07F0
ENDCHAR
STARTCHAR gbreve
ENCODING 287
SWIDTH 556 0
DWIDTH 14 0
BBX 11 23 1 -5
BITMAP
30C0
30C0
1F80
0F00
0000
1E60
7F60
61E0
E0E0
C060
C060
C060
C060
C060
C0E0
61E0
7F60
3E60
0060
00E0
E1C0
7FC0
3F00
ENDCHAR
STARTCHAR Gdotaccent
ENCODING 288
SWIDTH 777 0
DWIDTH 19 0
BBX 16 20 1 0
BITMAP
00C0
00C0
0000
07F0
1FFC
381E
7007
6006
C000
C000
C000
C000
C07F
C07F
E003
6003
7003
3C0F
1FFE
07F0
ENDCHAR
STARTCHAR gdotaccent
ENCODING 289
SWIDTH 556 0
DWIDTH 14 0
BBX 11 22 1 -5
BITMAP
0600
0600
0000
0000
1E60
7F60
61E0
E0E0
C060
C060
C060
C060
C060
C0E0
61E0
7F60
3E60
0060
00E0
E1C0
7FC0
3F00
ENDCHAR
STARTCHAR Gcommaaccent
ENCODING 290
SWIDTH 777 0
DWIDTH 19 0
BBX 16 22 1 -5
BITMAP
07F0
1FFC
381E
7007
6006
C000
C000
C000
C000
C07F
C07F
E003
6003
7003
3C0F
1FFE
07F0
0000
00C0
00C0
0040
0080
ENDCHAR
STARTCHAR gcommaaccent
ENCODING 291
SWIDTH 556 0
DWIDTH 13 0
BBX 11 23 1 -5
BITMAP
0200
0400
0600
0600
0000
1E60
7F60
61E0
E0E0
C060
C060
C060
C060
C060
C0E0
61E0
7F60
3E60
0060
00E0
E1C0
7FC0
3F00
ENDCHAR
STARTCHAR Hcircumflex
ENCODING 292
SWIDTH 722 0
DWIDTH 17 0
BBX 13 21 2 0
BITMAP
0780
0CC0
1860
0000
C018
C018
C018
C018
C018
C018
C018
FFF8
FFF8
C018
C018
C018
C018
C018
C018
C018
C018
ENDCHAR
STARTCHAR hcircumflex
ENCODING 293
SWIDTH 556 0
DWIDTH 14 0
BBX 10 22 2 0
BITMAP
1E00
3300
6180
0000
0000
C000
C000
C000
C000
CF00
DF80
E1C0
E0C0
C0C0
C0C0
C0C0
C0C0
C0C0
C0C0
C0C0
C0C0
C0C0
ENDCHAR
STARTCHAR Hbar
ENCODING 294
SWIDTH 722 0
DWIDTH 17 0
BBX 17 17 0 0
BITMAP
300600
300600
300600
FFFF80
FFFF80
300600
300600
3FFE00
3FFE00
300600
300600
300600
300600
300600
300600
300600
300600
ENDCHAR
STARTCHAR hbar
ENCODING 295
SWIDTH 556 0
DWIDTH 14 0
BBX 12 17 0 0
BITMAP
3000
FF00
FF00
3000
33C0
37E0
3C70
3830
3030
3030
3030
3030
3030
3030
3030
3030
3030
ENDCHAR
STARTCHAR Itilde
ENCODING 296
SWIDTH 277 0
DWIDTH 6 0
BBX 8 21 -1 0
BITMAP
71
FF
8E
00
18
18
18
18
18
18
18
18
18
18
18
18
18
18
18
18
18
ENDCHAR
STARTCHAR itilde
ENCODING 297
SWIDTH 277 0
DWIDTH 6 0
BBX 8 18 -1 0
BITMAP
61
F9
9F
86
00
18
18
18
18
18
18
18
18
18
18
18
18
18
ENDCHAR
STARTCHAR Imacron
ENCODING 298
SWIDTH 277 0
DWIDTH 6 0
BBX 7 21 0 0
BITMAP
FE
FE
00
00
30
30
30
30
30
30
30
30
30
30
30
30
30
30
30
30
30
ENDCHAR
STARTCHAR imacron
ENCODING 299
SWIDTH 277 0
DWIDTH 6 0
BBX 7 17 0 0
BITMAP
FE
FE
00
00
30
30
30
30
30
30
30
30
30
30
30
30
30
ENDCHAR
STARTCHAR Ibreve
ENCODING 300
SWIDTH 277 0
DWIDTH 6 0
BBX 8 21 -1 0
BITMAP
C3
7E
3C
00
18
18
18
18
18
18
18
18
18
18
18
18
18
18
18
18
18
ENDCHAR
STARTCHAR ibreve
ENCODING 301
SWIDTH 277 0
DWIDTH 6 0
BBX 8 18 -1 0
BITMAP
C3
C3
7E
3C
00
18
18
18
18
18
18
18
18
18
18
18
18
18
ENDCHAR
STARTCHAR Iogonek
ENCODING 302
SWIDTH 277 0
DWIDTH 6 0
BBX 4 22 1 -5
BITMAP
60
60
60
60
60
60
60
60
60
60
60
60
60
60
60
60
60
60
C0
C0
C0
70
ENDCHAR
STARTCHAR iogonek
ENCODING 303
SWIDTH 222 0
DWIDTH 5 0
BBX 4 22 0 -5
BITMAP
60
60
00
00
60
60
60
60
60
60
60
60
60
60
60
60
60
60
C0
C0
C0
70
ENDCHAR
STARTCHAR Idotaccent
ENCODING 304
SWIDTH 277 0
DWIDTH 6 0
BBX 2 20 2 0
BITMAP
C0
C0
00
C0
C0
C0
C0
C0
C0
C0
C0
C0
C0
C0
C0
C0
C0
C0
C0
C0
ENDCHAR
STARTCHAR dotlessi
ENCODING 305
SWIDTH 277 0
DWIDTH 6 0
BBX 2 13 2 0
BITMAP
C0
C0
C0
C0
C0
C0
C0
C0
C0
C0
C0
C0
C0
ENDCHAR
STARTCHAR IJ
ENCODING 306
SWIDTH 734 0
DWIDTH 18 0
BBX 14 17 2 0
BITMAP
C0FC
C0FC
C00C
C00C
C00C
C00C
C00C
C00C
C00C
C00C
C00C
C00C
CC0C
CE0C
C718
C7F8
C1E0
ENDCHAR
STARTCHAR ij
ENCODING 307
SWIDTH 443 0
DWIDTH 11 0
BBX 8 22 1 -5
BITMAP
C3
C3
00
00
C3
C3
C3
C3
C3
C3
C3
C3
C3
C3
C3
C3
C3
03
03
03
0F
0E
ENDCHAR
STARTCHAR Jcircumflex
ENCODING 308
SWIDTH 500 0
DWIDTH 12 0
BBX 11 21 0 0
BITMAP
0780
0CC0
1860
0000
0FC0
0FC0
00C0
00C0
00C0
00C0
00C0
00C0
00C0
00C0
00C0
00C0
C0C0
E0C0
7180
7F80
1E00
ENDCHAR
STARTCHAR jcircumflex
ENCODING 309
SWIDTH 222 0
DWIDTH 6 0
BBX 8 23 -1 -5
BITMAP
3C
34
66
C3
00
18
18
18
18
18
18
18
18
18
18
18
18
18
18
18
18
78
70
ENDCHAR
STARTCHAR Kcommaaccent
ENCODING 310
SWIDTH 666 0
DWIDTH 16 0
BBX 14 22 2 -5
BITMAP
C038
C070
C0E0
C1C0
C380
C700
CE00
DC00
FE00
E700
C300
C180
C0C0
C0E0
C070
C038
C01C
0000
0300
0300
0100
0200
ENDCHAR
STARTCHAR kcommaaccent
ENCODING 311
SWIDTH 500 0
DWIDTH 12 0
BBX 10 22 2 -5
BITMAP
C000
C000
C000
C000
C1C0
C380
C700
C600
CC00
D800
FC00
EC00
C600
C700
C300
C180
C1C0
0000
0C00
0C00
0400
0800
ENDCHAR
STARTCHAR kgreenlandic
ENCODING 312
SWIDTH 500 0
DWIDTH 12 0
BBX 10 13 2 0
BITMAP
C1C0
C380
C700
C600
CC00
D800
FC00
EC00
C600
C700
C300
C180
C1C0
ENDCHAR
STARTCHAR Lacute
ENCODING 313
SWIDTH 556 0
DWIDTH 13 0
BBX 10 21 2 0
BITMAP
1C00
3000
6000
0000
C000
C000
C000
C000
C000
C000
C000
C000
C000
C000
C000
C000
C000
C000
C000
FFC0
FFC0
ENDCHAR
STARTCHAR lacute
ENCODING 314
SWIDTH 222 0
DWIDTH 6 0
BBX 5 22 2 0
BITMAP
38
60
C0
00
00
C0
C0
C0
C0
C0
C0
C0
C0
C0
C0
C0
C0
C0
C0
C0
C0
C0
ENDCHAR
STARTCHAR Lcommaaccent
ENCODING 315
SWIDTH 556 0
DWIDTH 13 0
BBX 10 22 2 -5
BITMAP
C000
C000
C000
C000
C000
C000
C000
C000
C000
C000
C000
C000
C000
C000
C000
FFC0
FFC0
0000
0C00
0C00
0400
0800
ENDCHAR
STARTCHAR lcommaaccent
ENCODING 316
SWIDTH 222 0
DWIDTH 6 0
BBX 2 22 2 -5
BITMAP
C0
C0
C0
C0
C0
C0
C0
C0
C0
C0
C0
C0
C0
C0
C0
C0
C0
00
C0
C0
40
80
ENDCHAR
STARTCHAR Lcaron
ENCODING 317
SWIDTH 556 0
DWIDTH 13 0
BBX 10 17 2 0
BITMAP
C300
C300
C100
C200
C000
C000
C000
C000
C000
C000
C000
C000
C000
C000
C000
FFC0
FFC0
ENDCHAR
STARTCHAR lcaron
ENCODING 318
SWIDTH 291 0
DWIDTH 7 0
BBX 6 17 2 0
BITMAP
CC
CC
C4
C8
C0
C0
C0
C0
C0
C0
C0
C0
C0
C0
C0
C0
C0
ENDCHAR
STARTCHAR Ldot
ENCODING 319
SWIDTH 556 0
DWIDTH 13 0
BBX 10 17 2 0
BITMAP
C000
C000
C000
C000
C000
C000
C000
C600
C600
C000
C000
C000
C000
C000
C000
FFC0
FFC0
ENDCHAR
STARTCHAR ldot
ENCODING 320
SWIDTH 333 0
DWIDTH 8 0
BBX 6 17 2 0
BITMAP
C0
C0
C0
C0
C0
C0
C0
CC
CC
C0
C0
C0
C0
C0
C0
C0
C0
ENDCHAR
STARTCHAR Lslash
ENCODING 321
SWIDTH 556 0
DWIDTH 13 0
BBX 12 17 0 0
BITMAP
3000
3000
3000
3000
3000
3200
3E00
3C00
7000
F000
B000
3000
3000
3000
3000
3FF0
3FF0
ENDCHAR
STARTCHAR lslash
ENCODING 322
SWIDTH 222 0
DWIDTH 6 0
BBX 4 17 1 0
BITMAP
60
60
60
60
60
60
60
70
70
F0
E0
E0
60
60
60
60
60
ENDCHAR
STARTCHAR Nacute
ENCODING 323
SWIDTH 722 0
DWIDTH 17 0
BBX 13 21 2 0
BITMAP
01C0
0300
0600
0000
C018
E018
F018
F018
D818
DC18
CC18
C618
C718
C318
C198
C198
C0D8
C078
C078
C038
C038
ENDCHAR
STARTCHAR nacute
ENCODING 324
SWIDTH 556 0
DWIDTH 14 0
BBX 10 18 2 0
BITMAP
0380
0300
0600
0C00
0000
CF00
DF80
E1C0
E0C0
C0C0
C0C0
C0C0
C0C0
C0C0
C0C0
C0C0
C0C0
C0C0
ENDCHAR
STARTCHAR Ncommaaccent
ENCODING 325
SWIDTH 722 0
DWIDTH 17 0
BBX 13 22 2 -5
BITMAP
C018
E018
F018
F018
D818
DC18
CC18
C618
C718
C318
C198
C198
C0D8
C078
C078
C038
C038
0000
0300
0300
0100
0200
ENDCHAR
STARTCHAR ncommaaccent
ENCODING 326
SWIDTH 556 0
DWIDTH 14 0
BBX 10 18 2 -5
BITMAP
CF00
DF80
E1C0
E0C0
C0C0
C0C0
C0C0
C0C0
C0C0
C0C0
C0C0
C0C0
C0C0
0000
0C00
0C00
0400
0800
ENDCHAR
STARTCHAR Ncaron
ENCODING 327
SWIDTH 722 0
DWIDTH 17 0
BBX 13 21 2 0
BITMAP
1860
0CC0
0780
0000
C018
E018
F018
F018
D818
DC18
CC18
C618
C718
C318
C198
C198
C0D8
C078
C078
C038
C038
ENDCHAR
STARTCHAR ncaron
ENCODING 328
SWIDTH 556 0
DWIDTH 14 0
BBX 10 18 2 0
BITMAP
6180
3300
1A00
1E00
0000
CF00
DF80
E1C0
E0C0
C0C0
C0C0
C0C0
C0C0
C0C0
C0C0
C0C0
C0C0
C0C0
ENDCHAR
STARTCHAR napostrophe
ENCODING 329
SWIDTH 604 0
DWIDTH 15 0
BBX 13 17 0 0
BITMAP
C000
C000
C000
4000
59E0
9BF0
1C38
1C18
1818
1818
1818
1818
1818
1818
1818
1818
1818
ENDCHAR
STARTCHAR Eng
ENCODING 330
SWIDTH 723 0
DWIDTH 17 0
BBX 13 17 2 0
BITMAP
C7C0
DFF0
D870
E038
E018
C018
C018
C018
C018
C018
C018
C018
C018
C018
C230
C7F0
C3E0
ENDCHAR
STARTCHAR eng
ENCODING 331
SWIDTH 556 0
DWIDTH 13 0
BBX 10 18 2 -5
BITMAP
CF00
DF80
E1C0
E0C0
C0C0
C0C0
C0C0
C0C0
C0C0
C0C0
C0C0
C0C0
C0C0
00C0
00C0
00C0
03C0
0380
ENDCHAR
STARTCHAR Omacron
ENCODING 332
SWIDTH 777 0
DWIDTH 19 0
BBX 17 21 1 0
BITMAP
07F000
07F000
000000
000000
07F000
1FFC00
3C1E00
700700
600300
E00380
C00180
C00180
C00180
C00180
C00180
E00380
600300
700700
3C1E00
1FFC00
07F000
ENDCHAR
STARTCHAR omacron
ENCODING 333
SWIDTH 556 0
DWIDTH 13 0
BBX 11 17 1 0
BITMAP
3F80
3F80
0000
0000
1F00
7FC0
70C0
E0E0
C060
C060
C060
C060
C060
E0E0
60C0
3F80
1F00
ENDCHAR
STARTCHAR Obreve
ENCODING 334
SWIDTH 777 0
DWIDTH 19 0
BBX 17 21 1 0
BITMAP
061800
03F000
01E000
000000
07F000
1FFC00
3C1E00
700700
600300
E00380
C00180
C00180
C00180
C00180
C00180
E00380
600300
700700
3C1E00
1FFC00
07F000
ENDCHAR
STARTCHAR obreve
ENCODING 335
SWIDTH 556 0
DWIDTH 13 0
BBX 11 18 1 0
BITMAP
30C0
30C0
1F80
0F00
0000
1F00
7FC0
70C0
E0E0
C060
C060
C060
C060
C060
E0E0
60C0
3F80
1F00
ENDCHAR
STARTCHAR Ohungarumlaut
ENCODING 336
SWIDTH 777 0
DWIDTH 19 0
BBX 17 21 1 0
BITMAP
01DC00
033000
066000
000000
07F000
1FFC00
3C1E00
700700
600300
E00380
C00180
C00180
C00180
C00180
C00180
E00380
600300
700700
3C1E00
1FFC00
07F000
ENDCHAR
STARTCHAR ohungarumlaut
ENCODING 337
SWIDTH 556 0
DWIDTH 13 0
BBX 11 18 1 0
BITMAP
0EE0
0CC0
1980
3300
0000
1F00
7FC0
70C0
E0E0
C060
C060
C060
C060
C060
E0E0
60C0
3F80
1F00
ENDCHAR
STARTCHAR OE
ENCODING 338
SWIDTH 1000 0
DWIDTH 24 0
BBX 22 17 1 0
BITMAP
07FFFC
1FFFFC
383000
703000
603000
C03000
C03000
C03FF8
C03FF8
C03000
C03000
E03000
603000
703000
383000
1FFFFC
07FFFC
ENDCHAR
STARTCHAR oe
ENCODING 339
SWIDTH 943 0
DWIDTH 23 0
BBX 21 13 1 0
BITMAP
1F0FC0
3FDFE0
70F870
E0F038
C06018
C07FF8
C07FF8
C06000
C06000
E0F018
70F838
3F9FF0
1F0FC0
ENDCHAR
STARTCHAR Racute
ENCODING 340
SWIDTH 722 0
DWIDTH 17 0
BBX 14 21 2 0
BITMAP
01C0
0300
0600
0000
FFC0
FFF0
C030
C018
C018
C018
C018
C030
FFF0
FFC0
C1C0
C0C0
C060
C070
C030
C038
C01C
ENDCHAR
STARTCHAR racute
ENCODING 341
SWIDTH 333 0
DWIDTH 8 0
BBX 7 18 2 0
BITMAP
0E
0C
18
30
00
DC
FC
E0
E0
C0
C0
C0
C0
C0
C0
C0
C0
C0
ENDCHAR
STARTCHAR Rcommaaccent
ENCODING 342
SWIDTH 722 0
DWIDTH 17 0
BBX 14 22 2 -5
BITMAP
FFC0
FFF0
C030
C018
C018
C018
C018
C030
FFF0
FFC0
C1C0
C0C0
C060
C070
C030
C038
C01C
0000
0300
0300
0100
0200
ENDCHAR
STARTCHAR rcommaaccent
ENCODING 343
SWIDTH 333 0
DWIDTH 8 0
BBX 6 18 2 -5
BITMAP
DC
FC
E0
E0
C0
C0
C0
C0
C0
C0
C0
C0
C0
00
C0
C0
40
80
ENDCHAR
STARTCHAR Rcaron
ENCODING 344
SWIDTH 722 0
DWIDTH 17 0
BBX 14 21 2 0
BITMAP
30C0
1980
0F00
0000
FFC0
FFF0
C030
C018
C018
C018
C018
C030
FFF0
FFC0
C1C0
C0C0
C060
C070
C030
C038
C01C
ENDCHAR
STARTCHAR rcaron
ENCODING 345
SWIDTH 333 0
DWIDTH 8 0
BBX 8 18 1 0
BITMAP
C3
66
34
3C
00
6E
7E
70
70
60
60
60
60
60
60
60
60
60
ENDCHAR
STARTCHAR Sacute
ENCODING 346
SWIDTH 666 0
DWIDTH 16 0
BBX 14 22 1 0
BITMAP
00E0
00C0
0180
0300
0000
0FE0
3FF8
7038
600C
6000
6000
3800
3F80
0FF0
00F8
001C
000C
400C
E00C
7038
3FF0
1FE0
ENDCHAR
STARTCHAR sacute
ENCODING 347
SWIDTH 500 0
DWIDTH 12 0
BBX 10 18 1 0
BITMAP
0380
0300
0600
0C00
0000
3F00
7F80
C1C0
C0C0
E000
7C00
3F00
0380
00C0
C0C0
E1C0
7F80
3F00
ENDCHAR
STARTCHAR Scircumflex
ENCODING 348
SWIDTH 666 0
DWIDTH 16 0
BBX 14 22 1 0
BITMAP
0780
0680
0CC0
1860
0000
0FE0
3FF8
7038
600C
6000
6000
3800
3F80
0FF0
00F8
001C
000C
400C
E00C
7038
3FF0
1FE0
ENDCHAR
STARTCHAR scircumflex
ENCODING 349
SWIDTH 500 0
DWIDTH 12 0
BBX 10 18 1 0
BITMAP
1E00
1A00
3300
6180
0000
3F00
7F80
C1C0
C0C0
E000
7C00
3F00
0380
00C0
C0C0
E1C0
7F80
3F00
ENDCHAR
STARTCHAR Scedilla
ENCODING 350
SWIDTH 666 0
DWIDTH 16 0
BBX 14 22 1 -5
BITMAP
0FE0
3FF8
7038
600C
6000
6000
3800
3F80
0FF0
00F8
001C
000C
400C
E00C
7038
3FF0
1FE0
0100
0380
00C0
00C0
0380
ENDCHAR
STARTCHAR scedilla
ENCODING 351
SWIDTH 500 0
DWIDTH 12 0
BBX 10 18 1 -5
BITMAP
3F00
7F80
C1C0
C0C0
E000
7C00
3F00
0380
00C0
C0C0
E1C0
7F80
3F00
0800
1C00
0600
0600
1C00
ENDCHAR
STARTCHAR Scaron
ENCODING 352
SWIDTH 666 0
DWIDTH 16 0
BBX 14 21 1 0
BITMAP
1860
0CC0
0780
0000
0FE0
3FF8
7038
600C
6000
6000
3800
3F80
0FF0
00F8
001C
000C
400C
E00C
7038
3FF0
1FE0
ENDCHAR
STARTCHAR scaron
ENCODING 353
SWIDTH 500 0
DWIDTH 12 0
BBX 10 18 1 0
BITMAP
6180
3300
1A00
1E00
0000
3F00
7F80
C1C0
C0C0
E000
7C00
3F00
0380
00C0
C0C0
E1C0
7F80
3F00
ENDCHAR
STARTCHAR Tcommaaccent
ENCODING 354
SWIDTH 610 0
DWIDTH 14 0
BBX 12 22 2 -5
BITMAP
FFF0
FFF0
0600
0600
0600
0600
0600
0600
0600
0600
0600
0600
0600
0600
0600
0600
0600
0800
1C00
0600
0600
1C00
ENDCHAR
STARTCHAR tcommaaccent
ENCODING 355
SWIDTH 277 0
DWIDTH 7 0
BBX 6 21 2 -5
BITMAP
20
60
60
F8
F8
60
60
60
60
60
60
60
60
60
7C
3C
40
F0
30
30
E0
ENDCHAR
STARTCHAR Tcaron
ENCODING 356
SWIDTH 610 0
DWIDTH 14 0
BBX 12 21 1 0
BITMAP
30C0
1980
0F00
0000
FFF0
FFF0
0600
0600
0600
0600
0600
0600
0600
0600
0600
0600
0600
0600
0600
0600
0600
ENDCHAR
STARTCHAR tcaron
ENCODING 357
SWIDTH 375 0
DWIDTH 9 0
BBX 9 18 1 0
BITMAP
0180
0180
2080
6100
6000
F800
F800
6000
6000
6000
6000
6000
6000
6000
6000
6000
7C00
3C00
ENDCHAR
STARTCHAR Tbar
ENCODING 358
SWIDTH 610 0
DWIDTH 15 0
BBX 12 17 1 0
BITMAP
FFF0
FFF0
0600
0600
0600
0600
0600
3FC0
3FC0
0600
0600
0600
0600
0600
0600
0600
0600
ENDCHAR
STARTCHAR tbar
ENCODING 359
SWIDTH 277 0
DWIDTH 7 0
BBX 6 16 1 0
BITMAP
20
60
60
FC
FC
60
60
60
FC
FC
60
60
60
60
7C
3C
ENDCHAR
STARTCHAR Utilde
ENCODING 360
SWIDTH 722 0
DWIDTH 17 0
BBX 13 21 2 0
BITMAP
0E20
1FE0
11C0
0000
C018
C018
C018
C018
C018
C018
C018
C018
C018
C018
C018
C018
C018
E030
7070
3FE0
0F80
ENDCHAR
STARTCHAR utilde
ENCODING 361
SWIDTH 556 0
DWIDTH 14 0
BBX 10 18 2 0
BITMAP
3080
7C80
4F80
4300
0000
C0C0
C0C0
C0C0
C0C0
C0C0
C0C0
C0C0
C0C0
C0C0
C1C0
E3C0
7EC0
3CC0
ENDCHAR
STARTCHAR Umacron
ENCODING 362
SWIDTH 722 0
DWIDTH 17 0
BBX 13 21 2 0
BITMAP
1FC0
1FC0
0000
0000
C018
C018
C018
C018
C018
C018
C018
C018
C018
C018
C018
C018
C018
E030
7070
3FE0
0F80
ENDCHAR
STARTCHAR umacron
ENCODING 363
SWIDTH 556 0
DWIDTH 14 0
BBX 10 17 2 0
BITMAP
3F80
3F80
0000
0000
C0C0
C0C0
C0C0
C0C0
C0C0
C0C0
C0C0
C0C0
C0C0
C1C0
E3C0
7EC0
3CC0
ENDCHAR
STARTCHAR Ubreve
ENCODING 364
SWIDTH 722 0
DWIDTH 17 0
BBX 13 21 2 0
BITMAP
1860
0FC0
0780
0000
C018
C018
C018
C018
C018
C018
C018
C018
C018
C018
C018
C018
C018
E030
7070
3FE0
0F80
ENDCHAR
STARTCHAR ubreve
ENCODING 365
SWIDTH 556 0
DWIDTH 14 0
BBX 10 18 2 0
BITMAP
6180
6180
3F00
1E00
0000
C0C0
C0C0
C0C0
C0C0
C0C0
C0C0
C0C0
C0C0
C0C0
C1C0
E3C0
7EC0
3CC0
ENDCHAR
STARTCHAR Uring
ENCODING 366
SWIDTH 722 0
DWIDTH 17 0
BBX 13 24 2 0
BITMAP
0780
0CC0
0840
0840
0CC0
0780
0000
C018
C018
C018
C018
C018
C018
C018
C018
C018
C018
C018
C018
C018
E030
7070
3FE0
0F80
ENDCHAR
STARTCHAR uring
ENCODING 367
SWIDTH 556 0
DWIDTH 14 0
BBX 10 20 2 0
BITMAP
1E00
3300
2100
2100
3300
1E00
0000
C0C0
C0C0
C0C0
C0C0
C0C0
C0C0
C0C0
C0C0
C0C0
C1C0
E3C0
7EC0
3CC0
ENDCHAR
STARTCHAR Uhungarumlaut
ENCODING 368
SWIDTH 722 0
DWIDTH 17 0
BBX 13 21 2 0
BITMAP
0770
0CC0
1980
0000
C018
C018
C018
C018
C018
C018
C018
C018
C018
C018
C018
C018
C018
E030
7070
3FE0
0F80
ENDCHAR
STARTCHAR uhungarumlaut
ENCODING 369
SWIDTH 556 0
DWIDTH 14 0
BBX 11 18 2 0
BITMAP
0EE0
0CC0
1980
3300
0000
C0C0
C0C0
C0C0
C0C0
C0C0
C0C0
C0C0
C0C0
C0C0
C1C0
E3C0
7EC0
3CC0
ENDCHAR
STARTCHAR Uogonek
ENCODING 370
SWIDTH 722 0
DWIDTH 17 0
BBX 13 22 2 -5
BITMAP
C018
C018
C018
C018
C018
C018
C018
C018
C018
C018
C018
C018
C018
E030
7070
3FE0
0F80
0300
0600
0600
0600
0380
ENDCHAR
STARTCHAR uogonek
ENCODING 371
SWIDTH 556 0
DWIDTH 14 0
BBX 10 18 2 -5
BITMAP
C0C0
C0C0
C0C0
C0C0
C0C0
C0C0
C0C0
C0C0
C0C0
C1C0
E3C0
7EC0
3CC0
0180
0300
0300
0300
01C0
ENDCHAR
STARTCHAR Wcircumflex
ENCODING 372
SWIDTH 943 0
DWIDTH 23 0
BBX 23 21 0 0
BITMAP
003C00
006600
00C300
000000
C01006
E0380E
60380C
60280C
606C0C
306C18
306C18
30C418
18C630
18C630
188230
0D8360
0D8360
0D8360
050140
0701C0
0701C0
ENDCHAR
STARTCHAR wcircumflex
ENCODING 373
SWIDTH 722 0
DWIDTH 17 0
BBX 17 18 0 0
BITMAP
01E000
01A000
033000
061800
000000
C1C180
C1C180
C14180
636300
636300
636300
222200
363600
363600
363600
141400
1C1C00
1C1C00
ENDCHAR
STARTCHAR Ycircumflex
ENCODING 374
SWIDTH 666 0
DWIDTH 16 0
BBX 16 21 0 0
BITMAP
03C0
0660
0C30
0000
E007
700E
300C
381C
1C38
0C30
0660
07E0
03C0
0180
0180
0180
0180
0180
0180
0180
0180
ENDCHAR
STARTCHAR ycircumflex
ENCODING 375
SWIDTH 500 0
DWIDTH 12 0
BBX 12 23 0 -5
BITMAP
0F00
0D00
1980
30C0
0000
C030
E070
6060
6060
30C0
30C0
38C0
1980
1980
0F00
0F00
0F00
0600
0600
0C00
1C00
7800
7000
ENDCHAR
STARTCHAR Ydieresis
ENCODING 376
SWIDTH 666 0
DWIDTH 16 0
BBX 16 20 0 0
BITMAP
0630
0630
0000
E007
700E
300C
381C
1C38
0C30
0660
07E0
03C0
0180
0180
0180
0180
0180
0180
0180
0180
ENDCHAR
STARTCHAR Zacute
ENCODING 377
SWIDTH 610 0
DWIDTH 15 0
BBX 13 21 1 0
BITMAP
01C0
0300
0600
0000
7FF0
7FF0
0070
00E0
00C0
0180
0380
0700
0600
0E00
1C00
1800
3000
7000
E000
FFF8
FFF8
ENDCHAR
STARTCHAR zacute
ENCODING 378
SWIDTH 500 0
DWIDTH 12 0
BBX 10 18 1 0
BITMAP
0380
0300
0600
0C00
0000
FFC0
FFC0
01C0
0380
0700
0600
0C00
1800
3000
7000
E000
FFC0
FFC0
ENDCHAR
STARTCHAR Zdotaccent
ENCODING 379
SWIDTH 610 0
DWIDTH 15 0
BBX 13 20 1 0
BITMAP
0300
0300
0000
7FF0
7FF0
0070
00E0
00C0
0180
0380
0700
0600
0E00
1C00
1800
3000
7000
E000
FFF8
FFF8
ENDCHAR
STARTCHAR zdotaccent
ENCODING 380
SWIDTH 500 0
DWIDTH 12 0
BBX 10 17 1 0
BITMAP
0C00
0C00
0000
0000
FFC0
FFC0
01C0
0380
0700
0600
0C00
1800
3000
7000
E000
FFC0
FFC0
ENDCHAR
STARTCHAR Zcaron
ENCODING 381
SWIDTH 610 0
DWIDTH 15 0
BBX 13 21 1 0
BITMAP
1860
0CC0
0780
0000
7FF0
7FF0
0070
00E0
00C0
0180
0380
0700
0600
0E00
1C00
1800
3000
7000
E000
FFF8
FFF8
ENDCHAR
STARTCHAR zcaron
ENCODING 382
SWIDTH 500 0
DWIDTH 12 0
BBX 10 18 1 0
BITMAP
6180
3300
1A00
1E00
0000
FFC0
FFC0
01C0
0380
0700
0600
0C00
1800
3000
7000
E000
FFC0
FFC0
ENDCHAR
STARTCHAR longs
ENCODING 383
SWIDTH 222 0
DWIDTH 5 0
BBX 4 17 2 0
BITMAP
70
F0
C0
C0
C0
C0
C0
C0
C0
C0
C0
C0
C0
C0
C0
C0
C0
ENDCHAR
STARTCHAR florin
ENCODING 402
SWIDTH 556 0
DWIDTH 13 0
BBX 9 22 2 -5
BITMAP
0780
0F80
0C00
0800
1800
7F00
7F00
1800
1800
3800
3000
3000
3000
3000
7000
6000
6000
6000
6000
E000
C000
C000
ENDCHAR
STARTCHAR Aringacute
ENCODING 506
SWIDTH 666 0
DWIDTH 15 0
BBX 15 22 0 0
BITMAP
00C0
0300
0000
0380
0440
0440
0440
0380
0380
06C0
06C0
0C60
0C60
0C70
1830
1830
3FF8
3FF8
701C
600C
600C
E00E
ENDCHAR
STARTCHAR aringacute
ENCODING 507
SWIDTH 556 0
DWIDTH 13 0
BBX 12 22 1 0
BITMAP
0380
0300
0600
0C00
0F00
1980
1080
1080
1980
3F00
7F80
E1C0
C0C0
00C0
3FC0
7FC0
E0C0
C0C0
C1C0
E3C0
7EF0
3C70
ENDCHAR
STARTCHAR AEacute
ENCODING 508
SWIDTH 1000 0
DWIDTH 24 0
BBX 23 21 0 0
BITMAP
0001C0
000300
000600
000000
00FFFE
01FFFE
019800
039800
031800
071800
061800
0E1FFC
0C1FFC
0C1800
1FF800
1FF800
301800
301800
601800
601FFE
E01FFE
ENDCHAR
STARTCHAR aeacute
ENCODING 509
SWIDTH 889 0
DWIDTH 21 0
BBX 19 18 1 0
BITMAP
003800
003000
006000
00C000
000000
3F1F00
7FBF80
E1E0C0
C0C060
00C060
3FFFE0
7FFFE0
E0C000
C0C000
C1E060
E370E0
7E3FC0
3C1F00
ENDCHAR
STARTCHAR Oslashacute
ENCODING 510
SWIDTH 777 0
DWIDTH 19 0
BBX 17 21 1 0
BITMAP
007000
00C000
018000
000000
07F380
1FFF00
3C1E00
700F00
601B00
C03B80
C07180
C0E180
C1C180
C38180
C70180
EE0380
6C0300
780700
3C1E00
7FFC00
E7F000
ENDCHAR
STARTCHAR oslashacute
ENCODING 511
SWIDTH 610 0
DWIDTH 15 0
BBX 13 18 1 0
BITMAP
01C0
0180
0300
0600
0000
0F98
3FF0
3860
70F0
61B0
6330
6630
6E30
6C30
7870
3060
7FC0
CF80
ENDCHAR
STARTCHAR Scommaaccent
ENCODING 536
SWIDTH 666 0
DWIDTH 16 0
BBX 14 22 1 -5
BITMAP
0FE0
3FF8
7038
600C
6000
6000
3800
3F80
0FF0
00F8
001C
000C
400C
E00C
7038
3FF0
1FE0
0000
0180
0180
0080
0100
ENDCHAR
STARTCHAR scommaaccent
ENCODING 537
SWIDTH 500 0
DWIDTH 12 0
BBX 10 18 1 -5
BITMAP
3F00
7F80
C1C0
C0C0
E000
7C00
3F00
0380
00C0
C0C0
E1C0
7F80
3F00
0000
0C00
0C00
0400
0800
ENDCHAR
STARTCHAR uni021A
ENCODING 538
SWIDTH 610 0
DWIDTH 14 0
BBX 12 22 1 -5
BITMAP
FFF0
FFF0
0600
0600
0600
0600
0600
0600
0600
0600
0600
0600
0600
0600
0600
0600
0600
0000
0300
0300
0100
0200
ENDCHAR
STARTCHAR uni021B
ENCODING 539
SWIDTH 277 0
DWIDTH 7 0
BBX 6 21 1 -5
BITMAP
20
60
60
F8
F8
60
60
60
60
60
60
60
60
60
7C
3C
00
30
30
10
20
ENDCHAR
STARTCHAR circumflex
ENCODING 710
SWIDTH 333 0
DWIDTH 8 0
BBX 8 4 0 14
BITMAP
3C
34
66
C3
ENDCHAR
STARTCHAR caron
ENCODING 711
SWIDTH 333 0
DWIDTH 8 0
BBX 8 4 0 14
BITMAP
C3
66
34
3C
ENDCHAR
STARTCHAR uni02C9
ENCODING 713
SWIDTH 333 0
DWIDTH 8 0
BBX 7 2 0 15
BITMAP
FE
FE
ENDCHAR
STARTCHAR breve
ENCODING 728
SWIDTH 333 0
DWIDTH 8 0
BBX 8 4 0 14
BITMAP
C3
C3
7E
3C
ENDCHAR
STARTCHAR dotaccent
ENCODING 729
SWIDTH 333 0
DWIDTH 8 0
BBX 2 2 2 15
BITMAP
C0
C0
ENDCHAR
STARTCHAR ring
ENCODING 730
SWIDTH 333 0
DWIDTH 8 0
BBX 6 6 1 14
BITMAP
78
CC
84
84
CC
78
ENDCHAR
STARTCHAR ogonek
ENCODING 731
SWIDTH 333 0
DWIDTH 8 0
BBX 4 5 1 -5
BITMAP
60
C0
C0
C0
70
ENDCHAR
STARTCHAR tilde
ENCODING 732
SWIDTH 333 0
DWIDTH 8 0
BBX 8 4 0 14
BITMAP
61
F9
9F
86
ENDCHAR
STARTCHAR hungarumlaut
ENCODING 733
SWIDTH 333 0
DWIDTH 8 0
BBX 9 4 1 14
BITMAP
3B80
3300
6600
CC00
ENDCHAR
STARTCHAR semicolon.dup3
ENCODING 894
SWIDTH 277 0
DWIDTH 7 0
BBX 2 16 2 -3
BITMAP
C0
C0
C0
00
00
00
00
00
00
00
C0
C0
C0
40
40
80
ENDCHAR
STARTCHAR tonos
ENCODING 900
SWIDTH 333 0
DWIDTH 8 0
BBX 3 4 2 14
BITMAP
60
C0
C0
80
ENDCHAR
STARTCHAR dieresistonos
ENCODING 901
SWIDTH 333 0
DWIDTH 8 0
BBX 8 5 0 14
BITMAP
0C
0C
18
DB
D3
ENDCHAR
STARTCHAR Alphatonos
ENCODING 902
SWIDTH 667 0
DWIDTH 15 0
BBX 15 17 0 0
BITMAP
3380
6380
62C0
46C0
06C0
0C60
0C60
0820
1830
1830
3FF8
3FF8
3018
600C
600C
600C
C006
ENDCHAR
STARTCHAR anoteleia
ENCODING 903
SWIDTH 277 0
DWIDTH 6 0
BBX 2 3 2 5
BITMAP
C0
C0
C0
ENDCHAR
STARTCHAR Epsilontonos
ENCODING 904
SWIDTH 784 0
DWIDTH 19 0
BBX 18 17 0 0
BITMAP
67FFC0
C7FFC0
C60000
860000
060000
060000
060000
07FF80
07FF80
060000
060000
060000
060000
060000
060000
07FFC0
07FFC0
ENDCHAR
STARTCHAR Etatonos
ENCODING 905
SWIDTH 837 0
DWIDTH 20 0
BBX 18 17 0 0
BITMAP
6600C0
C600C0
C600C0
8600C0
0600C0
0600C0
0600C0
07FFC0
07FFC0
0600C0
0600C0
0600C0
0600C0
0600C0
0600C0
0600C0
0600C0
ENDCHAR
STARTCHAR Iotatonos
ENCODING 906
SWIDTH 383 0
DWIDTH 9 0
BBX 7 17 0 0
BITMAP
66
C6
C6
86
06
06
06
06
06
06
06
06
06
06
06
06
06
ENDCHAR
STARTCHAR Omicrontonos
ENCODING 908
SWIDTH 774 0
DWIDTH 19 0
BBX 19 17 -1 0
BITMAP
61FC00
C7FF00
CF0780
9C01C0
1800C0
3800E0
300060
300060
300060
300060
300060
3800E0
1800C0
1C01C0
0F0780
07FF00
01FC00
ENDCHAR
STARTCHAR Upsilontonos
ENCODING 910
SWIDTH 855 0
DWIDTH 20 0
BBX 20 17 1 0
BITMAP
6E0070
C700E0
C300C0
8381C0
01C380
00C300
006600
007E00
003C00
001800
001800
001800
001800
001800
001800
001800
001800
ENDCHAR
STARTCHAR Omegatonos
ENCODING 911
SWIDTH 752 0
DWIDTH 18 0
BBX 18 17 -1 0
BITMAP
61F800
C7FE00
CE0700
9C0380
3801C0
3000C0
3000C0
3000C0
3000C0
3000C0
180180
180180
0C0300
070E00
039C00
3F9FC0
3F9FC0
ENDCHAR
STARTCHAR iotadieresistonos
ENCODING 912
SWIDTH 222 0
DWIDTH 6 0
BBX 8 19 -1 0
BITMAP
0C
0C
18
DB
D3
00
18
18
18
18
18
18
18
18
18
18
18
18
1C
ENDCHAR
STARTCHAR Alpha
ENCODING 913
SWIDTH 666 0
DWIDTH 15 0
BBX 15 17 0 0
BITMAP
0380
0380
02C0
06C0
06C0
0C60
0C60
0820
1830
1830
3FF8
3FF8
3018
600C
600C
600C
C006
ENDCHAR
STARTCHAR Beta
ENCODING 914
SWIDTH 666 0
DWIDTH 16 0
BBX 13 17 2 0
BITMAP
FFC0
FFE0
C070
C030
C030
C030
C060
FFC0
FFE0
C070
C018
C018
C018
C018
C030
FFF0
FFC0
ENDCHAR
STARTCHAR Gamma
ENCODING 915
SWIDTH 550 0
DWIDTH 13 0
BBX 10 17 2 0
BITMAP
FFC0
FFC0
C000
C000
C000
C000
C000
C000
C000
C000
C000
C000
C000
C000
C000
C000
C000
ENDCHAR
STARTCHAR Delta
ENCODING 916
SWIDTH 667 0
DWIDTH 16 0
BBX 16 17 0 0
BITMAP
01C0
03C0
03C0
0660
0660
0E70
0C30
1C38
1818
181C
300C
300C
6006
6006
E007
FFFF
FFFF
ENDCHAR
STARTCHAR Epsilon
ENCODING 917
SWIDTH 666 0
DWIDTH 16 0
BBX 13 17 2 0
BITMAP
FFF8
FFF8
C000
C000
C000
C000
C000
FFF0
FFF0
C000
C000
C000
C000
C000
C000
FFF8
FFF8
ENDCHAR
STARTCHAR Zeta
ENCODING 918
SWIDTH 610 0
DWIDTH 15 0
BBX 13 17 1 0
BITMAP
7FF0
7FF0
0070
00E0
00C0
0180
0380
0700
0600
0E00
1C00
1800
3000
7000
E000
FFF8
FFF8
ENDCHAR
STARTCHAR Eta
ENCODING 919
SWIDTH 722 0
DWIDTH 17 0
BBX 13 17 2 0
BITMAP
C018
C018
C018
C018
C018
C018
C018
FFF8
FFF8
C018
C018
C018
C018
C018
C018
C018
C018
ENDCHAR
STARTCHAR Theta
ENCODING 920
SWIDTH 777 0
DWIDTH 19 0
BBX 17 17 1 0
BITMAP
07F000
1FFC00
3C1E00
700700
600300
E00380
C00180
C7F180
C7F180
C00180
C00180
E00380
600300
700700
3C1E00
1FFC00
07F000
ENDCHAR
STARTCHAR Iota
ENCODING 921
SWIDTH 277 0
DWIDTH 6 0
BBX 2 17 2 0
BITMAP
C0
C0
C0
C0
C0
C0
C0
C0
C0
C0
C0
C0
C0
C0
C0
C0
C0
ENDCHAR
STARTCHAR Kappa
ENCODING 922
SWIDTH 666 0
DWIDTH 16 0
BBX 14 17 2 0
BITMAP
C038
C070
C0E0
C1C0
C380
C700
CE00
DC00
FE00
E700
C300
C180
C0C0
C0E0
C070
C038
C01C
ENDCHAR
STARTCHAR Lambda
ENCODING 923
SWIDTH 667 0
DWIDTH 16 0
BBX 16 17 0 0
BITMAP
0180
03C0
03C0
02C0
0660
0660
0C30
0C30
0C30
1818
1818
300C
300C
700E
6006
6006
C003
ENDCHAR
STARTCHAR Mu
ENCODING 924
SWIDTH 833 0
DWIDTH 19 0
BBX 15 17 2 0
BITMAP
E00E
E00E
E00E
F01E
F01E
D016
D836
D836
CC66
CC66
CC66
C6C6
C6C6
C6C6
C386
C386
C386
ENDCHAR
STARTCHAR Nu
ENCODING 925
SWIDTH 722 0
DWIDTH 17 0
BBX 13 17 2 0
BITMAP
C018
E018
F018
F018
D818
DC18
CC18
C618
C718
C318
C198
C198
C0D8
C078
C078
C038
C038
ENDCHAR
STARTCHAR Xi
ENCODING 926
SWIDTH 649 0
DWIDTH 16 0
BBX 14 17 1 0
BITMAP
FFFC
FFFC
0000
0000
0000
0000
0000
3FF0
3FF0
0000
0000
0000
0000
0000
0000
FFFC
FFFC
ENDCHAR
STARTCHAR Omicron
ENCODING 927
SWIDTH 777 0
DWIDTH 19 0
BBX 17 17 1 0
BITMAP
07F000
1FFC00
3C1E00
700700
600300
E00380
C00180
C00180
C00180
C00180
C00180
E00380
600300
700700
3C1E00
1FFC00
07F000
ENDCHAR
STARTCHAR Pi
ENCODING 928
SWIDTH 722 0
DWIDTH 17 0
BBX 13 17 2 0
BITMAP
FFF8
FFF8
C018
C018
C018
C018
C018
C018
C018
C018
C018
C018
C018
C018
C018
C018
C018
ENDCHAR
STARTCHAR Rho
ENCODING 929
SWIDTH 666 0
DWIDTH 16 0
BBX 12 17 2 0
BITMAP
FF80
FFE0
C060
C030
C030
C030
C030
C060
FFE0
FF80
C000
C000
C000
C000
C000
C000
C000
ENDCHAR
STARTCHAR Sigma
ENCODING 931
SWIDTH 618 0
DWIDTH 15 0
BBX 13 17 1 0
BITMAP
FFF0
FFF0
E000
3000
1C00
0E00
0700
0380
0180
0300
0E00
1C00
3800
7000
E000
FFF8
FFF8
ENDCHAR
STARTCHAR Tau
ENCODING 932
SWIDTH 610 0
DWIDTH 14 0
BBX 12 17 1 0
BITMAP
FFF0
FFF0
0600
0600
0600
0600
0600
0600
0600
0600
0600
0600
0600
0600
0600
0600
0600
ENDCHAR
STARTCHAR Upsilon
ENCODING 933
SWIDTH 666 0
DWIDTH 16 0
BBX 16 17 0 0
BITMAP
E007
700E
300C
381C
1C38
0C30
0660
07E0
03C0
0180
0180
0180
0180
0180
0180
0180
0180
ENDCHAR
STARTCHAR Phi
ENCODING 934
SWIDTH 797 0
DWIDTH 18 0
BBX 16 17 1 0
BITMAP
0180
0180
1FF8
3FFC
718E
E187
C183
C183
C183
C183
E187
718E
3FFC
1FF8
0180
0180
0180
ENDCHAR
STARTCHAR Chi
ENCODING 935
SWIDTH 666 0
DWIDTH 15 0
BBX 15 17 0 0
BITMAP
E00E
701C
3018
1830
1C70
0EE0
06C0
0380
0380
07C0
0EE0
0C60
1830
3838
3018
600C
E00E
ENDCHAR
STARTCHAR Psi
ENCODING 936
SWIDTH 835 0
DWIDTH 19 0
BBX 16 17 2 0
BITMAP
C183
C183
C183
C183
C183
C183
C183
C183
6186
718E
3FFC
1FF8
0180
0180
0180
0180
0180
ENDCHAR
STARTCHAR Omega
ENCODING 937
SWIDTH 747 0
DWIDTH 18 0
BBX 16 17 1 0
BITMAP
07E0
1FF8
381C
700E
E007
C003
C003
C003
C003
C003
6006
6006
300C
1C38
0E70
FE7F
FE7F
ENDCHAR
STARTCHAR Iotadieresis
ENCODING 938
SWIDTH 277 0
DWIDTH 6 0
BBX 7 20 0 0
BITMAP
C6
C6
00
30
30
30
30
30
30
30
30
30
30
30
30
30
30
30
30
30
ENDCHAR
STARTCHAR Upsilondieresis
ENCODING 939
SWIDTH 666 0
DWIDTH 16 0
BBX 16 20 0 0
BITMAP
0630
0630
0000
E007
6006
300C
381C
1C38
0C30
0660
07E0
03C0
0180
0180
0180
0180
0180
0180
0180
0180
ENDCHAR
STARTCHAR alphatonos
ENCODING 940
SWIDTH 578 0
DWIDTH 14 0
BBX 12 18 1 0
BITMAP
0300
0600
0600
0400
0000
1E30
7FB0
61F0
E0E0
C0E0
C060
C060
C060
C0E0
C0E0
61F0
7F30
3E30
ENDCHAR
STARTCHAR epsilontonos
ENCODING 941
SWIDTH 445 0
DWIDTH 11 0
BBX 10 18 1 0
BITMAP
0600
0C00
0C00
0800
0000
3F00
7F80
E1C0
C000
E000
7E00
7E00
E000
C000
C000
E1C0
7F80
3F00
ENDCHAR
STARTCHAR etatonos
ENCODING 942
SWIDTH 556 0
DWIDTH 14 0
BBX 10 23 2 -5
BITMAP
0300
0600
0600
0400
0000
CF00
DF80
E1C0
E0C0
C0C0
C0C0
C0C0
C0C0
C0C0
C0C0
C0C0
C0C0
C0C0
00C0
00C0
00C0
00C0
00C0
ENDCHAR
STARTCHAR iotatonos
ENCODING 943
SWIDTH 222 0
DWIDTH 6 0
BBX 3 18 2 0
BITMAP
60
C0
C0
80
00
C0
C0
C0
C0
C0
C0
C0
C0
C0
C0
C0
C0
E0
ENDCHAR
STARTCHAR upsilondieresistonos
ENCODING 944
SWIDTH 546 0
DWIDTH 14 0
BBX 11 19 2 0
BITMAP
0300
0300
0600
36C0
34C0
0000
C0C0
C0C0
C060
C060
C060
C060
C060
C060
C060
C0C0
E1C0
7F80
3F00
ENDCHAR
STARTCHAR alpha
ENCODING 945
SWIDTH 578 0
DWIDTH 14 0
BBX 12 13 1 0
BITMAP
1E30
7FB0
61F0
E0E0
C0E0
C060
C060
C060
C0E0
C0E0
61F0
7F30
3E30
ENDCHAR
STARTCHAR beta
ENCODING 946
SWIDTH 575 0
DWIDTH 14 0
BBX 11 22 2 -5
BITMAP
3F00
7F80
E1C0
C0C0
C0C0
C0C0
C180
C700
C780
C1C0
C060
C060
C060
C060
E0C0
FFC0
DF00
C000
C000
C000
C000
C000
ENDCHAR
STARTCHAR gamma
ENCODING 947
SWIDTH 500 0
DWIDTH 11 0
BBX 11 18 0 -5
BITMAP
C060
E060
60C0
60C0
70C0
3180
3180
3980
1B00
1B00
0B00
0E00
0E00
0C00
0C00
0C00
0C00
1C00
ENDCHAR
STARTCHAR delta
ENCODING 948
SWIDTH 556 0
DWIDTH 13 0
BBX 11 17 1 0
BITMAP
3FC0
3FC0
1800
0C00
0600
0F00
1F80
71C0
60C0
C060
C060
C060
C060
E060
70C0
7FC0
1F00
ENDCHAR
STARTCHAR epsilon
ENCODING 949
SWIDTH 445 0
DWIDTH 11 0
BBX 10 13 1 0
BITMAP
3F00
7F80
E1C0
C000
E000
7E00
7E00
E000
C000
C000
E1C0
7F80
3F00
ENDCHAR
STARTCHAR zeta
ENCODING 950
SWIDTH 440 0
DWIDTH 11 0
BBX 10 21 1 -4
BITMAP
7FC0
7FC0
0180
0300
0600
0C00
1800
3000
3000
6000
4000
C000
C000
C000
E000
7E00
1F80
01C0
00C0
00C0
0080
ENDCHAR
STARTCHAR eta
ENCODING 951
SWIDTH 556 0
DWIDTH 14 0
BBX 10 18 2 -5
BITMAP
CF00
DF80
E1C0
E0C0
C0C0
C0C0
C0C0
C0C0
C0C0
C0C0
C0C0
C0C0
C0C0
00C0
00C0
00C0
00C0
00C0
ENDCHAR
STARTCHAR theta
ENCODING 952
SWIDTH 556 0
DWIDTH 13 0
BBX 11 17 1 0
BITMAP
1F00
3F80
71C0
60C0
C060
C060
C060
FFE0
FFE0
C060
C060
C060
C060
60C0
71C0
3F80
1F00
ENDCHAR
STARTCHAR iota
ENCODING 953
SWIDTH 222 0
DWIDTH 6 0
BBX 3 13 2 0
BITMAP
C0
C0
C0
C0
C0
C0
C0
C0
C0
C0
C0
C0
E0
ENDCHAR
STARTCHAR kappa
ENCODING 954
SWIDTH 500 0
DWIDTH 12 0
BBX 10 13 2 0
BITMAP
C1C0
C380
C700
C600
CC00
D800
FC00
EC00
C600
C700
C300
C180
C1C0
ENDCHAR
STARTCHAR lambda
ENCODING 955
SWIDTH 500 0
DWIDTH 12 0
BBX 12 17 0 0
BITMAP
7800
7800
1C00
0E00
0600
0600
0700
0700
0D80
0D80
19C0
18C0
30C0
3060
6060
E070
C030
ENDCHAR
STARTCHAR mu
ENCODING 956
SWIDTH 576 0
DWIDTH 14 0
BBX 10 18 2 -5
BITMAP
C0C0
C0C0
C0C0
C0C0
C0C0
C0C0
C0C0
C0C0
C0C0
C1C0
E1C0
FEC0
DCC0
C000
C000
C000
C000
C000
ENDCHAR
STARTCHAR nu
ENCODING 957
SWIDTH 500 0
DWIDTH 11 0
BBX 10 13 0 0
BITMAP
C0C0
C0C0
60C0
60C0
60C0
60C0
3180
3180
3100
1B00
1E00
1E00
0C00
ENDCHAR
STARTCHAR xi
ENCODING 958
SWIDTH 447 0
DWIDTH 11 0
BBX 10 21 1 -4
BITMAP
7F80
7F80
0C00
3000
3000
3000
1C00
0F80
0F80
3C00
6000
C000
C000
C000
E000
7C00
1F80
01C0
00C0
00C0
0080
ENDCHAR
STARTCHAR omicron
ENCODING 959
SWIDTH 556 0
DWIDTH 13 0
BBX 11 13 1 0
BITMAP
1F00
7FC0
70C0
E0E0
C060
C060
C060
C060
C060
E0E0
60C0
3F80
1F00
ENDCHAR
STARTCHAR pi
ENCODING 960
SWIDTH 689 0
DWIDTH 17 0
BBX 15 13 1 0
BITMAP
FFFE
FFFE
1830
1830
1830
1830
1830
1830
1830
3830
3030
303C
301C
ENDCHAR
STARTCHAR rho
ENCODING 961
SWIDTH 568 0
DWIDTH 14 0
BBX 11 18 2 -5
BITMAP
1F00
3F80
61C0
C0C0
C060
C060
C060
C060
C060
C0E0
E1C0
FF80
DF00
C000
C000
C000
C000
C000
ENDCHAR
STARTCHAR sigma1
ENCODING 962
SWIDTH 481 0
DWIDTH 12 0
BBX 11 17 1 -4
BITMAP
0F80
3FE0
3080
6000
6000
C000
C000
C000
C000
E000
7000
3F00
0FC0
00E0
0060
0060
0040
ENDCHAR
STARTCHAR sigma
ENCODING 963
SWIDTH 617 0
DWIDTH 15 0
BBX 14 13 1 0
BITMAP
0FFC
3FFC
7060
6060
C030
C030
C030
C030
C030
E070
70E0
3FC0
1F80
ENDCHAR
STARTCHAR tau
ENCODING 964
SWIDTH 395 0
DWIDTH 9 0
BBX 9 13 0 0
BITMAP
FF80
FF80
1800
1800
1800
1800
1800
1800
1800
1800
1800
1E00
0E00
ENDCHAR
STARTCHAR upsilon
ENCODING 965
SWIDTH 546 0
DWIDTH 14 0
BBX 11 13 2 0
BITMAP
C0C0
C0C0
C060
C060
C060
C060
C060
C060
C060
C0C0
E1C0
7F80
3F00
ENDCHAR
STARTCHAR phi
ENCODING 966
SWIDTH 648 0
DWIDTH 16 0
BBX 14 18 1 -5
BITMAP
18F0
39F8
7398
630C
C30C
C30C
C30C
C30C
C30C
E318
7338
3FF0
1FC0
0300
0300
0300
0300
0300
ENDCHAR
STARTCHAR chi
ENCODING 967
SWIDTH 524 0
DWIDTH 13 0
BBX 13 18 0 -5
BITMAP
E038
F030
3860
1860
1CC0
0DC0
0780
0700
0700
0780
0D80
0DC0
18C0
38E0
3060
6030
6030
C018
ENDCHAR
STARTCHAR psi
ENCODING 968
SWIDTH 712 0
DWIDTH 18 0
BBX 14 21 2 -5
BITMAP
0300
0300
0300
C30C
C30C
C30C
C30C
C30C
C30C
C30C
C30C
C30C
C30C
6318
7FF8
1FE0
0300
0300
0300
0300
0300
ENDCHAR
STARTCHAR omega
ENCODING 969
SWIDTH 780 0
DWIDTH 18 0
BBX 16 13 1 0
BITMAP
1818
381C
700E
6006
C183
C183
C183
C183
C183
C183
63C6
7E7E
3C3C
ENDCHAR
STARTCHAR iotadieresis
ENCODING 970
SWIDTH 222 0
DWIDTH 6 0
BBX 7 17 0 0
BITMAP
C6
C6
00
00
30
30
30
30
30
30
30
30
30
30
30
30
38
ENDCHAR
STARTCHAR upsilondieresis
ENCODING 971
SWIDTH 546 0
DWIDTH 14 0
BBX 11 17 2 0
BITMAP
3180
3180
0000
0000
C0C0
C0C0
C060
C060
C060
C060
C060
C060
C060
C0C0
E1C0
7F80
3F00
ENDCHAR
STARTCHAR omicrontonos
ENCODING 972
SWIDTH 556 0
DWIDTH 13 0
BBX 11 18 1 0
BITMAP
0300
0600
0600
0400
0000
1F00
7FC0
70C0
E0E0
C060
C060
C060
C060
C060
E0E0
60C0
3F80
1F00
ENDCHAR
STARTCHAR upsilontonos
ENCODING 973
SWIDTH 546 0
DWIDTH 14 0
BBX 11 18 2 0
BITMAP
0600
0C00
0C00
0800
0000
C0C0
C0C0
C060
C060
C060
C060
C060
C060
C060
C0C0
E1C0
7F80
3F00
ENDCHAR
STARTCHAR omegatonos
ENCODING 974
SWIDTH 780 0
DWIDTH 18 0
BBX 16 18 1 0
BITMAP
00C0
0180
0180
0100
0000
1818
381C
700E
6006
C183
C183
C183
C183
C183
C183
63C6
7E7E
3C3C
ENDCHAR
STARTCHAR afii10023
ENCODING 1025
SWIDTH 667 0
DWIDTH 16 0
BBX 13 20 2 0
BITMAP
18C0
18C0
0000
FFF8
FFF8
C000
C000
C000
C000
C000
FFF0
FFF0
C000
C000
C000
C000
C000
C000
FFF8
FFF8
ENDCHAR
STARTCHAR afii10051
ENCODING 1026
SWIDTH 864 0
DWIDTH 21 0
BBX 19 17 0 0
BITMAP
FFFC00
FFFC00
030000
030000
030000
037F80
03FFC0
0380E0
030060
030060
030060
030060
030060
030060
0308E0
031FC0
030F80
ENDCHAR
STARTCHAR afii10052
ENCODING 1027
SWIDTH 541 0
DWIDTH 13 0
BBX 10 21 2 0
BITMAP
0700
0C00
1800
0000
FFC0
FFC0
C000
C000
C000
C000
C000
C000
C000
C000
C000
C000
C000
C000
C000
C000
C000
ENDCHAR
STARTCHAR afii10053
ENCODING 1028
SWIDTH 718 0
DWIDTH 17 0
BBX 15 17 1 0
BITMAP
07E0
1FF8
383C
700C
600C
C000
C000
FFC0
FFC0
C000
C000
E000
6004
700E
383C
1FF8
07E0
ENDCHAR
STARTCHAR afii10054
ENCODING 1029
SWIDTH 666 0
DWIDTH 16 0
BBX 14 17 1 0
BITMAP
0FE0
3FF8
7038
600C
6000
6000
3800
3F80
0FF0
00F8
001C
000C
400C
E00C
7038
3FF0
1FE0
ENDCHAR
STARTCHAR afii10055
ENCODING 1030
SWIDTH 277 0
DWIDTH 6 0
BBX 2 17 2 0
BITMAP
C0
C0
C0
C0
C0
C0
C0
C0
C0
C0
C0
C0
C0
C0
C0
C0
C0
ENDCHAR
STARTCHAR afii10056
ENCODING 1031
SWIDTH 277 0
DWIDTH 6 0
BBX 7 20 0 0
BITMAP
C6
C6
00
30
30
30
30
30
30
30
30
30
30
30
30
30
30
30
30
30
ENDCHAR
STARTCHAR afii10057
ENCODING 1032
SWIDTH 500 0
DWIDTH 12 0
BBX 10 17 0 0
BITMAP
0FC0
0FC0
00C0
00C0
00C0
00C0
00C0
00C0
00C0
00C0
00C0
00C0
C0C0
E0C0
7180
7F80
1E00
ENDCHAR
STARTCHAR afii10058
ENCODING 1033
SWIDTH 1057 0
DWIDTH 25 0
BBX 24 17 0 0
BITMAP
07FC00
0FFC00
0C0C00
0C0C00
0C0C00
0C0C00
0C0C00
0C0FF8
1C0FFE
180C06
180C03
180C03
180C03
380C03
300C06
F00FFE
E00FF8
ENDCHAR
STARTCHAR afii10059
ENCODING 1034
SWIDTH 1010 0
DWIDTH 24 0
BBX 21 17 2 0
BITMAP
C06000
C06000
C06000
C06000
C06000
C06000
C06000
FFFFC0
FFFFF0
C06030
C06018
C06018
C06018
C06018
C06030
C07FF0
C07FC0
ENDCHAR
STARTCHAR afii10060
ENCODING 1035
SWIDTH 854 0
DWIDTH 22 0
BBX 18 17 0 0
BITMAP
FFFC00
FFFC00
030000
030000
030000
037F00
03FF80
0301C0
0300C0
0300C0
0300C0
0300C0
0300C0
0300C0
0300C0
0300C0
0300C0
ENDCHAR
STARTCHAR afii10061
ENCODING 1036
SWIDTH 582 0
DWIDTH 14 0
BBX 12 21 2 0
BITMAP
0380
0600
0C00
0000
C070
C060
C0C0
C1C0
C380
C700
CE00
FC00
F600
C600
C300
C380
C180
C0C0
C0E0
C060
C070
ENDCHAR
STARTCHAR afii10062
ENCODING 1038
SWIDTH 635 0
DWIDTH 15 0
BBX 14 22 1 0
BITMAP
1830
1830
0C60
07C0
0000
E00C
6018
7018
3030
3830
1860
0C60
0CC0
06C0
0780
0380
0300
0300
0600
0E00
FC00
7800
ENDCHAR
STARTCHAR afii10145
ENCODING 1039
SWIDTH 718 0
DWIDTH 17 0
BBX 13 22 2 -5
BITMAP
C018
C018
C018
C018
C018
C018
C018
C018
C018
C018
C018
C018
C018
C018
C018
FFF8
FFF8
0300
0300
0300
0300
0300
ENDCHAR
STARTCHAR afii10017
ENCODING 1040
SWIDTH 666 0
DWIDTH 15 0
BBX 15 17 0 0
BITMAP
0380
0380
02C0
06C0
06C0
0C60
0C60
0820
1830
1830
3FF8
3FF8
3018
600C
600C
600C
C006
ENDCHAR
STARTCHAR afii10018
ENCODING 1041
SWIDTH 656 0
DWIDTH 16 0
BBX 13 17 2 0
BITMAP
FFE0
FFE0
C000
C000
C000
C000
C000
FFC0
FFF0
C070
C018
C018
C018
C018
C070
FFF0
FFC0
ENDCHAR
STARTCHAR afii10019
ENCODING 1042
SWIDTH 666 0
DWIDTH 16 0
BBX 13 17 2 0
BITMAP
FFC0
FFE0
C070
C030
C030
C030
C060
FFC0
FFE0
C070
C018
C018
C018
C018
C030
FFF0
FFC0
ENDCHAR
STARTCHAR afii10020
ENCODING 1043
SWIDTH 541 0
DWIDTH 13 0
BBX 10 17 2 0
BITMAP
FFC0
FFC0
C000
C000
C000
C000
C000
C000
C000
C000
C000
C000
C000
C000
C000
C000
C000
ENDCHAR
STARTCHAR afii10021
ENCODING 1044
SWIDTH 677 0
DWIDTH 16 0
BBX 16 22 0 -5
BITMAP
07FC
07FC
060C
060C
060C
0C0C
0C0C
0C0C
0C0C
0C0C
0C0C
180C
180C
180C
300C
FFFF
FFFF
C003
C003
C003
C003
C003
ENDCHAR
STARTCHAR afii10022
ENCODING 1045
SWIDTH 666 0
DWIDTH 16 0
BBX 13 17 2 0
BITMAP
FFF8
FFF8
C000
C000
C000
C000
C000
FFF0
FFF0
C000
C000
C000
C000
C000
C000
FFF8
FFF8
ENDCHAR
STARTCHAR afii10024
ENCODING 1046
SWIDTH 923 0
DWIDTH 22 0
BBX 22 17 0 0
BITMAP
E0301C
703038
303030
183060
0C30C0
0E31C0
073380
03FF00
07FF80
0E3180
0C30C0
1C30E0
183060
383070
703038
603018
E0301C
ENDCHAR
STARTCHAR afii10025
ENCODING 1047
SWIDTH 604 0
DWIDTH 15 0
BBX 13 17 1 0
BITMAP
0FC0
3FF0
7838
E018
6018
0018
0070
07E0
07E0
0070
0018
0018
4018
E018
7070
3FE0
0FC0
ENDCHAR
STARTCHAR afii10026
ENCODING 1048
SWIDTH 718 0
DWIDTH 17 0
BBX 13 17 2 0
BITMAP
C038
C078
C078
C0F8
C0D8
C198
C198
C318
C718
C618
CC18
CC18
D818
F818
F018
F018
E018
ENDCHAR
STARTCHAR afii10027
ENCODING 1049
SWIDTH 718 0
DWIDTH 17 0
BBX 13 22 2 0
BITMAP
3060
3060
18C0
0F80
0000
C038
C078
C078
C0F8
C0D8
C198
C198
C318
C718
C618
CC18
CC18
D818
F818
F018
F018
E018
ENDCHAR
STARTCHAR afii10028
ENCODING 1050
SWIDTH 582 0
DWIDTH 14 0
BBX 12 17 2 0
BITMAP
C070
C060
C0C0
C1C0
C380
C700
CE00
FC00
F600
C600
C300
C380
C180
C0C0
C0E0
C060
C070
ENDCHAR
STARTCHAR afii10029
ENCODING 1051
SWIDTH 656 0
DWIDTH 16 0
BBX 14 17 0 0
BITMAP
07FC
0FFC
0C0C
0C0C
0C0C
0C0C
0C0C
0C0C
1C0C
180C
180C
180C
180C
380C
300C
F00C
E00C
ENDCHAR
STARTCHAR afii10030
ENCODING 1052
SWIDTH 833 0
DWIDTH 19 0
BBX 15 17 2 0
BITMAP
E00E
E00E
E00E
F01E
F01E
D016
D836
D836
CC66
CC66
CC66
C6C6
C6C6
C6C6
C386
C386
C386
ENDCHAR
STARTCHAR afii10031
ENCODING 1053
SWIDTH 722 0
DWIDTH 17 0
BBX 13 17 2 0
BITMAP
C018
C018
C018
C018
C018
C018
C018
FFF8
FFF8
C018
C018
C018
C018
C018
C018
C018
C018
ENDCHAR
STARTCHAR afii10032
ENCODING 1054
SWIDTH 777 0
DWIDTH 19 0
BBX 17 17 1 0
BITMAP
07F000
1FFC00
3C1E00
700700
600300
E00380
C00180
C00180
C00180
C00180
C00180
E00380
600300
700700
3C1E00
1FFC00
07F000
ENDCHAR
STARTCHAR afii10033
ENCODING 1055
SWIDTH 718 0
DWIDTH 17 0
BBX 13 17 2 0
BITMAP
FFF8
FFF8
C018
C018
C018
C018
C018
C018
C018
C018
C018
C018
C018
C018
C018
C018
C018
ENDCHAR
STARTCHAR afii10034
ENCODING 1056
SWIDTH 666 0
DWIDTH 16 0
BBX 12 17 2 0
BITMAP
FF80
FFE0
C060
C030
C030
C030
C030
C060
FFE0
FF80
C000
C000
C000
C000
C000
C000
C000
ENDCHAR
STARTCHAR afii10035
ENCODING 1057
SWIDTH 722 0
DWIDTH 17 0
BBX 15 17 1 0
BITMAP
07E0
1FF8
383C
700C
600C
C000
C000
C000
C000
C000
C000
E000
6004
700E
383C
1FF8
07E0
ENDCHAR
STARTCHAR afii10036
ENCODING 1058
SWIDTH 610 0
DWIDTH 14 0
BBX 12 17 1 0
BITMAP
FFF0
FFF0
0600
0600
0600
0600
0600
0600
0600
0600
0600
0600
0600
0600
0600
0600
0600
ENDCHAR
STARTCHAR afii10037
ENCODING 1059
SWIDTH 635 0
DWIDTH 15 0
BBX 14 17 1 0
BITMAP
E00C
6018
7018
3030
3830
1860
0C60
0CC0
06C0
0780
0380
0300
0300
0600
0E00
FC00
7800
ENDCHAR
STARTCHAR afii10038
ENCODING 1060
SWIDTH 760 0
DWIDTH 18 0
BBX 16 17 1 0
BITMAP
0180
0180
1FF8
3FFC
718E
E187
C183
C183
C183
C183
E186
718E
3FFC
0FF0
0180
0180
0180
ENDCHAR
STARTCHAR afii10039
ENCODING 1061
SWIDTH 666 0
DWIDTH 15 0
BBX 15 17 0 0
BITMAP
E00E
701C
3018
1830
1C70
0EE0
06C0
0380
0380
07C0
0EE0
0C60
1830
3838
3018
600C
E00E
ENDCHAR
STARTCHAR afii10040
ENCODING 1062
SWIDTH 739 0
DWIDTH 18 0
BBX 15 22 2 -5
BITMAP
C018
C018
C018
C018
C018
C018
C018
C018
C018
C018
C018
C018
C018
C018
C018
FFFE
FFFE
0006
0006
0006
0006
0006
ENDCHAR
STARTCHAR afii10041
ENCODING 1063
SWIDTH 666 0
DWIDTH 16 0
BBX 12 17 2 0
BITMAP
C030
C030
C030
C030
C030
C030
C030
C030
C030
E030
7FF0
3FB0
0030
0030
0030
0030
0030
ENDCHAR
STARTCHAR afii10042
ENCODING 1064
SWIDTH 916 0
DWIDTH 22 0
BBX 18 17 2 0
BITMAP
C0C0C0
C0C0C0
C0C0C0
C0C0C0
C0C0C0
C0C0C0
C0C0C0
C0C0C0
C0C0C0
C0C0C0
C0C0C0
C0C0C0
C0C0C0
C0C0C0
C0C0C0
FFFFC0
FFFFC0
ENDCHAR
STARTCHAR afii10043
ENCODING 1065
SWIDTH 937 0
DWIDTH 23 0
BBX 20 22 2 -5
BITMAP
C0C0C0
C0C0C0
C0C0C0
C0C0C0
C0C0C0
C0C0C0
C0C0C0
C0C0C0
C0C0C0
C0C0C0
C0C0C0
C0C0C0
C0C0C0
C0C0C0
C0C0C0
FFFFF0
FFFFF0
000030
000030
000030
000030
000030
ENDCHAR
STARTCHAR afii10044
ENCODING 1066
SWIDTH 791 0
DWIDTH 19 0
BBX 18 17 0 0
BITMAP
FF0000
FF0000
030000
030000
030000
030000
030000
03FE00
03FF80
030380
0300C0
0300C0
0300C0
0300C0
030180
03FF80
03FE00
ENDCHAR
STARTCHAR afii10045
ENCODING 1067
SWIDTH 885 0
DWIDTH 21 0
BBX 17 17 2 0
BITMAP
C00180
C00180
C00180
C00180
C00180
C00180
C00180
FF8180
FFE180
C06180
C03180
C03180
C03180
C03180
C06180
FFE180
FF8180
ENDCHAR
STARTCHAR afii10046
ENCODING 1068
SWIDTH 656 0
DWIDTH 16 0
BBX 13 17 2 0
BITMAP
C000
C000
C000
C000
C000
C000
C000
FFC0
FFF0
C070
C018
C018
C018
C018
C030
FFF0
FFC0
ENDCHAR
STARTCHAR afii10047
ENCODING 1069
SWIDTH 718 0
DWIDTH 17 0
BBX 15 17 1 0
BITMAP
0FC0
3FF0
7838
E01C
600C
0006
0006
07FE
07FE
0006
0006
000E
400C
E01C
7838
3FF0
0FC0
ENDCHAR
STARTCHAR afii10048
ENCODING 1070
SWIDTH 1010 0
DWIDTH 24 0
BBX 21 17 2 0
BITMAP
C03F00
C07FC0
C0E0E0
C1C070
C18030
C30018
C30018
FF0018
FF0018
C30018
C30018
C30018
C18030
C1C070
C0E0E0
C07FC0
C03F00
ENDCHAR
STARTCHAR afii10049
ENCODING 1071
SWIDTH 722 0
DWIDTH 17 0
BBX 14 17 1 0
BITMAP
0FFC
3FFC
300C
600C
600C
600C
600C
300C
3FFC
0FFC
0E0C
0C0C
180C
380C
300C
700C
E00C
ENDCHAR
STARTCHAR afii10065
ENCODING 1072
SWIDTH 556 0
DWIDTH 13 0
BBX 12 13 1 0
BITMAP
3F00
7F80
E1C0
C0C0
00C0
3FC0
7FC0
E0C0
C0C0
C1C0
E3C0
7EF0
3C70
ENDCHAR
STARTCHAR afii10066
ENCODING 1073
SWIDTH 572 0
DWIDTH 14 0
BBX 12 18 1 0
BITMAP
0020
07E0
1F80
3800
6000
6000
4F80
5FE0
F060
E060
E070
E030
E030
6070
6060
6060
39C0
1F80
ENDCHAR
STARTCHAR afii10067
ENCODING 1074
SWIDTH 531 0
DWIDTH 13 0
BBX 10 13 2 0
BITMAP
FF00
FFC0
C1C0
C0C0
C0C0
FF00
FF80
C1C0
C0C0
C0C0
C1C0
FF80
FF00
ENDCHAR
STARTCHAR afii10068
ENCODING 1075
SWIDTH 364 0
DWIDTH 9 0
BBX 7 13 2 0
BITMAP
FE
FE
C0
C0
C0
C0
C0
C0
C0
C0
C0
C0
C0
ENDCHAR
STARTCHAR afii10069
ENCODING 1076
SWIDTH 583 0
DWIDTH 14 0
BBX 13 18 0 -5
BITMAP
0FF0
0FF0
0C30
0C30
1C30
1830
1830
1830
3830
3030
3030
FFF8
FFF8
C018
C018
C018
C018
C018
ENDCHAR
STARTCHAR afii10070
ENCODING 1077
SWIDTH 556 0
DWIDTH 13 0
BBX 11 13 1 0
BITMAP
1F00
3F80
60C0
C060
C060
FFE0
FFE0
C000
C000
E060
70E0
3FC0
1F80
ENDCHAR
STARTCHAR afii10072
ENCODING 1078
SWIDTH 668 0
DWIDTH 16 0
BBX 16 13 0 0
BITMAP
C183
6186
318C
399C
1DB8
0FF0
1FF8
1998
399C
318C
6186
6186
C183
ENDCHAR
STARTCHAR afii10073
ENCODING 1079
SWIDTH 458 0
DWIDTH 11 0
BBX 9 13 1 0
BITMAP
3E00
7F00
E380
C180
0380
1F00
1F00
0380
0180
C180
E380
7F00
3E00
ENDCHAR
STARTCHAR afii10074
ENCODING 1080
SWIDTH 558 0
DWIDTH 13 0
BBX 9 13 2 0
BITMAP
C380
C380
C380
C780
C580
CD80
C980
D980
D180
F180
E180
E180
C180
ENDCHAR
STARTCHAR afii10075
ENCODING 1081
SWIDTH 558 0
DWIDTH 13 0
BBX 9 18 2 0
BITMAP
C180
C180
6300
3E00
0000
C380
C380
C380
C780
C580
CD80
C980
D980
D180
F180
E180
E180
C180
ENDCHAR
STARTCHAR afii10076
ENCODING 1082
SWIDTH 437 0
DWIDTH 11 0
BBX 9 13 2 0
BITMAP
C180
C300
C600
CE00
DC00
F800
F800
CC00
CE00
C600
C300
C300
C180
ENDCHAR
STARTCHAR afii10077
ENCODING 1083
SWIDTH 583 0
DWIDTH 14 0
BBX 12 13 0 0
BITMAP
0FF0
0FF0
1830
1830
1830
1830
1830
1830
3830
3030
3030
F030
E030
ENDCHAR
STARTCHAR afii10078
ENCODING 1084
SWIDTH 687 0
DWIDTH 17 0
BBX 13 13 2 0
BITMAP
E038
F078
F078
D058
D8D8
D8D8
C8D8
CD98
CD98
CD98
C518
C718
C718
ENDCHAR
STARTCHAR afii10079
ENCODING 1085
SWIDTH 552 0
DWIDTH 13 0
BBX 9 13 2 0
BITMAP
C180
C180
C180
C180
C180
FF80
FF80
C180
C180
C180
C180
C180
C180
ENDCHAR
STARTCHAR afii10080
ENCODING 1086
SWIDTH 556 0
DWIDTH 13 0
BBX 11 13 1 0
BITMAP
1F00
7FC0
70C0
E0E0
C060
C060
C060
C060
C060
E0E0
60C0
3F80
1F00
ENDCHAR
STARTCHAR afii10081
ENCODING 1087
SWIDTH 541 0
DWIDTH 13 0
BBX 9 13 2 0
BITMAP
FF80
FF80
C180
C180
C180
C180
C180
C180
C180
C180
C180
C180
C180
ENDCHAR
STARTCHAR afii10082
ENCODING 1088
SWIDTH 556 0
DWIDTH 14 0
BBX 11 18 2 -5
BITMAP
CF80
DFC0
F0C0
E0E0
C060
C060
C060
C060
C060
E0E0
F0C0
DFC0
CF00
C000
C000
C000
C000
C000
ENDCHAR
STARTCHAR afii10083
ENCODING 1089
SWIDTH 500 0
DWIDTH 12 0
BBX 10 13 1 0
BITMAP
1F00
3F80
61C0
C0C0
C000
C000
C000
C000
C000
E0C0
61C0
7F80
1F00
ENDCHAR
STARTCHAR afii10084
ENCODING 1090
SWIDTH 458 0
DWIDTH 11 0
BBX 10 13 0 0
BITMAP
FFC0
FFC0
0C00
0C00
0C00
0C00
0C00
0C00
0C00
0C00
0C00
0C00
0C00
ENDCHAR
STARTCHAR afii10085
ENCODING 1091
SWIDTH 500 0
DWIDTH 12 0
BBX 12 18 0 -5
BITMAP
C030
E070
6060
6060
30C0
30C0
38C0
1980
1980
0F00
0F00
0F00
0600
0600
0C00
1C00
7800
7000
ENDCHAR
STARTCHAR afii10086
ENCODING 1092
SWIDTH 822 0
DWIDTH 20 0
BBX 18 22 1 -5
BITMAP
00C000
00C000
00C000
00C000
3CCF00
7EDF80
61E180
C1E1C0
C0C0C0
C0C0C0
C0C0C0
C0C0C0
C0C0C0
C1C0C0
61E180
7EDF80
3CCF00
00C000
00C000
00C000
00C000
00C000
ENDCHAR
STARTCHAR afii10087
ENCODING 1093
SWIDTH 500 0
DWIDTH 11 0
BBX 11 13 0 0
BITMAP
C060
60C0
3180
3180
1B00
0E00
0E00
1F00
1B00
3180
71C0
60C0
C060
ENDCHAR
STARTCHAR afii10088
ENCODING 1094
SWIDTH 572 0
DWIDTH 14 0
BBX 12 18 2 -5
BITMAP
C0C0
C0C0
C0C0
C0C0
C0C0
C0C0
C0C0
C0C0
C0C0
C0C0
C0C0
FFF0
FFF0
0030
0030
0030
0030
0030
ENDCHAR
STARTCHAR afii10089
ENCODING 1095
SWIDTH 520 0
DWIDTH 13 0
BBX 10 13 1 0
BITMAP
C0C0
C0C0
C0C0
C0C0
C0C0
C0C0
E0C0
7FC0
7CC0
00C0
00C0
00C0
00C0
ENDCHAR
STARTCHAR afii10090
ENCODING 1096
SWIDTH 802 0
DWIDTH 19 0
BBX 16 13 2 0
BITMAP
C183
C183
C183
C183
C183
C183
C183
C183
C183
C183
C183
FFFF
FFFF
ENDCHAR
STARTCHAR afii10091
ENCODING 1097
SWIDTH 822 0
DWIDTH 20 0
BBX 18 18 2 -5
BITMAP
C18300
C18300
C18300
C18300
C18300
C18300
C18300
C18300
C18300
C18300
C18300
FFFFC0
FFFFC0
0000C0
0000C0
0000C0
0000C0
0000C0
ENDCHAR
STARTCHAR afii10092
ENCODING 1098
SWIDTH 625 0
DWIDTH 15 0
BBX 14 13 0 0
BITMAP
FC00
FC00
0C00
0C00
0C00
0FF0
0FF8
0C1C
0C0C
0C0C
0C1C
0FF8
0FF0
ENDCHAR
STARTCHAR afii10093
ENCODING 1099
SWIDTH 718 0
DWIDTH 17 0
BBX 13 13 2 0
BITMAP
C018
C018
C018
C018
C018
FE18
FF18
C398
C198
C198
C398
FF18
FE18
ENDCHAR
STARTCHAR afii10094
ENCODING 1100
SWIDTH 520 0
DWIDTH 13 0
BBX 10 13 2 0
BITMAP
C000
C000
C000
C000
C000
FF00
FF80
C1C0
C0C0
C0C0
C1C0
FF80
FF00
ENDCHAR
STARTCHAR afii10095
ENCODING 1101
SWIDTH 510 0
DWIDTH 12 0
BBX 10 13 1 0
BITMAP
3E00
7F00
E180
C0C0
00C0
1FC0
1FC0
00C0
00C0
C1C0
E180
7F00
3E00
ENDCHAR
STARTCHAR afii10096
ENCODING 1102
SWIDTH 750 0
DWIDTH 18 0
BBX 15 13 2 0
BITMAP
C1F0
C3FC
C30C
C606
C606
FE06
FE06
C606
C606
C70E
C30C
C3FC
C0F0
ENDCHAR
STARTCHAR afii10097
ENCODING 1103
SWIDTH 541 0
DWIDTH 13 0
BBX 11 13 0 0
BITMAP
1FE0
3FE0
7060
6060
6060
7060
3FE0
1FE0
1C60
1860
3060
6060
E060
ENDCHAR
STARTCHAR afii10071
ENCODING 1105
SWIDTH 556 0
DWIDTH 13 0
BBX 11 17 1 0
BITMAP
3180
3180
0000
0000
1F00
3F80
60C0
C060
C060
FFE0
FFE0
C000
C000
E060
70E0
3FC0
1F80
ENDCHAR
STARTCHAR afii10099
ENCODING 1106
SWIDTH 556 0
DWIDTH 14 0
BBX 12 22 0 -5
BITMAP
3000
FF00
FF00
3000
33C0
37E0
3C70
3830
3030
3030
3030
3030
3030
3030
3030
3030
3030
0030
0030
0030
00F0
00E0
ENDCHAR
STARTCHAR afii10100
ENCODING 1107
SWIDTH 364 0
DWIDTH 9 0
BBX 7 18 2 0
BITMAP
0E
0C
18
30
00
FE
FE
C0
C0
C0
C0
C0
C0
C0
C0
C0
C0
C0
ENDCHAR
STARTCHAR afii10101
ENCODING 1108
SWIDTH 510 0
DWIDTH 12 0
BBX 10 13 1 0
BITMAP
1F00
3F80
61C0
C0C0
C000
FE00
FE00
C000
C000
E0C0
61C0
7F80
1F00
ENDCHAR
STARTCHAR afii10102
ENCODING 1109
SWIDTH 500 0
DWIDTH 12 0
BBX 10 13 1 0
BITMAP
3F00
7F80
C1C0
C0C0
E000
7C00
3F00
0380
00C0
C0C0
E1C0
7F80
3F00
ENDCHAR
STARTCHAR afii10103
ENCODING 1110
SWIDTH 222 0
DWIDTH 5 0
BBX 2 17 1 0
BITMAP
C0
C0
00
00
C0
C0
C0
C0
C0
C0
C0
C0
C0
C0
C0
C0
C0
ENDCHAR
STARTCHAR afii10104
ENCODING 1111
SWIDTH 277 0
DWIDTH 6 0
BBX 7 17 0 0
BITMAP
C6
C6
00
00
30
30
30
30
30
30
30
30
30
30
30
30
30
ENDCHAR
STARTCHAR afii10105
ENCODING 1112
SWIDTH 222 0
DWIDTH 6 0
BBX 4 22 0 -5
BITMAP
30
30
00
00
30
30
30
30
30
30
30
30
30
30
30
30
30
30
30
30
F0
E0
ENDCHAR
STARTCHAR afii10106
ENCODING 1113
SWIDTH 906 0
DWIDTH 22 0
BBX 21 13 0 0
BITMAP
07F800
07F800
0E1800
0C1800
0C1800
0C1FE0
0C1FF0
181838
181818
181818
301838
F01FF0
E01FE0
ENDCHAR
STARTCHAR afii10107
ENCODING 1114
SWIDTH 812 0
DWIDTH 20 0
BBX 17 13 2 0
BITMAP
C18000
C18000
C18000
C18000
C18000
FFFE00
FFFF00
C18380
C18180
C18180
C18380
C1FF00
C1FE00
ENDCHAR
STARTCHAR afii10108
ENCODING 1115
SWIDTH 556 0
DWIDTH 14 0
BBX 12 17 0 0
BITMAP
3000
FF00
FF00
3000
33C0
37E0
3C70
3830
3030
3030
3030
3030
3030
3030
3030
3030
3030
ENDCHAR
STARTCHAR afii10109
ENCODING 1116
SWIDTH 437 0
DWIDTH 11 0
BBX 9 18 2 0
BITMAP
0700
0600
0C00
1800
0000
C180
C300
C600
CE00
DC00
F800
F800
CC00
CE00
C600
C300
C300
C180
ENDCHAR
STARTCHAR afii10110
ENCODING 1118
SWIDTH 500 0
DWIDTH 12 0
BBX 12 23 0 -5
BITMAP
3060
3060
18C0
0F80
0000
C030
E070
6060
6060
30C0
30C0
38C0
1980
1980
0F00
0F00
0F00
0600
0600
0C00
1C00
7800
7000
ENDCHAR
STARTCHAR afii10193
ENCODING 1119
SWIDTH 552 0
DWIDTH 13 0
BBX 9 18 2 -5
BITMAP
C180
C180
C180
C180
C180
C180
C180
C180
C180
C180
C180
FF80
FF80
0C00
0C00
0C00
0C00
0C00
ENDCHAR
STARTCHAR afii10050
ENCODING 1168
SWIDTH 488 0
DWIDTH 12 0
BBX 9 22 2 0
BITMAP
0180
0180
0180
0180
0180
FF80
FF80
C000
C000
C000
C000
C000
C000
C000
C000
C000
C000
C000
C000
C000
C000
C000
ENDCHAR
STARTCHAR afii10098
ENCODING 1169
SWIDTH 411 0
DWIDTH 10 0
BBX 7 17 2 0
BITMAP
06
06
06
06
FE
FE
C0
C0
C0
C0
C0
C0
C0
C0
C0
C0
C0
ENDCHAR
STARTCHAR Wgrave
ENCODING 7808
SWIDTH 943 0
DWIDTH 23 0
BBX 23 21 0 0
BITMAP
00E000
003000
001800
000000
C01006
E0380E
60380C
60280C
606C0C
306C18
306C18
30C418
18C630
18C630
188230
0D8360
0D8360
0D8360
050140
0701C0
0701C0
ENDCHAR
STARTCHAR wgrave
ENCODING 7809
SWIDTH 722 0
DWIDTH 17 0
BBX 17 18 0 0
BITMAP
070000
030000
018000
00C000
000000
C1C180
C1C180
C14180
636300
636300
636300
222200
363600
363600
363600
141400
1C1C00
1C1C00
ENDCHAR
STARTCHAR Wacute
ENCODING 7810
SWIDTH 943 0
DWIDTH 23 0
BBX 23 21 0 0
BITMAP
000E00
001800
003000
000000
C01006
E0380E
60380C
60280C
606C0C
306C18
306C18
30C418
18C630
18C630
188230
0D8360
0D8360
0D8360
050140
0701C0
0701C0
ENDCHAR
STARTCHAR wacute
ENCODING 7811
SWIDTH 722 0
DWIDTH 17 0
BBX 17 18 0 0
BITMAP
007000
006000
00C000
018000
000000
C1C180
C1C180
C14180
636300
636300
636300
222200
363600
363600
363600
141400
1C1C00
1C1C00
ENDCHAR
STARTCHAR Wdieresis
ENCODING 7812
SWIDTH 943 0
DWIDTH 23 0
BBX 23 20 0 0
BITMAP
00C600
00C600
000000
C01006
E0380E
60380C
60280C
606C0C
306C18
306C18
30C418
18C630
18C630
188230
0D8360
0D8360
0D8360
050140
0701C0
0701C0
ENDCHAR
STARTCHAR wdieresis
ENCODING 7813
SWIDTH 722 0
DWIDTH 17 0
BBX 17 17 0 0
BITMAP
063000
063000
000000
000000
C1C180
C1C180
C14180
636300
636300
636300
222200
363600
363600
363600
141400
1C1C00
1C1C00
ENDCHAR
STARTCHAR Ygrave
ENCODING 7922
SWIDTH 666 0
DWIDTH 16 0
BBX 16 21 0 0
BITMAP
0700
0180
00C0
0000
E007
700E
300C
381C
1C38
0C30
0660
07E0
03C0
0180
0180
0180
0180
0180
0180
0180
0180
ENDCHAR
STARTCHAR ygrave
ENCODING 7923
SWIDTH 500 0
DWIDTH 12 0
BBX 12 23 0 -5
BITMAP
3800
1800
0C00
0600
0000
C030
E070
6060
6060
30C0
30C0
38C0
1980
1980
0F00
0F00
0F00
0600
0600
0C00
1C00
7800
7000
ENDCHAR
STARTCHAR uni2010
ENCODING 8208
SWIDTH 333 0
DWIDTH 8 0
BBX 6 2 1 5
BITMAP
FC
FC
ENDCHAR
STARTCHAR uni2011
ENCODING 8209
SWIDTH 333 0
DWIDTH 8 0
BBX 6 2 1 5
BITMAP
FC
FC
ENDCHAR
STARTCHAR figuredash
ENCODING 8210
SWIDTH 333 0
DWIDTH 8 0
BBX 6 2 1 5
BITMAP
FC
FC
ENDCHAR
STARTCHAR endash
ENCODING 8211
SWIDTH 556 0
DWIDTH 13 0
BBX 13 2 0 5
BITMAP
FFF8
FFF8
ENDCHAR
STARTCHAR emdash
ENCODING 8212
SWIDTH 1000 0
DWIDTH 24 0
BBX 24 2 0 5
BITMAP
FFFFFF
FFFFFF
ENDCHAR
STARTCHAR afii00208
ENCODING 8213
SWIDTH 1000 0
DWIDTH 24 0
BBX 24 2 0 5
BITMAP
FFFFFF
FFFFFF
ENDCHAR
STARTCHAR underscoredbl
ENCODING 8215
SWIDTH 552 0
DWIDTH 13 0
BBX 13 4 0 -5
BITMAP
FFF8
FFF8
FFF8
FFF8
ENDCHAR
STARTCHAR quoteleft
ENCODING 8216
SWIDTH 222 0
DWIDTH 5 0
BBX 2 6 1 11
BITMAP
40
80
80
C0
C0
C0
ENDCHAR
STARTCHAR quoteright
ENCODING 8217
SWIDTH 222 0
DWIDTH 5 0
BBX 2 6 2 11
BITMAP
C0
C0
C0
40
40
80
ENDCHAR
STARTCHAR quotesinglbase
ENCODING 8218
SWIDTH 222 0
DWIDTH 5 0
BBX 2 6 2 -3
BITMAP
C0
C0
C0
40
40
80
ENDCHAR
STARTCHAR quotereversed
ENCODING 8219
SWIDTH 222 0
DWIDTH 5 0
BBX 2 6 1 11
BITMAP
C0
C0
C0
80
80
40
ENDCHAR
STARTCHAR quotedblleft
ENCODING 8220
SWIDTH 333 0
DWIDTH 8 0
BBX 6 6 1 11
BITMAP
44
88
88
CC
CC
CC
ENDCHAR
STARTCHAR quotedblright
ENCODING 8221
SWIDTH 333 0
DWIDTH 8 0
BBX 6 6 1 11
BITMAP
CC
CC
CC
44
44
88
ENDCHAR
STARTCHAR quotedblbase
ENCODING 8222
SWIDTH 333 0
DWIDTH 8 0
BBX 6 6 1 -3
BITMAP
CC
CC
CC
44
44
88
ENDCHAR
STARTCHAR dagger
ENCODING 8224
SWIDTH 556 0
DWIDTH 13 0
BBX 10 19 2 -2
BITMAP
0C00
0C00
0C00
0C00
FFC0
FFC0
0C00
0C00
0C00
0C00
0C00
0C00
0C00
0C00
0C00
0C00
0C00
0C00
0C00
ENDCHAR
STARTCHAR daggerdbl
ENCODING 8225
SWIDTH 556 0
DWIDTH 13 0
BBX 10 19 2 -2
BITMAP
0C00
0C00
0C00
0C00
FFC0
FFC0
0C00
0C00
0C00
0C00
0C00
0C00
0C00
FFC0
FFC0
0C00
0C00
0C00
0C00
ENDCHAR
STARTCHAR bullet
ENCODING 8226
SWIDTH 350 0
DWIDTH 8 0
BBX 7 7 1 4
BITMAP
38
7C
FE
FE
FE
7C
38
ENDCHAR
STARTCHAR ellipsis
ENCODING 8230
SWIDTH 1000 0
DWIDTH 24 0
BBX 18 3 2 0
BITMAP
C0C0C0
C0C0C0
C0C0C0
ENDCHAR
STARTCHAR perthousand
ENCODING 8240
SWIDTH 1000 0
DWIDTH 26 0
BBX 24 17 1 0
BITMAP
7C0600
6C0C00
C60800
C61800
C63000
C66000
C64000
6CC000
39BE3E
033636
026363
066363
0C6363
186363
106363
303636
601C1C
ENDCHAR
STARTCHAR minute
ENCODING 8242
SWIDTH 187 0
DWIDTH 5 0
BBX 3 6 1 11
BITMAP
60
60
40
C0
C0
80
ENDCHAR
STARTCHAR second
ENCODING 8243
SWIDTH 354 0
DWIDTH 9 0
BBX 7 6 1 11
BITMAP
66
66
44
CC
CC
88
ENDCHAR
STARTCHAR guilsinglleft
ENCODING 8249
SWIDTH 333 0
DWIDTH 8 0
BBX 6 9 1 2
BITMAP
0C
18
30
60
C0
60
30
18
1C
ENDCHAR
STARTCHAR guilsinglright
ENCODING 8250
SWIDTH 333 0
DWIDTH 8 0
BBX 6 9 1 2
BITMAP
C0
60
30
18
0C
18
30
60
E0
ENDCHAR
STARTCHAR exclamdbl
ENCODING 8252
SWIDTH 500 0
DWIDTH 12 0
BBX 7 17 3 0
BITMAP
C6
C6
C6
C6
C6
C6
C6
C6
C6
C6
C6
C6
00
00
C6
C6
C6
ENDCHAR
STARTCHAR uni203E
ENCODING 8254
SWIDTH 333 0
DWIDTH 8 0
BBX 10 1 -1 18
BITMAP
FFC0
ENDCHAR
STARTCHAR fraction
ENCODING 8260
SWIDTH 166 0
DWIDTH 4 0
BBX 12 17 -5 0
BITMAP
0030
0020
0060
00C0
0080
0180
0300
0300
0600
0C00
0C00
1800
1000
3000
6000
6000
C000
ENDCHAR
STARTCHAR uni207F
ENCODING 8319
SWIDTH 364 0
DWIDTH 9 0
BBX 7 7 1 8
BITMAP
DC
C6
C6
C6
C6
C6
C6
ENDCHAR
STARTCHAR franc
ENCODING 8355
SWIDTH 556 0
DWIDTH 13 0
BBX 12 17 0 0
BITMAP
3FF0
3FF0
3000
3000
3000
3000
3000
3FF0
3FF0
3000
3000
FF80
FF80
3000
3000
3000
3000
ENDCHAR
STARTCHAR lira
ENCODING 8356
SWIDTH 556 0
DWIDTH 13 0
BBX 11 17 1 0
BITMAP
0F00
1F80
39C0
3000
3000
3000
FF00
FF00
3000
FF00
FF00
3000
3000
2060
60E0
FFC0
FF80
ENDCHAR
STARTCHAR peseta
ENCODING 8359
SWIDTH 1093 0
DWIDTH 26 0
BBX 23 17 2 0
BITMAP
FC0000
FF0000
C30000
C18000
C19000
C1B000
C1B000
C1FCFC
C37DFE
FF3186
FC31C0
C030F8
C0303E
C03006
C03186
C03DFE
C01CFC
ENDCHAR
STARTCHAR Euro
ENCODING 8364
SWIDTH 556 0
DWIDTH 13 0
BBX 12 17 0 0
BITMAP
07C0
0FE0
1C70
1830
3000
3000
FF80
FF80
3000
FF80
FF80
3000
3000
1830
1C70
0FE0
07C0
ENDCHAR
STARTCHAR afii61248
ENCODING 8453
SWIDTH 885 0
DWIDTH 21 0
BBX 19 17 1 0
BITMAP
3C0300
6C0600
C60600
C00C00
C01800
C01000
C03000
C66380
6C46C0
38CC60
018C60
010C60
030C60
060C60
0C0C60
0C06C0
180380
ENDCHAR
STARTCHAR afii61289
ENCODING 8467
SWIDTH 323 0
DWIDTH 8 0
BBX 7 17 0 0
BITMAP
1C
32
32
32
32
32
32
34
34
38
30
F0
30
32
32
32
1C
ENDCHAR
STARTCHAR afii61352
ENCODING 8470
SWIDTH 1072 0
DWIDTH 26 0
BBX 23 17 2 0
BITMAP
E01800
E01800
F01800
F81800
D81878
CC18CC
CC1986
C61986
C71986
C31986
C19986
C198CC
C0D878
C0D800
C07800
C039FE
C039FE
ENDCHAR
STARTCHAR trademark
ENCODING 8482
SWIDTH 1000 0
DWIDTH 24 0
BBX 20 9 2 8
BITMAP
FF7070
FF7070
1878F0
1868B0
186DB0
186DB0
186530
186730
186230
ENDCHAR
STARTCHAR u2126
ENCODING 8486
SWIDTH 768 0
DWIDTH 18 0
BBX 16 17 1 0
BITMAP
07E0
1FF8
381C
700E
E007
C003
C003
C003
C003
C003
6006
6006
300C
1C38
0E70
FE7F
FE7F
ENDCHAR
STARTCHAR estimated
ENCODING 8494
SWIDTH 600 0
DWIDTH 14 0
BBX 12 13 1 0
BITMAP
0F00
30C0
6060
6060
E070
E070
FFF0
E000
E000
6020
6020
30C0
1F00
ENDCHAR
STARTCHAR oneeighth
ENCODING 8539
SWIDTH 833 0
DWIDTH 20 0
BBX 18 17 1 0
BITMAP
700600
F00400
B00C00
301800
301000
303000
306000
306F80
30D8C0
FF98C0
0198C0
030700
0218C0
0618C0
0C18C0
0C18C0
180F80
ENDCHAR
STARTCHAR threeeighths
ENCODING 8540
SWIDTH 833 0
DWIDTH 20 0
BBX 18 17 1 0
BITMAP
7C0600
C60400
C60C00
061800
381000
0E3000
066000
C66F80
C6D8C0
7D98C0
0198C0
030700
0218C0
0618C0
0C18C0
0C18C0
180F80
ENDCHAR
STARTCHAR fiveeighths
ENCODING 8541
SWIDTH 833 0
DWIDTH 20 0
BBX 18 17 1 0
BITMAP
FE0600
C00400
C00C00
C01800
FC1000
C63000
066000
066F80
C6D8C0
7D98C0
0198C0
030700
0218C0
0618C0
0C18C0
0C18C0
180F80
ENDCHAR
STARTCHAR seveneighths
ENCODING 8542
SWIDTH 833 0
DWIDTH 20 0
BBX 17 17 2 0
BITMAP
FE1800
061000
043000
0C6000
184000
18C000
118000
319F00
333180
363180
063180
0C0E00
083180
183180
303180
303180
601F00
ENDCHAR
STARTCHAR arrowleft
ENCODING 8592
SWIDTH 1000 0
DWIDTH 24 0
BBX 14 5 5 1
BITMAP
3000
6000
FFFC
6000
3000
ENDCHAR
STARTCHAR arrowup
ENCODING 8593
SWIDTH 500 0
DWIDTH 12 0
BBX 5 14 4 -1
BITMAP
20
70
F8
A8
20
20
20
20
20
20
20
20
20
20
ENDCHAR
STARTCHAR arrowright
ENCODING 8594
SWIDTH 1000 0
DWIDTH 24 0
BBX 14 5 5 1
BITMAP
0030
0018
FFFC
0018
0030
ENDCHAR
STARTCHAR arrowdown
ENCODING 8595
SWIDTH 500 0
DWIDTH 12 0
BBX 5 14 4 -1
BITMAP
20
20
20
20
20
20
20
20
20
20
A8
F8
70
20
ENDCHAR
STARTCHAR arrowboth
ENCODING 8596
SWIDTH 1000 0
DWIDTH 24 0
BBX 14 5 5 1
BITMAP
3030
6018
FFFC
6018
3030
ENDCHAR
STARTCHAR arrowupdn
ENCODING 8597
SWIDTH 500 0
DWIDTH 12 0
BBX 5 14 4 -1
BITMAP
20
70
F8
A8
20
20
20
20
20
20
A8
F8
70
20
ENDCHAR
STARTCHAR arrowupdnbse
ENCODING 8616
SWIDTH 500 0
DWIDTH 12 0
BBX 5 16 4 -3
BITMAP
20
70
F8
A8
20
20
20
20
20
20
A8
F8
70
20
00
F8
ENDCHAR
STARTCHAR partialdiff
ENCODING 8706
SWIDTH 494 0
DWIDTH 12 0
BBX 10 17 1 0
BITMAP
0F00
1F80
1180
00C0
00C0
1EC0
3FC0
71C0
61C0
E0C0
C180
C180
C180
C300
E700
7E00
3C00
ENDCHAR
STARTCHAR u2206
ENCODING 8710
SWIDTH 611 0
DWIDTH 15 0
BBX 15 17 0 0
BITMAP
0380
0380
06C0
06C0
0EE0
0C60
0C60
1830
1830
3838
3018
301C
600C
600C
E00E
FFFE
FFFE
ENDCHAR
STARTCHAR product
ENCODING 8719
SWIDTH 823 0
DWIDTH 20 0
BBX 14 22 3 -5
BITMAP
FFFC
FFFC
C00C
C00C
C00C
C00C
C00C
C00C
C00C
C00C
C00C
C00C
C00C
C00C
C00C
C00C
C00C
C00C
C00C
C00C
C00C
C00C
ENDCHAR
STARTCHAR summation
ENCODING 8721
SWIDTH 712 0
DWIDTH 17 0
BBX 14 22 2 -5
BITMAP
FFF8
FFF8
6000
3000
1800
1C00
0E00
0700
0300
0180
00C0
00C0
0180
0300
0700
0E00
1C00
1800
3000
6000
FFFC
FFFC
ENDCHAR
STARTCHAR minus
ENCODING 8722
SWIDTH 583 0
DWIDTH 14 0
BBX 12 2 1 7
BITMAP
FFF0
FFF0
ENDCHAR
STARTCHAR fraction.dup4
ENCODING 8725
SWIDTH 166 0
DWIDTH 4 0
BBX 12 17 -5 0
BITMAP
0030
0020
0060
00C0
0080
0180
0300
0300
0600
0C00
0C00
1800
1000
3000
6000
6000
C000
ENDCHAR
STARTCHAR periodcentered.dup5
ENCODING 8729
SWIDTH 277 0
DWIDTH 7 0
BBX 2 3 2 6
BITMAP
C0
C0
C0
ENDCHAR
STARTCHAR radical
ENCODING 8730
SWIDTH 548 0
DWIDTH 13 0
BBX 12 19 1 0
BITMAP
0010
0030
0030
0020
0060
0060
0040
0040
E0C0
3080
1080
1180
1980
0900
0900
0F00
0600
0600
0600
ENDCHAR
STARTCHAR infinity
ENCODING 8734
SWIDTH 712 0
DWIDTH 17 0
BBX 15 9 1 3
BITMAP
3838
7C7C
E6CE
C386
C106
C386
E6CE
7CFC
3838
ENDCHAR
STARTCHAR orthogonal
ENCODING 8735
SWIDTH 979 0
DWIDTH 24 0
BBX 14 14 5 0
BITMAP
8000
8000
8000
8000
8000
8000
8000
8000
8000
8000
8000
8000
8000
FFFC
ENDCHAR
STARTCHAR intersection
ENCODING 8745
SWIDTH 718 0
DWIDTH 17 0
BBX 11 12 3 0
BITMAP
1F00
2080
4040
8060
8020
8020
8020
8020
8020
8020
8020
8020
ENDCHAR
STARTCHAR integral
ENCODING 8747
SWIDTH 273 0
DWIDTH 6 0
BBX 8 23 -1 -5
BITMAP
07
0F
1C
18
18
18
18
18
18
18
18
18
18
18
18
18
18
18
18
18
38
F0
E0
ENDCHAR
STARTCHAR approxequal
ENCODING 8776
SWIDTH 548 0
DWIDTH 13 0
BBX 11 9 1 4
BITMAP
7800
FE20
8FE0
03C0
0000
7800
FE20
8FE0
03C0
ENDCHAR
STARTCHAR notequal
ENCODING 8800
SWIDTH 548 0
DWIDTH 13 0
BBX 11 14 1 1
BITMAP
0080
0180
0100
FFE0
FFE0
0600
0400
0C00
0800
FFE0
FFE0
3000
2000
6000
ENDCHAR
STARTCHAR equivalence
ENCODING 8801
SWIDTH 583 0
DWIDTH 14 0
BBX 12 10 1 3
BITMAP
FFF0
FFF0
0000
0000
FFF0
FFF0
0000
0000
FFF0
FFF0
ENDCHAR
STARTCHAR lessequal
ENCODING 8804
SWIDTH 548 0
DWIDTH 13 0
BBX 11 14 1 0
BITMAP
0020
01E0
0780
3E00
F000
C000
F000
3E00
0780
01E0
0020
0000
FFE0
FFE0
ENDCHAR
STARTCHAR greaterequal
ENCODING 8805
SWIDTH 548 0
DWIDTH 13 0
BBX 11 14 1 0
BITMAP
8000
F000
3C00
0F80
01E0
0060
01E0
0F80
3C00
F000
8000
0000
FFE0
FFE0
ENDCHAR
STARTCHAR house
ENCODING 8962
SWIDTH 604 0
DWIDTH 15 0
BBX 11 13 2 0
BITMAP
0400
0A00
1100
2080
4040
8020
8020
8020
8020
8020
8020
8020
FFE0
ENDCHAR
STARTCHAR revlogicalnot
ENCODING 8976
SWIDTH 583 0
DWIDTH 14 0
BBX 12 7 1 2
BITMAP
FFF0
FFF0
C000
C000
C000
C000
C000
ENDCHAR
STARTCHAR integraltp
ENCODING 8992
SWIDTH 604 0
DWIDTH 15 0
BBX 5 27 6 -7
BITMAP
38
58
C0
C0
C0
C0
C0
C0
C0
C0
C0
C0
C0
C0
C0
C0
C0
C0
C0
C0
C0
C0
C0
C0
C0
C0
C0
ENDCHAR
STARTCHAR integralbt
ENCODING 8993
SWIDTH 604 0
DWIDTH 15 0
BBX 5 27 3 -7
BITMAP
18
18
18
18
18
18
18
18
18
18
18
18
18
18
18
18
18
18
18
18
18
18
18
18
18
D0
E0
ENDCHAR
STARTCHAR SF100000
ENCODING 9472
SWIDTH 708 0
DWIDTH 17 0
BBX 17 2 0 6
BITMAP
FFFF80
FFFF80
ENDCHAR
STARTCHAR SF110000
ENCODING 9474
SWIDTH 625 0
DWIDTH 15 0
BBX 2 29 6 -7
BITMAP
C0
C0
C0
C0
C0
C0
C0
C0
C0
C0
C0
C0
C0
C0
C0
C0
C0
C0
C0
C0
C0
C0
C0
C0
C0
C0
C0
C0
C0
ENDCHAR
STARTCHAR SF010000
ENCODING 9484
SWIDTH 708 0
DWIDTH 17 0
BBX 9 15 8 -7
BITMAP
FF80
FF80
C000
C000
C000
C000
C000
C000
C000
C000
C000
C000
C000
C000
C000
ENDCHAR
STARTCHAR SF030000
ENCODING 9488
SWIDTH 708 0
DWIDTH 17 0
BBX 10 15 0 -7
BITMAP
FFC0
FFC0
00C0
00C0
00C0
00C0
00C0
00C0
00C0
00C0
00C0
00C0
00C0
00C0
00C0
ENDCHAR
STARTCHAR SF020000
ENCODING 9492
SWIDTH 708 0
DWIDTH 17 0
BBX 9 16 8 6
BITMAP
C000
C000
C000
C000
C000
C000
C000
C000
C000
C000
C000
C000
C000
C000
FF80
FF80
ENDCHAR
STARTCHAR SF040000
ENCODING 9496
SWIDTH 708 0
DWIDTH 17 0
BBX 10 16 0 6
BITMAP
00C0
00C0
00C0
00C0
00C0
00C0
00C0
00C0
00C0
00C0
00C0
00C0
00C0
00C0
FFC0
FFC0
ENDCHAR
STARTCHAR SF080000
ENCODING 9500
SWIDTH 708 0
DWIDTH 17 0
BBX 9 29 8 -7
BITMAP
C000
C000
C000
C000
C000
C000
C000
C000
C000
C000
C000
C000
C000
C000
FF80
FF80
C000
C000
C000
C000
C000
C000
C000
C000
C000
C000
C000
C000
C000
ENDCHAR
STARTCHAR SF090000
ENCODING 9508
SWIDTH 708 0
DWIDTH 17 0
BBX 10 29 0 -7
BITMAP
00C0
00C0
00C0
00C0
00C0
00C0
00C0
00C0
00C0
00C0
00C0
00C0
00C0
00C0
FFC0
FFC0
00C0
00C0
00C0
00C0
00C0
00C0
00C0
00C0
00C0
00C0
00C0
00C0
00C0
ENDCHAR
STARTCHAR SF060000
ENCODING 9516
SWIDTH 708 0
DWIDTH 17 0
BBX 17 15 0 -7
BITMAP
FFFF80
FFFF80
00C000
00C000
00C000
00C000
00C000
00C000
00C000
00C000
00C000
00C000
00C000
00C000
00C000
ENDCHAR
STARTCHAR SF070000
ENCODING 9524
SWIDTH 708 0
DWIDTH 17 0
BBX 17 16 0 6
BITMAP
00C000
00C000
00C000
00C000
00C000
00C000
00C000
00C000
00C000
00C000
00C000
00C000
00C000
00C000
FFFF80
FFFF80
ENDCHAR
STARTCHAR SF050000
ENCODING 9532
SWIDTH 708 0
DWIDTH 17 0
BBX 17 29 0 -7
BITMAP
00C000
00C000
00C000
00C000
00C000
00C000
00C000
00C000
00C000
00C000
00C000
00C000
00C000
00C000
FFFF80
FFFF80
00C000
00C000
00C000
00C000
00C000
00C000
00C000
00C000
00C000
00C000
00C000
00C000
00C000
ENDCHAR
STARTCHAR SF430000
ENCODING 9552
SWIDTH 708 0
DWIDTH 17 0
BBX 17 6 0 4
BITMAP
FFFF80
FFFF80
000000
000000
FFFF80
FFFF80
ENDCHAR
STARTCHAR SF240000
ENCODING 9553
SWIDTH 708 0
DWIDTH 17 0
BBX 6 29 6 -7
BITMAP
CC
CC
CC
CC
CC
CC
CC
CC
CC
CC
CC
CC
CC
CC
CC
CC
CC
CC
CC
CC
CC
CC
CC
CC
CC
CC
CC
CC
CC
ENDCHAR
STARTCHAR SF510000
ENCODING 9554
SWIDTH 708 0
DWIDTH 17 0
BBX 9 17 8 -7
BITMAP
FF80
FF80
C000
C000
FF80
FF80
C000
C000
C000
C000
C000
C000
C000
C000
C000
C000
C000
ENDCHAR
STARTCHAR SF520000
ENCODING 9555
SWIDTH 708 0
DWIDTH 17 0
BBX 11 15 6 -7
BITMAP
FFE0
FFE0
CC00
CC00
CC00
CC00
CC00
CC00
CC00
CC00
CC00
CC00
CC00
CC00
CC00
ENDCHAR
STARTCHAR SF390000
ENCODING 9556
SWIDTH 708 0
DWIDTH 17 0
BBX 11 17 6 -7
BITMAP
FFE0
FFE0
C000
C000
CFE0
CFE0
CC00
CC00
CC00
CC00
CC00
CC00
CC00
CC00
CC00
CC00
CC00
ENDCHAR
STARTCHAR SF220000
ENCODING 9557
SWIDTH 708 0
DWIDTH 17 0
BBX 10 17 0 -7
BITMAP
FFC0
FFC0
00C0
00C0
FFC0
FFC0
00C0
00C0
00C0
00C0
00C0
00C0
00C0
00C0
00C0
00C0
00C0
ENDCHAR
STARTCHAR SF210000
ENCODING 9558
SWIDTH 708 0
DWIDTH 17 0
BBX 12 15 0 -7
BITMAP
FFF0
FFF0
0330
0330
0330
0330
0330
0330
0330
0330
0330
0330
0330
0330
0330
ENDCHAR
STARTCHAR SF250000
ENCODING 9559
SWIDTH 708 0
DWIDTH 17 0
BBX 12 17 0 -7
BITMAP
FFF0
FFF0
0030
0030
FF30
FF30
0330
0330
0330
0330
0330
0330
0330
0330
0330
0330
0330
ENDCHAR
STARTCHAR SF500000
ENCODING 9560
SWIDTH 708 0
DWIDTH 17 0
BBX 9 18 8 4
BITMAP
C000
C000
C000
C000
C000
C000
C000
C000
C000
C000
C000
C000
FF80
FF80
C000
C000
FF80
FF80
ENDCHAR
STARTCHAR SF490000
ENCODING 9561
SWIDTH 708 0
DWIDTH 17 0
BBX 11 16 6 6
BITMAP
CC00
CC00
CC00
CC00
CC00
CC00
CC00
CC00
CC00
CC00
CC00
CC00
CC00
CC00
FFE0
FFE0
ENDCHAR
STARTCHAR SF380000
ENCODING 9562
SWIDTH 708 0
DWIDTH 17 0
BBX 11 18 6 4
BITMAP
CC00
CC00
CC00
CC00
CC00
CC00
CC00
CC00
CC00
CC00
CC00
CC00
CFE0
CFE0
C000
C000
FFE0
FFE0
ENDCHAR
STARTCHAR SF280000
ENCODING 9563
SWIDTH 708 0
DWIDTH 17 0
BBX 10 18 0 4
BITMAP
00C0
00C0
00C0
00C0
00C0
00C0
00C0
00C0
00C0
00C0
00C0
00C0
FFC0
FFC0
00C0
00C0
FFC0
FFC0
ENDCHAR
STARTCHAR SF270000
ENCODING 9564
SWIDTH 708 0
DWIDTH 17 0
BBX 12 16 0 6
BITMAP
0330
0330
0330
0330
0330
0330
0330
0330
0330
0330
0330
0330
0330
0330
FFF0
FFF0
ENDCHAR
STARTCHAR SF260000
ENCODING 9565
SWIDTH 708 0
DWIDTH 17 0
BBX 12 18 0 4
BITMAP
0330
0330
0330
0330
0330
0330
0330
0330
0330
0330
0330
0330
FF30
FF30
0030
0030
FFF0
FFF0
ENDCHAR
STARTCHAR SF360000
ENCODING 9566
SWIDTH 708 0
DWIDTH 17 0
BBX 9 29 8 -7
BITMAP
C000
C000
C000
C000
C000
C000
C000
C000
C000
C000
C000
C000
FF80
FF80
C000
C000
FF80
FF80
C000
C000
C000
C000
C000
C000
C000
C000
C000
C000
C000
ENDCHAR
STARTCHAR SF370000
ENCODING 9567
SWIDTH 708 0
DWIDTH 17 0
BBX 11 29 6 -7
BITMAP
CC00
CC00
CC00
CC00
CC00
CC00
CC00
CC00
CC00
CC00
CC00
CC00
CC00
CC00
CFE0
CFE0
CC00
CC00
CC00
CC00
CC00
CC00
CC00
CC00
CC00
CC00
CC00
CC00
CC00
ENDCHAR
STARTCHAR SF420000
ENCODING 9568
SWIDTH 708 0
DWIDTH 17 0
BBX 11 29 6 -7
BITMAP
CC00
CC00
CC00
CC00
CC00
CC00
CC00
CC00
CC00
CC00
CC00
CC00
CFE0
CFE0
C000
C000
CFE0
CFE0
CC00
CC00
CC00
CC00
CC00
CC00
CC00
CC00
CC00
CC00
CC00
ENDCHAR
STARTCHAR SF190000
ENCODING 9569
SWIDTH 708 0
DWIDTH 17 0
BBX 10 29 0 -7
BITMAP
00C0
00C0
00C0
00C0
00C0
00C0
00C0
00C0
00C0
00C0
00C0
00C0
FFC0
FFC0
00C0
00C0
FFC0
FFC0
00C0
00C0
00C0
00C0
00C0
00C0
00C0
00C0
00C0
00C0
00C0
ENDCHAR
STARTCHAR SF200000
ENCODING 9570
SWIDTH 708 0
DWIDTH 17 0
BBX 12 29 0 -7
BITMAP
0330
0330
0330
0330
0330
0330
0330
0330
0330
0330
0330
0330
0330
0330
FF30
FF30
0330
0330
0330
0330
0330
0330
0330
0330
0330
0330
0330
0330
0330
ENDCHAR
STARTCHAR SF230000
ENCODING 9571
SWIDTH 708 0
DWIDTH 17 0
BBX 12 29 0 -7
BITMAP
0330
0330
0330
0330
0330
0330
0330
0330
0330
0330
0330
0330
FF30
FF30
0030
0030
FF30
FF30
0330
0330
0330
0330
0330
0330
0330
0330
0330
0330
0330
ENDCHAR
STARTCHAR SF470000
ENCODING 9572
SWIDTH 708 0
DWIDTH 17 0
BBX 17 17 0 -7
BITMAP
FFFF80
FFFF80
000000
000000
FFFF80
FFFF80
00C000
00C000
00C000
00C000
00C000
00C000
00C000
00C000
00C000
00C000
00C000
ENDCHAR
STARTCHAR SF480000
ENCODING 9573
SWIDTH 708 0
DWIDTH 17 0
BBX 17 15 0 -7
BITMAP
FFFF80
FFFF80
033000
033000
033000
033000
033000
033000
033000
033000
033000
033000
033000
033000
033000
ENDCHAR
STARTCHAR SF410000
ENCODING 9574
SWIDTH 708 0
DWIDTH 17 0
BBX 17 17 0 -7
BITMAP
FFFF80
FFFF80
000000
000000
FF3F80
FF3F80
033000
033000
033000
033000
033000
033000
033000
033000
033000
033000
033000
ENDCHAR
STARTCHAR SF450000
ENCODING 9575
SWIDTH 708 0
DWIDTH 17 0
BBX 17 18 0 4
BITMAP
00C000
00C000
00C000
00C000
00C000
00C000
00C000
00C000
00C000
00C000
00C000
00C000
FFFF80
FFFF80
000000
000000
FFFF80
FFFF80
ENDCHAR
STARTCHAR SF460000
ENCODING 9576
SWIDTH 708 0
DWIDTH 17 0
BBX 17 16 0 6
BITMAP
033000
033000
033000
033000
033000
033000
033000
033000
033000
033000
033000
033000
033000
033000
FFFF80
FFFF80
ENDCHAR
STARTCHAR SF400000
ENCODING 9577
SWIDTH 708 0
DWIDTH 17 0
BBX 17 18 0 4
BITMAP
033000
033000
033000
033000
033000
033000
033000
033000
033000
033000
033000
033000
FF3F80
FF3F80
000000
000000
FFFF80
FFFF80
ENDCHAR
STARTCHAR SF540000
ENCODING 9578
SWIDTH 708 0
DWIDTH 17 0
BBX 17 29 0 -7
BITMAP
00C000
00C000
00C000
00C000
00C000
00C000
00C000
00C000
00C000
00C000
00C000
00C000
FFFF80
FFFF80
00C000
00C000
FFFF80
FFFF80
00C000
00C000
00C000
00C000
00C000
00C000
00C000
00C000
00C000
00C000
00C000
ENDCHAR
STARTCHAR SF530000
ENCODING 9579
SWIDTH 708 0
DWIDTH 17 0
BBX 17 29 0 -7
BITMAP
033000
033000
033000
033000
033000
033000
033000
033000
033000
033000
033000
033000
033000
033000
FFFF80
FFFF80
033000
033000
033000
033000
033000
033000
033000
033000
033000
033000
033000
033000
033000
ENDCHAR
STARTCHAR SF440000
ENCODING 9580
SWIDTH 708 0
DWIDTH 17 0
BBX 17 29 0 -7
BITMAP
033000
033000
033000
033000
033000
033000
033000
033000
033000
033000
033000
033000
FF3F80
FF3F80
000000
000000
FF3F80
FF3F80
033000
033000
033000
033000
033000
033000
033000
033000
033000
033000
033000
ENDCHAR
STARTCHAR upblock
ENCODING 9600
SWIDTH 708 0
DWIDTH 17 0
BBX 17 15 0 7
BITMAP
FFFF80
FFFF80
FFFF80
FFFF80
FFFF80
FFFF80
FFFF80
FFFF80
FFFF80
FFFF80
FFFF80
FFFF80
FFFF80
FFFF80
FFFF80
ENDCHAR
STARTCHAR dnblock
ENCODING 9604
SWIDTH 708 0
DWIDTH 17 0
BBX 17 14 0 -7
BITMAP
FFFF80
FFFF80
FFFF80
FFFF80
FFFF80
FFFF80
FFFF80
FFFF80
FFFF80
FFFF80
FFFF80
FFFF80
FFFF80
FFFF80
ENDCHAR
STARTCHAR block
ENCODING 9608
SWIDTH 708 0
DWIDTH 17 0
BBX 17 29 0 -7
BITMAP
FFFF80
FFFF80
FFFF80
FFFF80
FFFF80
FFFF80
FFFF80
FFFF80
FFFF80
FFFF80
FFFF80
FFFF80
FFFF80
FFFF80
FFFF80
FFFF80
FFFF80
FFFF80
FFFF80
FFFF80
FFFF80
FFFF80
FFFF80
FFFF80
FFFF80
FFFF80
FFFF80
FFFF80
FFFF80
ENDCHAR
STARTCHAR lfblock
ENCODING 9612
SWIDTH 708 0
DWIDTH 17 0
BBX 9 29 0 -7
BITMAP
FF80
FF80
FF80
FF80
FF80
FF80
FF80
FF80
FF80
FF80
FF80
FF80
FF80
FF80
FF80
FF80
FF80
FF80
FF80
FF80
FF80
FF80
FF80
FF80
FF80
FF80
FF80
FF80
FF80
ENDCHAR
STARTCHAR rtblock
ENCODING 9616
SWIDTH 708 0
DWIDTH 17 0
BBX 8 29 9 -7
BITMAP
FF
FF
FF
FF
FF
FF
FF
FF
FF
FF
FF
FF
FF
FF
FF
FF
FF
FF
FF
FF
FF
FF
FF
FF
FF
FF
FF
FF
FF
ENDCHAR
STARTCHAR ltshade
ENCODING 9617
SWIDTH 708 0
DWIDTH 17 0
BBX 16 26 1 -6
BITMAP
8421
0000
1084
0000
0000
8421
0000
1084
0000
8421
0000
1084
0000
0000
8421
0000
1084
0000
8421
0000
1084
0000
0000
8421
0000
1084
ENDCHAR
STARTCHAR shade
ENCODING 9618
SWIDTH 708 0
DWIDTH 17 0
BBX 17 26 0 -6
BITMAP
4AD680
000000
B5A900
B5A900
000000
4AD680
000000
B5A900
000000
4AD680
000000
B5A900
B5A900
000000
4AD680
000000
B5A900
000000
4AD680
000000
B5A900
B5A900
000000
4AD680
000000
B5A900
ENDCHAR
STARTCHAR dkshade
ENCODING 9619
SWIDTH 729 0
DWIDTH 18 0
BBX 18 27 0 -7
BITMAP
6A5AC0
FFFFC0
B5AD00
FFFFC0
FFFFC0
6A5AC0
FFFFC0
B5AD00
FFFFC0
6A5AC0
FFFFC0
B5AD00
B5AD00
FFFFC0
6A5AC0
FFFFC0
B5AD00
FFFFC0
6A5AC0
FFFFC0
FFFFC0
B5AD00
FFFFC0
6A5AC0
FFFFC0
B5AD00
FFFFC0
ENDCHAR
STARTCHAR filledbox
ENCODING 9632
SWIDTH 604 0
DWIDTH 15 0
BBX 12 12 1 1
BITMAP
FFF0
FFF0
FFF0
FFF0
FFF0
FFF0
FFF0
FFF0
FFF0
FFF0
FFF0
FFF0
ENDCHAR
STARTCHAR H22073
ENCODING 9633
SWIDTH 604 0
DWIDTH 15 0
BBX 14 14 0 0
BITMAP
FFFC
8004
8004
8004
8004
8004
8004
8004
8004
8004
8004
8004
8004
FFFC
ENDCHAR
STARTCHAR H18543
ENCODING 9642
SWIDTH 354 0
DWIDTH 9 0
BBX 6 6 1 4
BITMAP
FC
FC
FC
FC
FC
FC
ENDCHAR
STARTCHAR H18551
ENCODING 9643
SWIDTH 354 0
DWIDTH 9 0
BBX 6 6 1 4
BITMAP
FC
84
84
84
84
FC
ENDCHAR
STARTCHAR filledrect
ENCODING 9644
SWIDTH 1000 0
DWIDTH 24 0
BBX 24 7 0 0
BITMAP
FFFFFF
FFFFFF
FFFFFF
FFFFFF
FFFFFF
FFFFFF
FFFFFF
ENDCHAR
STARTCHAR triagup
ENCODING 9650
SWIDTH 989 0
DWIDTH 24 0
BBX 14 14 5 0
BITMAP
0200
0300
0300
0780
0780
0FC0
0FC0
1FE0
1FE0
3FF0
3FF0
7FF8
7FF8
FFFC
ENDCHAR
STARTCHAR triagrt
ENCODING 9658
SWIDTH 989 0
DWIDTH 24 0
BBX 14 14 5 0
BITMAP
8000
E000
F800
FE00
FF80
FFE0
FFF8
FFFC
FFE0
FF80
FE00
F800
E000
8000
ENDCHAR
STARTCHAR triagdn
ENCODING 9660
SWIDTH 989 0
DWIDTH 24 0
BBX 14 14 5 0
BITMAP
FFFC
FFF8
7FF8
7FF0
3FF0
3FE0
1FE0
1FC0
0FC0
0F80
0780
0700
0300
0200
ENDCHAR
STARTCHAR triaglf
ENCODING 9668
SWIDTH 989 0
DWIDTH 24 0
BBX 14 14 5 0
BITMAP
0004
001C
007C
01FC
07FC
1FFC
7FFC
FFFC
3FFC
0FFC
03FC
00FC
003C
000C
ENDCHAR
STARTCHAR lozenge
ENCODING 9674
SWIDTH 494 0
DWIDTH 12 0
BBX 12 17 0 0
BITMAP
0600
0600
0F00
1980
1080
30C0
6060
4020
C030
4020
6060
30C0
1080
1980
0F00
0600
0600
ENDCHAR
STARTCHAR circle
ENCODING 9675
SWIDTH 604 0
DWIDTH 15 0
BBX 11 11 2 1
BITMAP
1F00
2180
4040
8060
8020
8020
8020
8020
4040
2080
1F00
ENDCHAR
STARTCHAR H18533
ENCODING 9679
SWIDTH 604 0
DWIDTH 15 0
BBX 10 10 2 2
BITMAP
1E00
7F80
7F80
FFC0
FFC0
FFC0
FFC0
7F80
7F80
1E00
ENDCHAR
STARTCHAR invbullet
ENCODING 9688
SWIDTH 604 0
DWIDTH 15 0
BBX 14 14 0 0
BITMAP
FFFC
FFFC
F87C
E01C
E01C
C00C
C00C
C00C
C00C
E01C
E01C
F87C
FFFC
FFFC
ENDCHAR
STARTCHAR invcircle
ENCODING 9689
SWIDTH 604 0
DWIDTH 15 0
BBX 14 14 0 0
BITMAP
FFFC
FFFC
F87C
E79C
EFDC
DFEC
DFEC
DFEC
DFEC
EFDC
E79C
F87C
FFFC
FFFC
ENDCHAR
STARTCHAR openbullet
ENCODING 9702
SWIDTH 354 0
DWIDTH 9 0
BBX 6 6 1 4
BITMAP
78
CC
84
84
CC
78
ENDCHAR
STARTCHAR smileface
ENCODING 9786
SWIDTH 1020 0
DWIDTH 25 0
BBX 14 14 5 0
BITMAP
0FC0
1860
2010
4008
C00C
9864
9864
8004
8004
C84C
4788
2010
1860
0FC0
ENDCHAR
STARTCHAR invsmileface
ENCODING 9787
SWIDTH 1052 0
DWIDTH 25 0
BBX 14 14 5 0
BITMAP
0FC0
1FE0
3FF0
7FF8
FFFC
E79C
E79C
FFFC
FFFC
F7BC
7878
3FF0
1FE0
0FC0
ENDCHAR
STARTCHAR sun
ENCODING 9788
SWIDTH 916 0
DWIDTH 22 0
BBX 15 15 3 -2
BITMAP
0100
0100
2108
17D0
0C60
1830
1010
F01E
1010
1830
0C60
17D0
2108
0100
0100
ENDCHAR
STARTCHAR female
ENCODING 9792
SWIDTH 750 0
DWIDTH 18 0
BBX 7 13 6 1
BITMAP
38
44
82
82
82
44
38
10
10
FE
10
10
10
ENDCHAR
STARTCHAR male
ENCODING 9794
SWIDTH 750 0
DWIDTH 18 0
BBX 10 11 4 3
BITMAP
03C0
00C0
0140
0240
3C00
4400
8200
8200
8200
4400
3800
ENDCHAR
STARTCHAR spade
ENCODING 9824
SWIDTH 531 0
DWIDTH 13 0
BBX 11 14 1 0
BITMAP
0400
0400
0E00
0E00
1F00
7F80
7FC0
FFE0
FFE0
FFE0
75C0
0400
0E00
3F80
ENDCHAR
STARTCHAR club
ENCODING 9827
SWIDTH 656 0
DWIDTH 16 0
BBX 14 14 1 0
BITMAP
0780
0FC0
0FC0
0FC0
0FC0
7FF8
FFFC
FFFC
FFFC
FDFC
7978
0300
0780
1FE0
ENDCHAR
STARTCHAR heart
ENCODING 9829
SWIDTH 593 0
DWIDTH 14 0
BBX 12 12 1 1
BITMAP
79E0
FFF0
FFF0
FFF0
FFF0
7FE0
3FC0
1F80
1F80
0F00
0600
0600
ENDCHAR
STARTCHAR diamond
ENCODING 9830
SWIDTH 510 0
DWIDTH 12 0
BBX 11 15 1 0
BITMAP
0400
0400
0E00
1F00
1F00
3F80
7FC0
FFE0
7FC0
3F80
1F00
1F00
0E00
0400
0400
ENDCHAR
STARTCHAR musicalnote
ENCODING 9834
SWIDTH 500 0
DWIDTH 12 0
BBX 7 13 3 0
BITMAP
10
10
18
1C
14
12
12
12
12
14
70
F0
E0
ENDCHAR
STARTCHAR musicalnotedbl
ENCODING 9835
SWIDTH 750 0
DWIDTH 18 0
BBX 11 15 3 -1
BITMAP
0060
07E0
1E20
10E0
17E0
1E20
1020
1020
1020
1020
10E0
11E0
71C0
F000
E000
ENDCHAR
STARTCHAR uniF001
ENCODING 61441
SWIDTH 500 0
DWIDTH 12 0
BBX 10 17 0 0
BITMAP
1CC0
3CC0
3000
3000
FCC0
FCC0
30C0
30C0
30C0
30C0
30C0
30C0
30C0
30C0
30C0
30C0
30C0
ENDCHAR
STARTCHAR uniF002
ENCODING 61442
SWIDTH 500 0
DWIDTH 12 0
BBX 10 17 0 0
BITMAP
1CC0
3CC0
30C0
30C0
FCC0
FCC0
30C0
30C0
30C0
30C0
30C0
30C0
30C0
30C0
30C0
30C0
30C0
ENDCHAR
STARTCHAR uniF005
ENCODING 61445
SWIDTH 333 0
DWIDTH 8 0
BBX 4 4 1 -5
BITMAP
E0
30
30
E0
ENDCHAR
STARTCHAR uniF001.dup6
ENCODING 64257
SWIDTH 500 0
DWIDTH 12 0
BBX 10 17 0 0
BITMAP
1CC0
3CC0
3000
3000
FCC0
FCC0
30C0
30C0
30C0
30C0
30C0
30C0
30C0
30C0
30C0
30C0
30C0
ENDCHAR
STARTCHAR uniF002.dup7
ENCODING 64258
SWIDTH 500 0
DWIDTH 12 0
BBX 10 17 0 0
BITMAP
1CC0
3CC0
30C0
30C0
FCC0
FCC0
30C0
30C0
30C0
30C0
30C0
30C0
30C0
30C0
30C0
30C0
30C0
ENDCHAR
STARTCHAR .notdef
ENCODING -1
SWIDTH 750 0
DWIDTH 18 0
BBX 14 17 2 0
BITMAP
FFFC
8004
8004
8004
8004
8004
8004
8004
8004
8004
8004
8004
8004
8004
8004
8004
FFFC
ENDCHAR
STARTCHAR .null
ENCODING -1
SWIDTH 0 0
DWIDTH 0 0
BBX 1 1 0 0
BITMAP
00
ENDCHAR
STARTCHAR nonmarkingreturn
ENCODING -1
SWIDTH 277 0
DWIDTH 7 0
BBX 1 1 0 0
BITMAP
00
ENDCHAR
STARTCHAR middot
ENCODING -1
SWIDTH 333 0
DWIDTH 8 0
BBX 2 3 3 6
BITMAP
C0
C0
C0
ENDCHAR
STARTCHAR uniF004
ENCODING -1
SWIDTH 333 0
DWIDTH 8 0
BBX 2 4 2 -5
BITMAP
C0
C0
40
80
ENDCHAR
STARTCHAR uni2074
ENCODING -1
SWIDTH 333 0
DWIDTH 8 0
BBX 8 10 0 7
BITMAP
04
0C
1C
14
24
64
44
FF
04
04
ENDCHAR
STARTCHAR uni2075
ENCODING -1
SWIDTH 333 0
DWIDTH 8 0
BBX 7 10 1 7
BITMAP
FE
C0
C0
C0
FC
C6
06
06
C6
7C
ENDCHAR
STARTCHAR uni2077
ENCODING -1
SWIDTH 333 0
DWIDTH 8 0
BBX 7 10 1 7
BITMAP
FE
06
04
0C
18
18
10
30
30
30
ENDCHAR
STARTCHAR uni2078
ENCODING -1
SWIDTH 333 0
DWIDTH 8 0
BBX 7 10 1 7
BITMAP
7C
C6
C6
C6
38
C6
C6
C6
C6
7C
ENDCHAR
STARTCHAR glyph571
ENCODING -1
SWIDTH 333 0
DWIDTH 8 0
BBX 9 4 0 14
BITMAP
C180
C180
6300
3E00
ENDCHAR
STARTCHAR glyph572
ENCODING -1
SWIDTH 222 0
DWIDTH 5 0
BBX 2 4 2 13
BITMAP
C0
C0
40
80
ENDCHAR
STARTCHAR glyph573
ENCODING -1
SWIDTH 222 0
DWIDTH 5 0
BBX 2 4 2 14
BITMAP
40
80
C0
C0
ENDCHAR
STARTCHAR glyph574
ENCODING -1
SWIDTH 293 0
DWIDTH 7 0
BBX 5 3 1 18
BITMAP
E0
30
18
ENDCHAR
STARTCHAR glyph575
ENCODING -1
SWIDTH 293 0
DWIDTH 7 0
BBX 5 3 1 18
BITMAP
38
60
C0
ENDCHAR
STARTCHAR glyph576
ENCODING -1
SWIDTH 324 0
DWIDTH 8 0
BBX 8 3 0 18
BITMAP
3C
66
C3
ENDCHAR
STARTCHAR glyph577
ENCODING -1
SWIDTH 324 0
DWIDTH 8 0
BBX 8 3 0 18
BITMAP
C3
66
3C
ENDCHAR
STARTCHAR glyph578
ENCODING -1
SWIDTH 315 0
DWIDTH 8 0
BBX 7 2 1 18
BITMAP
C6
C6
ENDCHAR
STARTCHAR glyph579
ENCODING -1
SWIDTH 328 0
DWIDTH 8 0
BBX 8 3 0 18
BITMAP
71
FF
8E
ENDCHAR
STARTCHAR glyph580
ENCODING -1
SWIDTH 397 0
DWIDTH 10 0
BBX 9 3 1 18
BITMAP
3B80
6600
CC00
ENDCHAR
STARTCHAR glyph581
ENCODING -1
SWIDTH 285 0
DWIDTH 7 0
BBX 8 3 0 18
BITMAP
C3
7E
3C
ENDCHAR
ENDFONT
